<svg width="140" height="38" viewBox="0 0 140 38" fill="none" xmlns="http://www.w3.org/2000/svg">
<path d="M114.231 13.4369V13.4401H101.358V15.9322C101.358 15.9322 113.833 15.9322 114.097 15.9322C114.097 16.1887 114.097 20.5888 114.097 20.5888H116.979V13.4369H116.846H114.231Z" fill="#7C0019"/>
<path d="M106.566 12.224C109.397 12.224 111.7 10.0184 111.7 7.30936C111.7 6.39657 111.412 5.52812 110.889 4.77366C111.265 4.77366 112.634 4.77366 112.634 4.77366V2.38757C112.634 2.38757 108.172 2.38757 107.916 2.38757C107.916 2.15482 107.916 0.55249 107.916 0.55249H107.78H105.106C105.106 0.55249 105.106 2.15482 105.106 2.38757C104.851 2.38757 100.289 2.38757 100.289 2.38757V4.77445C100.289 4.77445 101.797 4.77445 102.187 4.77445C101.65 5.53049 101.356 6.39816 101.356 7.31016C101.356 9.97174 103.74 12.224 106.566 12.224ZM106.566 9.85536C105.228 9.85536 104.141 8.75495 104.141 7.40357C104.141 6.0522 105.228 4.9502 106.566 4.9502C107.904 4.9502 108.989 6.0522 108.989 7.40357C108.989 8.75495 107.904 9.85536 106.566 9.85536Z" fill="#7C0019"/>
<path d="M116.963 2.02576H116.826H114.079V12.3443H116.963C116.961 12.3443 116.963 8.83488 116.963 8.58471C117.195 8.58471 118.88 8.58471 118.88 8.58471V6.00388C118.88 6.00388 117.194 6.00388 116.963 6.00388C116.963 5.75055 116.963 2.02576 116.963 2.02576Z" fill="#7C0019"/>
<path d="M53.9023 6.83124V3.81895L53.8944 2.29815V2.16199H53.7591H39.6175V4.69136C39.6175 4.69136 50.7916 4.69136 51.0535 4.69136C51.0535 4.94707 51.0535 9.3234 51.0535 9.3234C51.0535 9.38357 51.015 15.1089 50.1852 16.5569C50.0334 16.5569 46.7851 16.5569 46.5397 16.5569C46.5397 16.2972 46.5397 10.009 46.5397 10.009H43.7924C43.7924 10.009 43.7924 16.2972 43.7924 16.5569C43.536 16.5569 37.6458 16.5569 37.6458 16.5569V19.0847H55.7152V16.5569C55.7152 16.5569 53.3313 16.5569 53.0056 16.5569C53.2267 15.8459 53.9023 13.1574 53.9023 6.83124Z" fill="#7C0019"/>
<path d="M136.472 16.5569C136.684 15.9077 137.385 13.2778 137.385 6.70853V4.55599L137.404 2.29736V2.16199H137.271H123.098V4.69136C123.098 4.69136 134.272 4.69136 134.534 4.69136C134.534 4.94707 134.534 9.2189 134.534 9.2189C134.534 10.4856 134.38 15.3709 133.637 16.5569C133.506 16.5569 132.427 16.5569 132.211 16.5569C132.211 16.2972 132.211 10.0858 132.211 10.0858H129.464C129.464 10.0858 129.464 16.2972 129.464 16.5569C129.24 16.5569 127.612 16.5569 127.387 16.5569C127.387 16.2972 127.387 10.0858 127.387 10.0858H124.642C124.642 10.0858 124.642 16.2972 124.642 16.5569C124.394 16.5569 121.125 16.5569 121.125 16.5569V19.0847H139.195V16.5569C139.197 16.5569 136.849 16.5569 136.472 16.5569Z" fill="#7C0019"/>
<path d="M72.1817 1.93152C72.1817 1.93152 72.1817 4.97706 72.1817 5.22564C71.9356 5.22564 69.1222 5.22564 69.1222 5.22564V7.62519C69.1222 7.62519 71.9364 7.62519 72.1817 7.62519C72.1817 7.8611 72.1817 10.1585 72.1817 10.396C71.9356 10.396 69.1222 10.396 69.1222 10.396V12.794C69.1222 12.794 71.9364 12.794 72.1817 12.794C72.1817 13.0236 72.1817 14.5341 72.1817 14.6449C71.1223 15.7057 68.5575 15.6464 68.5323 15.644C68.5323 15.644 62.3841 15.644 62.1261 15.644C62.1261 15.3946 62.1261 11.1141 62.1261 10.8631C62.3833 10.8631 67.9385 10.8631 67.9385 10.8631V2.00752H59.0516V4.44585C59.0516 4.44585 64.9356 4.44585 65.1935 4.44585C65.1935 4.69127 65.1935 8.08673 65.1935 8.33135C64.9356 8.33135 59.2435 8.33135 59.2435 8.33135C59.2435 8.33135 59.2435 8.35669 59.2435 8.37806C59.2239 8.37806 59.1964 8.37806 59.1964 8.37806V15.8997C59.2813 17.9264 61.1564 18.1464 61.1752 18.148C61.1917 18.148 68.2004 18.0966 68.2004 18.0966C70.5481 18.0966 71.779 17.6596 72.1825 17.4862C72.1825 17.9826 72.1825 20.3528 72.1825 20.3528H75.0659V1.93152H74.9322H72.1817Z" fill="#7C0019"/>
<path d="M93.6434 1.96082C93.6434 1.96082 93.6434 8.28623 93.6434 8.54669C93.424 8.54669 92.0397 8.54669 91.8203 8.54669C91.8203 8.28623 91.8203 1.96082 91.8203 1.96082H89.1807C89.1807 1.96082 89.1807 14.4304 89.1807 14.5863C87.9986 15.3566 85.9096 15.3059 85.8868 15.3059C85.8868 15.3059 82.7746 15.3059 82.526 15.3059C82.526 15.0439 82.526 4.78232 82.526 4.52265C82.7801 4.52265 86.866 4.52265 86.866 4.52265V2.09065H79.6576V15.4738C79.6828 17.5756 81.6137 17.7997 81.6349 17.8013C81.664 17.8029 83.5894 17.8456 85.562 17.7522C87.4913 17.6588 88.5783 17.3556 89.1823 17.0848C89.1823 17.4585 89.1823 20.3299 89.1823 20.3299H91.8219C91.8219 20.3299 91.8219 11.3816 91.8219 11.1196C92.0413 11.1196 93.4256 11.1196 93.645 11.1196C93.645 11.3816 93.645 20.3299 93.645 20.3299H96.2846V1.96082H96.1501H93.6434Z" fill="#7C0019"/>
<path d="M45.8688 31.612C45.6273 31.4299 45.4016 31.2573 44.9124 30.7395C44.9124 30.7395 42.8478 28.4374 42.5316 28.0867C42.6118 27.9869 44.936 25.1282 44.936 25.1282L45.072 24.981H44.8974H43.9001L41.2889 28.2307V24.981H41.2134H40.1075V31.8463H41.2881V28.3329L44.015 31.3855C44.2399 31.6927 44.6457 31.8463 45.2152 31.8463H46.1897L45.9584 31.6792C45.96 31.6824 45.8688 31.612 45.8688 31.612Z" fill="#7C0019"/>
<path d="M49.6094 24.7799C48.5697 24.7728 47.6746 25.1258 46.951 25.8249C46.2274 26.5263 45.8601 27.3845 45.8601 28.3788C45.8601 29.4262 46.2243 30.3065 46.9416 30.9945C47.6384 31.6674 48.5036 32.0094 49.5127 32.0094C50.5218 32.0094 51.3948 31.6539 52.1113 30.9565C52.8302 30.2598 53.1936 29.3739 53.1936 28.3289C53.1936 27.3702 52.8562 26.5406 52.1916 25.8581C51.5018 25.1504 50.6327 24.7878 49.6094 24.7799ZM49.5622 31.1116C48.8504 31.1116 48.2495 30.8116 47.7816 30.2218C47.3427 29.6724 47.1209 29.0224 47.1209 28.287C47.1209 27.527 47.3451 26.8952 47.7847 26.4068C48.2236 25.9223 48.8135 25.6761 49.5418 25.6761C50.2536 25.6761 50.8451 25.9721 51.302 26.5556C51.7197 27.0995 51.9328 27.7613 51.9328 28.5308C51.9328 29.2781 51.7181 29.9004 51.2934 30.3825C50.8521 30.867 50.2693 31.1116 49.5622 31.1116Z" fill="#7C0019"/>
<path d="M62.6916 28.5656C62.834 28.5656 64.8844 28.5672 64.8844 28.5672V27.6663C64.8844 27.6663 62.834 27.6679 62.6916 27.6679C62.6916 27.5333 62.6916 26.0196 62.6916 25.8874C63.1737 25.8764 65.3768 25.8859 65.3996 25.8859L65.4759 25.8874V24.9644L61.5032 24.9628V25.0404L61.504 31.8471H65.7559L65.9006 30.8805C65.9006 30.8805 62.8363 30.8836 62.6916 30.8836C62.6916 30.7443 62.6916 28.7018 62.6916 28.5656Z" fill="#7C0019"/>
<path d="M106.053 28.5656C106.195 28.5656 108.243 28.5672 108.243 28.5672V27.6663C108.243 27.6663 106.195 27.6679 106.053 27.6679C106.053 27.5333 106.053 26.0196 106.053 25.8874C106.532 25.8764 108.735 25.8859 108.759 25.8859L108.835 25.8874V24.9644L104.863 24.9628V25.0404L104.866 31.8471H109.117L109.261 30.8805C109.261 30.8805 106.198 30.8836 106.053 30.8836C106.053 30.7443 106.053 28.7018 106.053 28.5656Z" fill="#7C0019"/>
<path d="M70.5827 24.9628H69.4903L66.6997 31.8463H67.7552C67.7552 31.8463 68.6589 29.4175 68.6943 29.3225C68.7934 29.3225 71.057 29.3225 71.1561 29.3225C71.1923 29.4159 72.1141 31.8463 72.1141 31.8463H73.4236L70.6339 24.9628H70.5827ZM70.7778 28.4113C70.593 28.4113 69.2095 28.4113 69.0223 28.4113C69.0915 28.2331 69.7923 26.4495 69.9079 26.1495C70.0251 26.4527 70.7102 28.2331 70.7778 28.4113Z" fill="#7C0019"/>
<path d="M84.191 24.9691H83.3706L83.3769 29.2125C83.3769 30.4791 83.0828 31.1631 81.5381 31.1631H81.3572C80.3331 31.1631 79.8101 30.5068 79.8101 29.2125C79.8101 29.2093 79.8164 24.9691 79.8164 24.9691H78.6279L78.6224 29.2156C78.6224 29.7302 78.6437 30.0849 78.6861 30.2954C78.7569 30.6849 78.9174 31.0182 79.1612 31.2858C79.6103 31.7774 80.2505 32.0284 81.0638 32.0284H81.8314C82.6447 32.0284 83.2841 31.7774 83.7324 31.2842C83.9786 31.0182 84.1391 30.6849 84.2075 30.2939C84.2508 30.0841 84.2712 29.7318 84.2712 29.2156L84.2681 24.9691H84.191Z" fill="#7C0019"/>
<path d="M91.5182 24.9691L91.5127 25.0451C91.5127 25.0451 91.5049 29.6225 91.5049 30.0271C91.2532 29.7033 87.5487 24.9691 87.5487 24.9691H86.5215V31.8653H87.411C87.411 31.8653 87.4181 27.1145 87.4181 26.7076C87.669 27.0346 91.4294 31.8606 91.4294 31.8606L92.4164 31.8653V24.9691H92.3346H91.5182Z" fill="#7C0019"/>
<path d="M94.7296 24.9691L94.728 31.8653H95.9102L95.9117 24.9691H95.8347H94.7296Z" fill="#7C0019"/>
<path d="M123.132 24.9691L123.135 26.4915V30.354L123.141 31.8653H124.322L124.323 30.3524V26.4899L124.325 25.0451V24.9691H124.248H123.132Z" fill="#7C0019"/>
<path d="M102.551 24.9691C102.551 24.9691 100.724 30.0049 100.592 30.3738C100.459 30.0049 98.6669 24.9691 98.6669 24.9691H97.3196L99.8734 31.8685L100.945 31.8669L103.592 24.9691H103.481H102.551Z" fill="#7C0019"/>
<path d="M120.832 28.3692C120.825 28.3645 119.914 27.9148 119.914 27.9148L119.128 27.5269C118.553 27.2221 118.26 26.892 118.26 26.5413C118.26 26.2476 118.388 26.0314 118.661 25.8802C118.868 25.7599 119.163 25.7037 119.529 25.7171C120.127 25.7322 120.74 25.9119 121.061 26.1613L121.182 26.2578V25.0355L121.129 25.0181C120.649 24.8661 120.129 24.7893 119.587 24.7893C118.879 24.7893 118.278 24.9302 117.805 25.2081C117.24 25.5351 116.953 26.0188 116.953 26.6466C116.953 27.2854 117.27 27.8158 117.899 28.2251C117.905 28.2291 118.238 28.393 118.238 28.393L119.605 29.0691C120.18 29.3731 120.471 29.7277 120.471 30.1259C120.471 30.4276 120.316 30.6682 119.997 30.859C119.715 31.0308 119.41 31.1155 119.088 31.1123C118.352 31.1076 117.664 30.9216 117.036 30.5606L116.902 30.4798L117.078 31.6831L117.122 31.699C117.679 31.908 118.301 32.0125 118.972 32.0125C119.812 32.0125 120.532 31.7932 121.046 31.3799C121.532 30.9833 121.779 30.4584 121.779 29.8148C121.779 29.2567 121.46 28.7706 120.832 28.3692Z" fill="#7C0019"/>
<path d="M125.577 24.9414V25.0158L125.573 25.8479C125.573 25.8479 127.345 25.8479 127.484 25.8494C127.484 25.9983 127.484 31.8455 127.484 31.8455H128.668C128.668 31.8455 128.671 25.9983 128.671 25.8494C128.809 25.8494 130.62 25.8526 130.62 25.8526V24.9422H125.577V24.9414Z" fill="#7C0019"/>
<path d="M136.352 24.9525C136.352 24.9525 134.6 27.6671 134.479 27.8539C134.362 27.6663 132.647 24.9414 132.647 24.9414H132.604H131.284C131.284 24.9414 133.723 28.8047 133.748 28.8412C133.748 28.8879 133.739 31.8455 133.739 31.8455H134.929C134.929 31.8455 134.932 28.8894 134.932 28.8427C134.958 28.8047 137.502 24.9525 137.502 24.9525H136.352Z" fill="#7C0019"/>
<path d="M59.1444 30.2939C59.1444 30.2939 58.011 28.8657 57.7239 28.5063C57.9591 28.4208 58.3705 28.2331 58.6811 27.9038C59.0248 27.5452 59.1979 27.1327 59.1979 26.6878C59.1979 26.1819 59.0083 25.7679 58.6347 25.4512C58.2423 25.1282 57.7011 24.9644 57.0232 24.9644H54.8272H54.7509L54.7501 31.8463H55.9692V31.7418C55.9393 31.5122 55.9362 31.1568 55.9362 30.3406C55.9362 30.3406 55.9362 25.9698 55.9362 25.8209C57.0523 25.8106 57.4966 25.9516 57.6697 26.0727C57.9041 26.2413 58.0173 26.4828 58.015 26.8113C58.011 27.5721 57.4581 28.0273 56.3224 28.1999L56.1942 28.2173L58.5891 31.3064C58.8738 31.665 59.2891 31.8455 59.8263 31.8455H60.8047L60.6018 31.707C60.115 31.3737 59.5833 30.8583 59.1444 30.2939Z" fill="#7C0019"/>
<path d="M114.778 30.2939C114.778 30.2939 113.643 28.8657 113.356 28.5063C113.593 28.4208 114.002 28.2331 114.315 27.9038C114.659 27.5452 114.831 27.1327 114.831 26.6878C114.831 26.1819 114.641 25.7679 114.266 25.4512C113.876 25.1282 113.333 24.9644 112.653 24.9644H110.459H110.383V31.8463H111.601V31.7418C111.57 31.5122 111.569 31.175 111.569 30.3406C111.569 30.3406 111.569 25.9698 111.569 25.8209C112.686 25.8106 113.128 25.9516 113.302 26.0727C113.537 26.2397 113.647 26.4828 113.647 26.8113C113.641 27.5721 113.09 28.0273 111.954 28.1999L111.826 28.2173L114.223 31.3064C114.506 31.665 114.924 31.8455 115.458 31.8455H116.437L116.234 31.707C115.748 31.3737 115.214 30.8583 114.778 30.2939Z" fill="#7C0019"/>
<path d="M28.8675 0.484497V20.2374C28.8675 20.2374 29.0209 27.3735 24.1083 31.4893C24.1083 31.4893 20.0617 34.7961 15.5644 36.8956H15.5156C10.8563 34.8769 7.04717 31.4893 7.04717 31.4893C2.13538 27.3735 2.21088 20.2374 2.21088 20.2374V0.484497H28.8675Z" fill="#D7C9B1"/>
<path d="M28.8675 0.000732422H1.73108V20.2373C1.72872 20.5334 1.71063 27.6434 6.74198 31.8598L6.73019 31.8503C6.88749 31.992 10.6502 35.3122 15.326 37.3397L15.4173 37.3785H15.6697L15.7657 37.3334C20.2661 35.2339 24.3686 31.897 24.4111 31.8645C29.4487 27.6441 29.3559 20.5294 29.3481 20.2278V0.000732422H28.8675ZM28.3869 0.967357C28.3869 1.88807 28.3869 20.2373 28.3869 20.2373C28.3869 20.2421 28.3869 20.2547 28.3869 20.2809C28.3869 20.8778 28.2807 27.3639 23.8015 31.1172C23.7654 31.1449 19.8572 34.3211 15.536 36.3746C11.082 34.4018 7.40344 31.1592 7.36569 31.1267L7.35547 31.1172C2.74412 27.2531 2.69064 20.497 2.69064 20.2492C2.69064 20.2444 2.69064 1.88807 2.69064 0.967357C3.60064 0.967357 27.4793 0.967357 28.3869 0.967357Z" fill="#7C0019"/>
<path d="M28.7621 11.1055H2.21167V0.484497H28.7621V11.1055Z" fill="#7C0019"/>
<path d="M2.74646 1.03149V1.22941H28.3963V1.03149H2.74646Z" fill="#D7C9B1"/>
<path d="M2.74646 6.55884V6.75596H28.3963V6.55884H2.74646Z" fill="#D7C9B1"/>
<path d="M2.6875 9.85852V10.0564H28.339V9.85852H2.6875Z" fill="#D7C9B1"/>
<path d="M13.3771 33.136H13.7302C13.7798 33.136 13.7617 33.0917 13.7617 33.0917C13.6178 32.4512 13.6925 31.9524 13.72 31.8044C13.72 31.8044 13.735 31.7593 13.683 31.7593H13.3346C13.2874 31.7593 13.3047 31.7957 13.3047 31.7957C13.4227 32.2865 13.3771 32.9072 13.3464 33.0885C13.3464 33.0885 13.3252 33.136 13.3771 33.136Z" fill="#7C0019"/>
<path d="M14.6843 31.7205C14.1227 31.7751 14.1573 32.4385 14.1573 32.4385C14.1919 33.0386 14.8101 33.151 14.8101 33.151C14.6418 33.6102 14.1911 33.7479 14.1911 33.7479C14.0841 33.7899 14.162 33.8216 14.162 33.8216C14.2973 33.8643 14.4931 33.7867 14.4931 33.7867C15.3182 33.4131 15.3394 32.5438 15.3394 32.5438C15.3559 31.6571 14.6843 31.7205 14.6843 31.7205ZM14.8848 32.9412C14.6166 32.9491 14.5521 32.5288 14.5521 32.5288C14.4821 32.0648 14.6607 32.0387 14.6607 32.0387C14.8494 31.9801 14.9312 32.3736 14.9312 32.3736C15.024 32.8264 14.8848 32.9412 14.8848 32.9412Z" fill="#7C0019"/>
<path d="M16.7661 32.2579C16.7661 32.2579 16.6914 31.7069 16.1794 31.7141C16.1794 31.7141 15.6721 31.6998 15.6485 32.4068C15.6485 32.4068 15.6288 33.1533 16.2706 33.1208C16.2706 33.1208 16.8983 33.0813 16.7661 32.2579ZM16.2793 32.8857C16.0363 32.9736 16.0103 32.4756 16.0103 32.4756C15.9851 31.9983 16.177 31.9523 16.177 31.9523C16.3729 31.9041 16.4264 32.2548 16.4264 32.2548C16.5145 32.7963 16.2793 32.8857 16.2793 32.8857Z" fill="#7C0019"/>
<path d="M16.9172 33.3117C17.4583 33.421 17.6022 33.0331 17.6022 33.0331C17.7745 32.486 17.0949 32.4583 17.0949 32.4583L17.2042 31.753C17.2042 31.753 17.8861 31.7878 18.0694 31.696C18.0694 31.696 18.1119 31.6667 18.0875 31.7704C18.0875 31.7704 18.0497 32.0063 17.8271 32.0205L17.4921 32.0482L17.4598 32.2485C17.4598 32.2485 18.0395 32.2351 18.0293 32.866C18.0293 32.866 18.008 33.3537 17.441 33.4732C17.441 33.4732 17.1759 33.5326 16.87 33.4067C16.87 33.4067 16.8243 33.3854 16.8487 33.3474C16.8487 33.3474 16.87 33.3015 16.9172 33.3117Z" fill="#7C0019"/>
<path d="M14.9201 20.1051C14.9626 20.0544 15.0184 20.0901 15.0649 20.1051C15.1081 20.1186 15.1097 20.2033 15.1349 20.2492C15.1482 20.2801 15.2332 20.3656 15.241 20.3925C15.3102 20.7099 15.241 21.1264 15.0987 21.3654C15.0593 21.4406 14.9933 21.4786 14.9477 21.4802C14.8879 21.4874 14.869 21.3979 14.8486 21.3654C14.7573 21.2388 14.8258 20.934 14.8486 20.7915C14.8722 20.6102 14.7298 20.3149 14.821 20.1811C14.821 20.1811 14.9178 20.1051 14.9201 20.1051Z" fill="#7C0019"/>
<path d="M10.6344 20.4408C10.7107 20.417 10.8208 20.4566 10.8672 20.4408L10.9703 20.398C11.089 20.3212 11.2078 20.3442 11.3281 20.3561C11.3879 20.3624 11.568 20.44 11.6262 20.4424C11.7214 20.4542 12.1729 20.5017 12.6518 20.5714C12.6479 20.5698 12.9075 20.5374 12.8422 20.4645C12.8831 20.5112 12.8351 20.4249 12.7376 20.3909L12.7037 20.3553C12.7077 20.3497 12.6212 20.2824 12.7745 20.2286C12.7163 20.2476 12.8768 20.2056 12.9075 20.1716C12.9704 20.1043 12.8791 20.0331 12.8791 20.0331C12.6518 19.9547 12.397 20.1027 12.0564 20.0671C11.8889 20.0529 11.6506 19.9547 11.4154 19.9959C11.1575 20.041 10.7791 20.1874 10.599 20.3284C10.5998 20.3299 10.5133 20.4811 10.6344 20.4408Z" fill="#7C0019"/>
<path d="M13.5021 18.5717C13.7341 18.559 13.7444 18.7997 13.7491 18.7751C13.7231 18.9461 13.3023 18.9635 13.2025 19.0973C12.9075 19.4837 13.0302 19.8526 12.3349 19.8914C12.3349 19.8914 12.1949 19.8581 12.2492 19.7995C12.2932 19.7536 12.46 19.7093 12.5229 19.6705C12.6134 19.6198 12.6055 19.4742 12.6653 19.3839C12.6771 19.3602 12.7549 19.334 12.7746 19.3134C12.9704 19.049 12.9925 18.7799 13.3362 18.6223C13.3503 18.6136 13.4762 18.5772 13.5021 18.5717Z" fill="#7C0019"/>
<path d="M15.7272 17.5353C15.8074 17.4894 15.8853 17.5353 15.9372 17.5828C15.9687 17.6026 16.2219 18.2178 16.2329 18.2771C16.266 18.5012 16.2903 19.0165 16.2306 19.1804C16.1456 19.41 15.934 19.5881 15.9805 19.9974C16.0048 20.2357 16.1102 20.4233 16.2101 20.6323C16.2227 20.6664 16.3265 20.8706 16.3328 20.9134C16.3714 21.1327 16.2518 21.4169 16.2337 21.5942C16.181 22.036 16.3564 22.4389 16.2856 22.8617C16.2565 23.043 16.1983 23.1356 16.0984 23.2456L16.0198 23.3145C15.9993 23.3596 15.9584 23.3731 15.9191 23.4048L15.8711 23.4546C15.7964 23.4713 15.7893 23.5148 15.7579 23.5195C15.5699 23.5623 15.5314 23.4515 15.5439 23.476C15.352 22.9337 15.6721 22.3028 15.5085 21.7787C15.4716 21.6599 15.33 21.5388 15.3119 21.4113C15.2458 20.9403 15.6816 20.6949 15.6761 20.379C15.6761 20.155 15.3819 19.8644 15.3158 19.6428C15.2325 19.3807 15.1782 18.8843 15.2907 18.5605C15.3174 18.483 15.4189 18.3508 15.4456 18.2447C15.4991 18.0428 15.5817 17.8758 15.6108 17.742C15.621 17.7008 15.6462 17.6422 15.6682 17.6018C15.6761 17.5908 15.7138 17.5425 15.7272 17.5353Z" fill="#7C0019"/>
<path d="M21.2831 16.4159C21.5977 16.3795 21.74 16.5062 21.5922 16.7753L21.5308 16.8339C21.5049 16.8426 21.4215 16.9527 21.4042 16.9685C21.2532 17.0817 21.1085 17.1506 20.9928 17.2939C20.9535 17.3422 20.9213 17.4633 20.8717 17.506C20.7923 17.5638 20.4926 17.696 20.4147 17.7103C20.0356 17.7728 19.5158 17.3889 19.4607 17.168C19.4112 16.978 19.4607 16.7943 19.5425 16.75C19.6699 16.6851 20.0105 16.7199 20.1245 16.7073C20.4187 16.6851 20.6019 16.7009 20.8277 16.6233C20.9645 16.5782 21.1203 16.4357 21.2831 16.4159Z" fill="#7C0019"/>
<path d="M19.6613 16.2884C19.6613 16.2884 19.8399 16.3637 20.0003 16.3249C20.1128 16.2972 20.322 16.2006 20.4282 16.1808C20.4927 16.1642 20.5823 16.199 20.6445 16.1808C20.8183 16.1269 21.1376 15.7857 20.7546 15.7493C20.6154 15.7351 20.2001 15.8934 20.0719 15.9298C19.9421 15.9623 19.8611 15.9844 19.7541 16.0414C19.725 16.0581 19.5764 16.1808 19.5945 16.1594C19.5945 16.1594 19.4962 16.2417 19.6613 16.2884Z" fill="#7C0019"/>
<path d="M16.9227 16.9361C16.8102 16.921 16.8102 16.731 16.5294 16.792C16.3328 16.8339 16.2793 17.1237 15.9922 17.1174L15.8499 17.0461C15.7256 17.016 15.6367 17.0612 15.5266 17.0073C15.0225 16.769 15.9183 15.5538 16.207 15.5689C16.2219 15.5689 16.3705 15.6243 16.3886 15.6401C16.4783 15.7201 16.4783 16.0573 16.5632 16.1808C16.6285 16.2671 16.7292 16.26 16.8157 16.3249C16.907 16.393 17.0792 16.6329 17.0996 16.7579C17.0996 16.7579 17.1476 16.9662 16.9227 16.9361Z" fill="#7C0019"/>
<path d="M21.5773 26.7706C21.5832 26.7604 21.5832 26.7621 21.5773 26.7706V26.7706Z" fill="#7C0019"/>
<path d="M25.5908 16.0684C25.5908 16.0699 25.5916 16.0723 25.5916 16.0747C25.5916 16.0763 25.5932 16.0771 25.5932 16.0771C25.5916 16.0723 25.5916 16.0699 25.5908 16.0684Z" fill="#7C0019"/>
<path d="M21.0755 15.7254C21.0787 15.7197 21.082 15.7115 21.0836 15.7067C21.0747 15.7262 21.073 15.7294 21.0755 15.7254Z" fill="#7C0019"/>
<path d="M18.9005 21.8732C18.8997 21.8715 18.8945 21.8715 18.8928 21.8698C18.9005 21.8749 18.9022 21.8749 18.9005 21.8732Z" fill="#7C0019"/>
<path d="M14.7534 17.0256C14.5575 17.1364 14.1328 17.3058 14.044 17.495C13.9936 17.5948 13.9936 17.6811 13.9535 17.8022C13.9488 17.8156 13.8953 17.8354 13.8788 17.8719C13.6711 17.8719 13.4887 17.86 13.3086 17.9075C13.167 17.9479 12.9649 18.0983 12.8083 18.1244C12.4898 18.179 12.2468 18.0381 11.9495 18.0888C11.8165 18.1117 11.7316 18.2511 11.6223 18.3049C11.5295 18.3516 11.4917 18.3516 11.4186 18.4181L11.3525 18.4949C11.3423 18.5234 11.3092 18.5962 11.2888 18.6303C11.2243 18.7276 11.1975 18.8274 11.1818 18.9335C11.1669 19.0364 11.1071 19.2818 11.0544 19.3831C11.0292 19.4314 10.8932 19.5415 10.8743 19.5866C10.8641 19.6183 10.8342 19.6491 10.8743 19.6943C10.8287 19.6444 10.8381 19.7441 11.0953 19.7576C11.3784 19.7639 11.9959 19.5747 11.9959 19.5747L12.2932 19.414C12.3498 19.3689 12.5802 19.1947 12.6298 19.133C12.8461 18.8638 13.4226 17.8813 13.8725 18.1402L13.9535 18.1972C14.0605 18.3785 13.926 18.8979 13.845 19.0158L13.7435 19.1369C13.6633 19.1639 13.6066 19.3721 13.5949 19.4702C13.5768 19.6246 13.6208 19.7639 13.6326 19.851C13.6554 20.0363 13.6759 20.2714 13.561 20.5018C13.5359 20.5469 13.4706 20.6268 13.4879 20.7511C13.5091 20.8936 13.7089 20.9974 13.7372 21.1129C13.7537 21.1707 13.8049 21.1818 13.7372 21.2942C13.6995 21.3528 13.5351 21.4573 13.4879 21.5103C13.4226 21.5753 13.48 21.6798 13.5225 21.7209C13.646 21.8334 13.7482 21.8468 13.845 21.9774C13.9818 22.154 13.974 22.3076 14.276 22.3369C14.5127 22.3598 14.847 22.3717 14.7062 22.0471L14.6346 21.926C14.5505 21.7146 14.4034 21.5262 14.3829 21.2942C14.3554 20.9989 14.5914 20.8485 14.4931 20.611C14.4128 20.4273 14.0565 20.4487 14.0266 20.2112C14.0109 20.0766 14.1446 19.7972 14.1706 19.6689C14.1989 19.4963 14.1533 19.3871 14.2075 19.2375C14.2437 19.1322 14.4002 19.0118 14.4168 18.8796C14.4506 18.6437 14.2681 18.4941 14.3483 18.2336C14.3869 18.1006 14.5953 18.1141 14.6724 18.0151C14.7715 17.8806 14.7172 17.6969 14.7778 17.5093C14.7841 17.4879 14.8352 17.3763 14.8454 17.3573C14.8383 17.3486 14.8855 17.1158 14.8855 17.1158C14.8541 16.9717 14.7644 17.0303 14.7534 17.0256ZM12.4874 18.9263C12.2869 18.9731 12.268 18.544 11.7874 18.7102C11.7615 18.7197 11.6262 18.844 11.6152 18.8646C11.5586 18.9936 11.5884 19.3206 11.5255 19.3523C11.5255 19.3523 11.3383 19.399 11.3745 19.1607C11.4319 18.7823 11.5051 18.711 11.6946 18.5519C11.7206 18.5297 11.7914 18.4775 11.8283 18.468C12.0549 18.4165 12.4741 18.5036 12.5504 18.6208C12.6156 18.7158 12.4788 18.9287 12.4874 18.9263Z" fill="#7C0019"/>
<path d="M25.5916 16.0748C25.5578 15.8982 25.0835 15.9117 24.8916 15.6766C24.82 15.5832 24.8735 15.5317 24.8916 15.462C24.9451 15.257 25.38 15.3781 25.4815 15.196C25.5224 15.12 25.5373 14.8944 25.5106 14.8635C25.2385 14.5271 24.6643 14.6862 24.2585 14.5239C24.0634 14.4432 23.8196 14.2793 23.6143 14.2017C23.3563 14.1027 23.1573 14.0877 22.8994 13.9848C22.8396 13.9602 22.7255 13.8755 22.6642 13.8502C22.3763 13.7346 22.1498 13.7109 21.8635 13.5882C21.8297 13.5739 21.7424 13.524 21.7046 13.5106C21.5898 13.4607 21.5544 13.4528 21.4325 13.4092C20.9897 13.2454 20.4266 13.1052 19.7855 13.1448C19.504 13.1607 19.1815 13.1092 18.7489 13.2327C18.5979 13.2691 18.3887 13.4005 18.2487 13.4449C18.1496 13.475 18.0646 13.4916 17.975 13.532C17.8499 13.5818 17.7398 13.657 17.5691 13.6966C17.0768 13.8075 16.4216 13.6855 15.923 13.7687C15.4896 13.8383 15.2403 14.113 14.8848 14.2365C14.7762 14.273 14.7314 14.2619 14.6252 14.3015C14.5623 14.3228 14.4152 14.3616 14.3649 14.3901C14.2162 14.4661 14.1203 14.4899 13.9527 14.5603C13.8694 14.5983 13.7703 14.6767 13.6885 14.7139C13.5689 14.7733 13.5618 14.7907 13.4619 14.8635L13.3809 14.9229C13.3809 14.9229 13.2055 15.0765 13.1843 15.1034C13.1151 15.177 13.0482 15.2776 12.9877 15.3544C12.806 15.5681 12.5323 15.8357 12.3066 16.0012C12.2248 16.0597 12.1666 16.0487 12.0942 16.1112C12.0077 16.1769 11.9337 16.2474 11.8512 16.3091C11.6632 16.4445 11.476 16.5355 11.2699 16.6487L11.137 16.7374C10.9624 16.8538 10.9695 16.9013 10.7886 17.0153C10.6706 17.0952 10.6187 17.218 10.5094 17.3122C10.4378 17.3676 10.3552 17.5433 10.3072 17.6193C10.0815 17.9502 9.99813 18.4387 9.83768 18.8496C9.7897 18.9659 9.3988 19.5336 9.30206 19.5684L9.23049 19.6373C9.17543 19.6848 9.17543 19.6982 9.12431 19.7489C9.00869 19.8526 8.89228 19.912 8.80341 20.0379C8.73026 20.1352 8.68779 20.2516 8.62094 20.3601C8.51947 20.5279 8.35037 20.7147 8.26543 20.9008C8.23082 20.9689 8.20565 21.0377 8.18206 21.1027C8.17262 21.1122 8.16633 21.1248 8.16318 21.1248C8.11992 21.1802 8.0452 21.4122 8.0452 21.4122C7.96577 21.5975 7.77622 21.7012 7.52689 22.0598C7.23431 22.0812 6.22835 21.8239 5.54408 21.4977C5.69745 21.6687 6.46509 22.1888 7.36408 22.2886C7.30431 22.3757 7.29959 22.4675 7.19262 22.4952C6.83161 22.5839 6.20711 22.386 5.36633 22.0922C5.41588 22.2086 6.1552 22.6448 7.24846 22.7113C7.08644 22.9045 5.58498 22.8562 4.4115 22.534C4.36667 22.6583 5.87914 22.9963 6.70891 22.9845C6.56655 23.0581 6.19374 23.1436 5.95386 23.2307C5.57554 23.1879 5.047 23.1222 4.94397 23.0826C4.96835 23.1602 5.34273 23.2623 5.65183 23.3352C5.35453 23.4412 4.91251 23.5038 4.74183 23.5394C4.8661 23.5727 5.34431 23.4935 5.84925 23.3724C6.29049 23.4579 6.96453 23.5465 7.33577 23.5299C7.24296 23.5766 6.89296 23.8038 6.61768 23.9653C5.91296 24.0326 5.14453 24.092 4.98015 24.1118C5.07296 24.1268 5.69195 24.1363 6.35026 24.1205C5.94678 24.358 5.51813 24.6034 5.31127 24.6984C5.6188 24.6208 6.16307 24.411 6.72071 24.1086C7.2752 24.0888 7.79431 24.0437 8.0106 23.9653C7.93588 24.1276 7.48914 24.905 7.0715 25.0847C7.25161 25.0555 7.82891 24.89 8.17891 24.0105C8.30397 24.0635 8.44397 24.0967 8.60914 24.1054C8.70116 24.2464 8.91903 24.6034 9.33273 24.624C9.4161 24.867 10.183 26.125 11.2589 25.6326C10.9475 25.4639 10.7603 25.2858 10.6069 24.7847C11.0843 24.7546 12.349 25.4521 12.7289 26.9618C12.4292 26.8589 12.0549 26.6847 12.0155 26.5343C11.9337 26.8842 11.8803 27.3339 12.6463 28.1105C12.6613 28.2775 12.6589 28.477 12.6935 28.6655C12.8209 28.7969 12.9672 28.8966 13.1017 29.013C13.1119 29.2299 13.0813 29.5331 13.6531 29.7002C13.8466 29.8609 14.471 30.0342 14.5615 30.1419C14.7479 30.2021 15.0232 30.214 15.2245 30.2021C15.2245 30.2021 15.4959 30.1554 15.5682 30.0517C15.7035 30.0445 15.8876 30.0398 16.7158 29.1523C16.8896 28.9417 16.7158 27.7922 16.7575 27.5144C16.8392 27.3125 16.8746 27.1257 16.9855 26.8763C16.9855 26.8763 17.0988 26.6285 17.3104 26.5303C17.3245 26.5216 17.3371 26.5216 17.3544 26.5169C17.8318 26.4084 18.4532 26.8581 18.7481 26.9839C18.8543 27.0299 18.9109 27.0045 18.9975 27.0592C19.0391 27.0805 19.0981 27.1787 19.1414 27.2025C19.2468 27.2618 19.3482 27.2468 19.4654 27.3085C19.6369 27.4051 19.9845 27.9118 20.2866 27.854C20.3809 27.8302 20.4549 27.6133 20.5359 27.5611C20.6767 27.474 20.8741 27.4811 21.0007 27.3837C21.1446 27.269 21.0857 27.1399 21.1069 26.9839C21.1069 26.9784 21.1737 26.9048 21.1808 26.8755C21.2508 26.8652 21.4066 26.8739 21.5033 26.843C21.5159 26.8375 21.5568 26.79 21.5741 26.771C21.6354 26.7069 21.5906 26.6364 21.5741 26.5857C21.5528 26.5287 21.4066 26.4599 21.3609 26.4084C21.2532 26.3 21.0691 26.1448 21.0007 26.0126C20.9677 25.9469 21.0094 25.935 20.9645 25.8661C20.9173 25.7909 20.7915 25.7141 20.7537 25.6175C20.6161 25.3072 20.6712 24.6192 20.609 24.5227C20.5532 24.4292 20.4824 24.4419 20.4266 24.3556C20.3078 24.1648 20.4549 23.5545 20.4651 23.3122C20.4753 23.1175 20.2866 23.2386 20.2866 23.2386C20.13 23.6281 20.1466 23.7991 20.1088 24.3556C20.1025 24.4047 20.0364 24.7 20.0364 24.753C20.0349 24.947 20.1466 25.2763 20.071 25.5091C20.0459 25.5843 19.8901 25.7299 19.6778 25.7244C19.5976 25.7244 19.1972 25.6199 19.1068 25.5803C19.0887 25.5708 19.0037 25.4734 18.9982 25.4719C18.7985 25.3127 18.7568 25.4616 18.7489 25.54C18.7418 25.6239 18.7757 25.6397 18.7922 25.6872C18.7992 25.7331 18.8795 25.9041 18.8716 25.92C18.8692 25.9374 18.7992 26.1274 18.4272 25.9041C18.1472 25.7323 17.8704 25.2621 17.8554 25.1821C17.8169 25.0032 17.8719 24.8662 17.9066 24.8037C18.0466 24.6754 18.2117 24.8536 18.3525 24.928C18.3871 24.947 18.4744 25.0087 18.5177 25.0159C18.5987 25.0309 18.7308 25.0024 18.7489 25.0024C19.2916 24.9692 19.854 25.1663 19.9499 24.799C20.0105 24.5686 19.7855 24.4459 19.7462 24.3493C19.6951 24.2337 19.721 24.225 19.6912 24.0983C19.6872 24.0888 19.6495 24.0049 19.6416 23.9938C19.5858 23.8988 19.6259 23.8141 19.5716 23.7072C19.5142 23.5909 19.3537 23.5188 19.2861 23.4191C19.1941 23.2845 19.1941 23.119 19.0698 23.0209C18.8866 22.8705 18.1535 22.6504 18.0678 22.4786C17.9286 22.2062 18.1 21.7067 18.0332 21.3647C17.9962 21.1652 17.9317 21.056 17.8098 20.9317C17.7626 20.8842 17.7406 20.8121 17.7579 20.7464C17.7894 20.6277 17.8531 20.6609 17.8885 20.3917C17.9113 20.2437 17.8751 20.0774 17.8885 19.9247C17.8892 19.9001 17.9592 19.6642 17.9632 19.6365C17.9962 19.2335 17.9435 18.8132 17.8554 18.5226C17.8137 18.3809 17.6832 18.2582 17.6407 18.1236C17.603 18.0112 17.6478 17.9471 17.603 17.8347C17.5668 17.7365 17.4417 17.6676 17.3922 17.5869C17.2946 17.442 17.3237 17.1982 17.1751 17.1166C17.0658 17.0549 17.0272 17.1404 17.0343 17.1166C16.9981 17.2472 17.006 17.3771 17.0689 17.5481C17.0957 17.6209 17.2301 17.727 17.2506 17.8006C17.2781 17.9328 17.2294 18.0943 17.2506 18.2337L17.319 18.3769C17.3741 18.7379 17.179 19.2185 17.0343 19.4188C16.9321 19.5534 16.6245 19.7244 16.6057 19.9239C16.5907 20.0482 16.6403 20.0529 16.6717 20.1044C16.7181 20.1701 16.8668 20.2572 16.888 20.3205C16.9045 20.3664 16.9226 20.3569 16.9415 20.4052L16.9604 20.501C16.9848 20.7527 16.6584 20.8113 16.8164 21.1122C16.8621 21.1992 17.0146 21.1992 17.1004 21.2555C17.2632 21.3584 17.5723 21.6513 17.6014 21.8999C17.6155 22.0107 17.6006 22.5918 17.5684 22.6583C17.4936 22.8198 17.0917 22.8815 17.1381 23.1998C17.1877 23.5473 18.0961 23.4492 18.3509 23.6312C18.4728 23.7152 18.4972 23.9028 18.5334 24.0674C18.5539 24.1561 18.465 24.1878 18.4249 24.2076C18.3289 24.2622 18.2605 24.221 18.1386 24.2456C17.8428 24.3057 17.3717 24.4403 17.2482 24.6786C17.0933 24.9541 17.2758 25.3317 17.2105 25.6484C17.1452 25.935 16.9321 26.2841 16.7771 26.5153C16.6827 26.6562 16.5624 26.7955 16.5176 26.995C16.4122 27.4178 16.4853 27.9189 16.4554 28.4192L16.4491 28.4224C16.4491 28.4224 16.4672 28.6805 16.2934 28.8705C16.0968 29.0866 15.418 29.7287 14.9343 29.7287C14.755 29.7223 14.681 29.6629 14.486 29.5197C14.3625 29.5094 14.0794 29.4397 13.9158 29.2687C13.8646 29.1792 13.3306 28.6322 13.6664 28.477C13.9818 28.3314 14.4923 28.6496 14.729 28.8032C14.825 28.8032 15.5155 28.838 16.2486 27.8706C16.214 27.3632 16.1723 26.7156 16.1172 26.5968C16.0417 26.3506 15.6241 25.9104 15.5352 25.6484C15.4801 25.4347 15.381 25.0159 15.4448 24.7261C15.418 24.4047 15.2143 24.3327 15.1301 24.0714C15.1066 24.0049 15.079 23.9535 15.0649 23.9329C15.0389 23.8379 15.0216 23.7539 14.9642 23.6661C14.836 23.4705 14.7125 23.4286 14.5961 23.237C14.4742 23.0375 14.4954 22.7905 14.309 22.6599C14.206 22.5934 14.0676 22.5831 13.9519 22.5166C13.8686 22.4683 13.7632 22.3456 13.6657 22.302C13.5532 22.2514 13.5209 22.2363 13.4069 22.1857C13.3503 22.1595 13.2496 22.1136 13.2008 22.0859C13.1505 22.0582 13.0994 22.0827 13.0577 22.0479C12.92 21.9323 13.0184 21.8239 12.9507 21.6188C12.9444 21.5943 12.8901 21.5927 12.8784 21.5468C12.8209 21.5309 12.721 21.4399 12.6432 21.4945C12.5354 21.5737 12.5063 21.55 12.4403 21.7154C12.4009 21.8239 12.3278 22.1429 12.2554 22.2213C12.1909 22.2997 12.1091 22.4065 12.0085 22.4778C11.9133 22.5277 11.8307 22.5221 11.8307 22.5221L11.5625 22.5609L11.4304 22.7683C11.4304 22.7683 11.2833 22.7485 11.207 22.7485C11.1858 22.7992 11.0088 22.9346 10.953 22.9829C10.7257 23.1174 10.5872 23.0225 10.5715 22.9742C10.5613 22.9298 10.4897 22.8404 10.6423 22.7485C11.1669 22.5997 11.8095 21.8935 11.8637 21.7415C11.7969 21.8444 10.7107 22.4485 10.5101 22.5292C10.7257 22.0139 12.0557 21.2594 12.1367 21.1699C11.7961 21.2214 10.6635 21.9117 10.4661 22.2157C10.2773 22.5229 10.0555 22.4366 9.84712 22.4279C9.64341 22.4216 9.6615 22.6425 9.65127 22.7762C9.64891 22.9069 9.54903 23.1744 9.63318 23.2227C9.7724 23.3423 10.1381 22.853 10.2553 23.1167C10.319 23.4096 9.56633 23.3953 9.57183 23.6328C9.53644 23.7571 10.2671 23.8014 10.4016 23.9337C10.1672 24.1062 9.5915 24.1609 9.42082 24.1704C9.31464 24.1783 9.2179 24.1751 9.16285 24.1672C9.06768 24.149 8.94341 24.0611 8.83408 23.8822C8.62487 23.5022 8.97723 23.2394 8.98195 23.1412C8.99138 23.0399 8.94341 23.0945 8.93633 22.9338C8.93004 22.7754 9.10858 22.7477 9.15341 22.7153C9.20374 22.6789 9.14004 22.633 9.15183 22.4794C9.24464 22.1295 9.81172 21.7257 9.667 21.6125C9.53487 21.542 9.25959 21.8476 9.15341 21.9877C8.76251 22.4944 8.3079 22.3345 8.15374 22.3408C7.80925 22.3606 7.8706 21.9798 8.11049 22.0075C8.38813 21.9497 8.36768 21.5642 8.56509 21.6022C8.6288 21.884 8.31813 21.9228 8.46285 21.987C8.66105 22.0653 8.68071 21.8057 8.74285 21.6956C8.80183 21.584 9.08105 21.3449 9.04959 21.2832C8.96858 21.2531 8.76251 21.4027 8.67049 21.474C8.44318 20.9047 9.01419 20.4709 9.04251 20.3031C9.2297 20.0038 10.2766 19.6254 10.297 19.1726L10.3253 19.1464C10.3253 19.1464 10.3442 19.1354 10.3764 19.1884C10.3764 19.1884 10.3764 19.1884 10.3788 19.1884C10.3859 19.2145 10.3914 19.2438 10.3993 19.2755C10.4016 19.3111 10.3969 19.3452 10.3969 19.3452L10.4024 19.3024C10.4103 19.3721 10.4071 19.433 10.4103 19.418V19.4853C10.4197 19.528 10.4724 19.5478 10.4803 19.5526C10.5031 19.5478 10.5613 19.5296 10.614 19.4687C10.6226 19.4576 10.684 19.4006 10.684 19.3863C10.7839 19.3119 10.8027 19.3032 10.8727 19.2019C11.0528 18.9374 10.706 18.5511 10.8027 18.1957C10.8688 17.9597 11.0875 17.6795 11.0875 17.6795C11.1464 17.5449 11.0528 17.5473 11.0528 17.5473C10.9152 17.5227 10.8185 17.67 10.8397 17.6494C10.6627 17.818 10.6092 17.898 10.4803 18.1228C10.4803 18.1228 10.3733 18.2226 10.3418 18.0872C10.2797 17.864 10.5306 17.4262 10.6093 17.3692C10.7563 17.2678 10.9058 17.2235 11.0898 17.1483C11.1834 17.1095 11.321 16.9599 11.4131 16.9345C11.4579 16.9195 11.5082 16.91 11.5554 16.9345C11.5554 16.9345 11.6239 16.9852 11.5916 17.1483C11.5916 17.1483 11.5216 17.343 11.546 17.4143C11.5617 17.4626 11.5554 17.5093 11.6632 17.5093C11.9212 17.514 12.4945 17.4547 12.6628 17.3636C12.7006 17.3486 12.7384 17.2916 12.7722 17.2591C12.8257 17.2045 12.8123 17.1237 12.7722 17.1158L12.6628 17.0794C12.7462 17.0659 12.1776 17.0628 12.2704 17.0446C12.1705 17.0628 12.4041 16.7802 12.3766 16.6448C12.3648 16.5807 12.2531 16.5545 12.2334 16.5047C12.2224 16.4714 12.1618 16.4231 12.2334 16.3946L12.316 16.3598C12.3435 16.3392 12.3726 16.3052 12.4119 16.2877C12.5921 16.2038 12.9153 16.2458 13.0561 16.2877C13.071 16.2964 13.3023 16.3598 13.3794 16.5751C13.3982 16.6369 13.4155 16.705 13.4494 16.7564C13.5587 16.9052 13.8733 16.9599 14.0573 16.7825C14.0943 16.7477 14.1391 16.6638 14.1667 16.6147C14.3499 16.1896 14.0778 15.9014 13.7349 15.7842C13.5964 15.7336 13.3723 15.7193 13.1993 15.6742C13.0766 15.641 13.1497 15.5365 13.1843 15.5056L13.2362 15.4589C13.3046 15.3575 13.517 15.2673 13.5949 15.2435C13.7844 15.1715 13.97 15.0995 14.2382 15.2095C14.2776 15.223 14.3822 15.3061 14.4121 15.3148C14.6158 15.3647 14.6928 15.3797 14.8808 15.2815C14.9563 15.2443 14.9453 15.2348 14.9524 15.2111C15.0185 15.0187 14.8855 14.8905 14.8903 14.9118C14.8501 14.653 15.5863 14.972 15.7012 14.8089C15.8097 14.6609 15.7389 14.3782 15.8813 14.2698C15.8978 14.2603 15.9812 14.2017 15.989 14.1985C16.1259 14.17 16.2462 14.227 16.3548 14.2698L16.4712 14.326C16.7024 14.4226 16.9037 14.474 17.0288 14.6648C17.1075 14.7907 17.0933 14.9728 17.1696 15.0995C17.2026 15.1525 17.2789 15.1897 17.3182 15.2435C17.3513 15.2831 17.4142 15.3092 17.4575 15.3338C17.5235 15.3757 17.5495 15.3924 17.6352 15.4201C17.6989 15.4446 17.7886 15.5412 17.8499 15.5665C18.0686 15.6552 18.3297 15.6441 18.5664 15.6378C18.7064 15.6315 18.789 15.7154 18.9219 15.6734C18.9904 15.6512 18.9715 15.5285 18.9282 15.4779C18.8433 15.3678 18.778 15.394 18.6364 15.314C18.5806 15.28 18.5122 15.1691 18.4563 15.1343C18.2935 15.029 18.056 15.0132 17.9577 14.8453C17.9443 14.82 17.9254 14.7709 17.9231 14.7408L17.883 14.664C17.6863 14.2619 17.6226 14.0212 17.813 13.9452C17.9309 13.9001 18.1897 13.9254 18.3171 13.874C18.3454 13.8573 18.4013 13.7774 18.4225 13.7647C18.7064 13.6293 19.2405 13.4702 19.5331 13.6222C19.6219 13.6634 19.5331 13.893 19.5669 13.98C19.585 14.0196 19.6503 14.0861 19.725 14.1091C20.3392 14.2753 20.9535 14.2492 21.4034 14.4622C21.6724 14.5904 21.8777 14.7899 22.1199 15.0013C22.3276 15.1873 22.0814 15.3979 22.2945 15.4604C22.149 15.4787 22.0255 15.4961 21.9996 15.4201C21.9933 15.4019 21.9485 15.3338 21.928 15.3148C21.7676 15.1612 21.5812 14.9237 21.3578 14.8461C21.2422 14.8034 21.191 14.8414 21.0691 14.8089L20.9252 14.759C20.7695 14.7171 20.7585 14.7305 20.6059 14.6997C20.539 14.6854 20.3857 14.6023 20.3172 14.5952C20.0136 14.5485 19.843 14.6735 19.5661 14.5952C19.4371 14.5572 19.2727 14.3521 19.1689 14.2983C19.0407 14.2239 18.9219 14.1985 18.7772 14.1534C18.719 14.1368 18.6891 14.1368 18.6459 14.1582C18.5664 14.2057 18.5924 14.2761 18.6333 14.3363C18.6569 14.3672 18.6773 14.421 18.7049 14.4392C18.8063 14.5128 19.0077 14.5128 19.0635 14.6189C19.2216 14.9324 18.9896 15.0432 18.9558 15.1359C18.9392 15.1937 18.8952 15.2388 18.9558 15.3156C18.9896 15.3552 19.0604 15.4058 19.1013 15.4209C19.246 15.4834 19.3608 15.4597 19.4953 15.5301C19.5913 15.5816 19.6927 15.7573 19.817 15.785C20.1041 15.8468 20.1709 15.633 20.3164 15.6022C20.5241 15.5562 20.6523 15.6655 20.8906 15.6022C20.9692 15.5808 21.0133 15.4874 21.0684 15.4604C21.2052 15.3876 21.3413 15.3765 21.4278 15.4217C21.4278 15.4217 21.5198 15.4668 21.3908 15.5309C21.3161 15.5729 21.254 15.5729 21.1777 15.6125C21.1258 15.6394 21.0794 15.713 21.0707 15.7257C21.0463 15.7755 21.029 15.8507 21.0306 15.8555C21.0534 15.8967 21.0841 15.9188 21.103 15.9299C21.3531 16.0162 21.6071 15.8539 21.821 15.8207C21.9791 15.7961 22.4219 15.8207 22.5501 15.918C22.5501 15.918 22.6681 15.9426 22.5918 16.1595C22.5439 16.2893 22.3401 16.3827 22.2639 16.4944C22.2182 16.5561 22.1687 16.6741 22.1223 16.735C22.0468 16.834 22.0334 16.83 21.9571 16.9219L21.9052 16.9979C21.8745 17.0905 21.5104 17.4016 21.4412 17.5061C21.4003 17.5687 21.3806 17.632 21.3381 17.6993C21.2728 17.7943 21.2249 17.8093 21.191 17.8663C21.0864 18.0183 20.8812 18.3263 20.7113 18.4039C20.635 18.4371 20.5296 18.4007 20.4234 18.3793C20.3518 18.3611 20.274 18.2273 20.211 18.198C19.9609 18.0832 19.6825 18.1157 19.4615 17.9819C19.3514 17.9162 19.2499 17.7222 19.1705 17.6209C19.1194 17.5544 19.0722 17.4341 18.9935 17.4024C18.8645 17.3589 18.5539 17.4008 18.4933 17.5109C18.3745 17.7373 18.6836 18.3192 18.7088 18.559C18.7269 18.7625 18.6341 18.8543 18.7088 19.0237C18.7434 19.1108 18.8771 19.133 18.9212 19.205C19.1154 19.513 18.9455 19.946 18.9927 20.3569C19.01 20.4844 19.0855 20.6427 19.0635 20.8272C19.0336 21.1145 18.6655 21.3623 18.8134 21.7985C18.8197 21.8159 18.8889 21.8674 18.8944 21.8737C18.9503 21.8999 19.0415 21.8896 19.1013 21.8706C19.2208 21.8278 19.3364 21.5895 19.4607 21.5127C19.4733 21.4969 19.5142 21.4763 19.537 21.4763C19.5504 21.4518 19.5842 21.4502 19.6031 21.4415C19.6558 21.4003 19.677 21.3987 19.7085 21.3314C19.758 21.2151 19.7415 21.0995 19.7793 20.9332C19.8162 20.7955 19.9428 20.5517 19.9594 20.3925C20.0042 19.9516 19.6849 19.0894 19.913 18.9462C20.0003 18.8931 20.0876 18.7894 20.2378 18.7657C20.3039 18.7498 20.5194 18.8171 20.613 18.8139C20.6122 18.8171 20.6114 18.8171 20.6114 18.8187C20.495 19.0926 20.9236 19.813 20.8906 20.212C20.8064 21.1802 20.1788 21.7154 19.6361 22.2308C19.5732 22.2925 19.6275 22.363 19.6731 22.4113C19.78 22.5142 20.0427 22.4699 20.1772 22.4477C20.3739 22.4073 20.4612 22.3171 20.6051 22.2664C20.6578 22.2466 20.7239 22.2799 20.7828 22.2664C20.9307 22.226 21.0573 22.025 21.1407 21.9022C21.1407 21.9022 21.3153 21.713 21.3531 21.9648L21.357 21.979C21.357 22.2126 21.3153 22.4699 21.357 22.6963C21.3987 22.9678 21.8895 23.7801 22.1435 23.8157C22.7389 23.9044 22.1294 23.1491 22.105 23.0953C22.0075 22.8665 21.9123 22.4596 21.9264 22.1595C21.9304 22.0479 22.0208 21.8254 22.0334 21.7225C22.0397 21.6719 22.013 21.5531 22.0334 21.5112C22.0806 21.4146 22.3968 21.3829 22.4644 21.257C22.4825 21.2206 22.4558 21.1565 22.4644 21.1137C22.4794 21.029 22.5415 20.866 22.6091 20.7915C22.6508 20.7393 22.713 20.7084 22.7877 20.7915C22.849 20.862 22.8655 21.0227 22.9678 21.1383L23.0551 21.2349C23.1605 21.3037 23.3319 21.2119 23.2871 21.2222C23.398 21.1913 23.3846 21.0773 23.4318 21.0385C23.4389 21.033 23.501 21.0061 23.501 21.0061C23.7598 20.7385 23.1849 20.4955 23.1786 20.2484C23.1739 19.9706 23.2399 19.6523 23.1448 19.3491C23.1219 19.2723 22.9812 19.1655 22.9646 19.0966C22.9261 18.9224 23.0158 18.7387 23.0362 18.6303C23.0755 18.3991 22.9985 18.046 23.0724 17.9439C23.1157 17.8893 23.1841 17.8473 23.3217 17.8711C23.413 17.8885 23.4727 18.0373 23.5364 18.088C23.77 18.2764 24.043 18.3825 24.4323 18.3382C24.4803 18.3366 24.5196 18.2637 24.529 18.2432C24.5542 18.1703 24.5487 18.0785 24.5039 18.0152C24.3623 17.8244 23.8172 17.6795 23.7881 17.5861C23.7661 17.5148 23.6804 17.4198 23.7755 17.3723C23.7236 17.4024 24.1106 17.3612 24.2506 17.3319C24.4331 17.2916 24.4464 17.1095 24.5723 17.0438C24.7508 16.9504 25.0119 17.0327 25.1126 16.8649C25.1716 16.7556 25.1244 16.6012 25.1818 16.5039C25.2526 16.3756 25.465 16.3495 25.5751 16.2482C25.6144 16.2212 25.5987 16.1104 25.5916 16.0748ZM11.2094 24.4957C11.1386 24.4174 11.1984 24.2638 11.3273 24.1997C11.5672 24.0857 11.6648 24.2171 11.7167 24.2812C11.9487 24.6438 12.2499 25.1125 12.4725 25.2993C12.2664 25.3199 11.498 25.0832 11.2094 24.4957ZM13.1772 28.1382C13.0522 28.1382 12.2562 27.4629 12.3758 27.0441C12.6125 27.2207 13.1418 27.592 13.2095 27.5848C13.2803 27.626 13.3361 28.0899 13.1772 28.1382ZM14.1045 28.1414C13.9999 28.0487 13.2284 27.2286 13.4218 26.847C13.6334 27.0615 14.2233 27.6078 14.4341 27.6608C14.4931 27.8168 14.4836 28.2467 14.1045 28.1414ZM14.1871 25.0056C14.3224 25.2106 14.508 25.3286 14.4978 25.7695C14.4852 25.8756 14.5198 25.897 14.6095 25.8875C14.6905 25.8661 14.6464 25.3594 14.8895 25.3903C15.0979 25.422 14.9571 25.7133 15.0594 26.0387C15.0971 26.1551 15.3315 26.5723 15.2694 27.2887C15.2631 27.4716 14.9131 27.7131 14.7149 27.5714C14.5513 27.4716 14.5513 27.3505 14.4577 26.5937C14.4176 26.1472 13.8772 25.9928 13.6476 25.7901C13.4179 25.6191 13.5485 25.5352 13.5068 25.2249C13.3754 24.7776 12.8555 24.5686 13.0294 24.2693C13.0828 24.1957 13.1355 24.1245 13.2999 24.1886C13.3086 24.411 13.8348 24.5836 14.1871 25.0056ZM10.5007 23.5917C10.4866 23.598 10.485 23.6004 10.5054 23.5901C10.5039 23.5901 10.5023 23.5917 10.5007 23.5917C10.5534 23.5687 10.7846 23.4579 10.846 23.4365C11.0906 23.3494 11.2204 23.48 11.4453 23.3542C11.498 23.3225 11.5578 23.2362 11.6066 23.195C11.649 23.1562 11.7269 23.1618 11.7764 23.1254C11.9015 23.0415 12.1335 22.7723 12.2948 22.7446C12.386 22.7272 12.3852 22.7509 12.4324 22.7557C12.4324 22.7652 12.5008 22.7414 12.4835 22.8799C12.4403 23.1459 13.0632 22.8768 13.4722 22.9749C13.7498 23.0414 14.0212 23.1364 13.9496 23.3162C13.959 23.2972 13.8678 23.3716 13.8466 23.3858C13.6554 23.5267 13.506 23.3716 13.4093 23.3597C13.2417 23.3399 13.123 23.3906 12.9523 23.3692C12.9523 23.366 12.747 23.3003 12.747 23.3003C12.6164 23.2924 12.43 23.3613 12.3301 23.3692C12.1422 23.3834 12.0517 23.3169 11.8834 23.3352C11.8 23.3447 11.6671 23.4531 11.6073 23.4737C11.5523 23.4935 11.4878 23.5141 11.4335 23.5315C11.3973 23.5394 11.3037 23.5917 11.2613 23.6122C11.0906 23.6954 10.9884 23.6954 10.7784 23.7516L10.6557 23.7856C10.393 23.8189 10.4181 23.636 10.5007 23.5917ZM9.86206 24.6192C10.1444 24.5519 10.2286 24.6272 10.3623 24.9486C10.4622 25.1386 10.673 25.3935 10.7532 25.5122C10.4276 25.5502 9.91161 25.1045 9.76768 24.8607C9.67487 24.7404 9.81487 24.6454 9.86206 24.6192ZM6.27711 23.2679C6.64835 23.1634 6.97554 23.0557 7.11318 22.9765C7.16273 22.9742 7.2115 22.9742 7.26105 22.971C7.2815 23.07 7.32004 23.1713 7.37824 23.2694C7.39161 23.2908 7.40341 23.3106 7.41599 23.3265C7.19262 23.3336 6.73959 23.3043 6.27711 23.2679ZM7.05026 23.9218C7.2406 23.8062 7.42228 23.6819 7.59532 23.5545C7.67397 23.6455 7.75891 23.7334 7.85723 23.8157C7.75577 23.8418 7.44195 23.8822 7.05026 23.9218Z" fill="#7C0019"/>
<path d="M10.5014 23.5916C10.5031 23.5916 10.5065 23.59 10.5065 23.59C10.4847 23.6008 10.4864 23.5983 10.5014 23.5916Z" fill="#D7C9B1"/>
<path d="M7.52694 5.71424C7.39008 5.60816 7.25873 5.51078 6.97873 5.21312C6.97873 5.21312 5.79345 3.89341 5.61255 3.69232C5.65817 3.63612 6.99053 1.9942 6.99053 1.9942L7.06997 1.91187H6.9693H6.39828L4.90076 3.77624V1.91187H4.85671H4.22278V5.85041H4.90076V3.83324L6.46357 5.58362C6.59334 5.75937 6.82694 5.84962 7.15255 5.84962H7.71177L7.57806 5.75303C7.58042 5.75462 7.52694 5.71424 7.52694 5.71424Z" fill="#D7C9B1"/>
<path d="M10.7344 1.79547C10.1382 1.79151 9.6246 1.99259 9.21011 2.39555C8.79482 2.79613 8.58325 3.28934 8.58325 3.85934C8.58325 4.45943 8.79247 4.9653 9.20381 5.35955C9.60336 5.74668 10.0989 5.94222 10.6777 5.94222C11.2566 5.94222 11.7592 5.73797 12.1698 5.33818C12.5803 4.93918 12.7903 4.43093 12.7903 3.83005C12.7903 3.28063 12.5968 2.80405 12.2162 2.41455C11.8206 2.00684 11.3203 1.79863 10.7344 1.79547ZM10.7053 5.42763C10.2986 5.42763 9.95258 5.25663 9.68595 4.91622C9.43426 4.60193 9.30685 4.22905 9.30685 3.80709C9.30685 3.37088 9.43426 3.00751 9.68674 2.72805C9.93842 2.45097 10.2766 2.30926 10.6943 2.30926C11.1033 2.30926 11.443 2.47868 11.7042 2.81355C11.9448 3.12388 12.0659 3.50547 12.0659 3.94722C12.0659 4.37551 11.9433 4.73255 11.6986 5.00726C11.4477 5.28434 11.1119 5.42763 10.7053 5.42763Z" fill="#D7C9B1"/>
<path d="M20.197 3.96615C20.278 3.96615 21.4554 3.96774 21.4554 3.96774V3.45078C21.4554 3.45078 20.278 3.45236 20.197 3.45236C20.197 3.37557 20.197 2.5079 20.197 2.43111C20.473 2.42478 21.7362 2.43111 21.7503 2.43111H21.7936V1.90149L19.5143 1.8999V1.94503L19.5159 5.85032H21.9533L22.0359 5.29536C22.0359 5.29536 20.2788 5.29615 20.1962 5.29615C20.197 5.21778 20.197 4.04532 20.197 3.96615Z" fill="#D7C9B1"/>
<path d="M25.6671 1.8999H25.0403L23.4397 5.84953H24.0453C24.0453 5.84953 24.5644 4.4554 24.5841 4.39999C24.6407 4.39999 25.9408 4.39999 25.9967 4.39999C26.0163 4.45461 26.5457 5.84953 26.5457 5.84953H27.2976L25.6962 1.8999H25.6671ZM25.7772 3.87749C25.6718 3.87749 24.879 3.87749 24.7728 3.87749C24.8114 3.77615 25.2133 2.75253 25.2809 2.58074C25.3462 2.75411 25.7403 3.77694 25.7772 3.87749Z" fill="#D7C9B1"/>
<path d="M17.1554 4.95811C17.1554 4.95811 16.505 4.13874 16.3406 3.93211C16.4759 3.88382 16.7103 3.77695 16.8904 3.58695C17.087 3.38111 17.1853 3.1452 17.1853 2.8887C17.1853 2.59974 17.0768 2.36066 16.8613 2.18253C16.6371 1.99491 16.3264 1.90149 15.9371 1.90149H14.6787H14.6346V5.85032H15.3339V5.78857C15.3158 5.65636 15.3142 5.45291 15.3142 4.98424C15.3142 4.98424 15.3142 2.47782 15.3142 2.39232C15.9544 2.38599 16.2085 2.46753 16.3084 2.53878C16.4421 2.63536 16.5073 2.77311 16.5066 2.96232C16.505 3.39853 16.1864 3.65978 15.536 3.75795L15.4628 3.76824L16.8377 5.5392C17.0013 5.74661 17.2396 5.84953 17.5471 5.84953H18.1071L17.9915 5.76957C17.7123 5.5772 17.4063 5.28111 17.1554 4.95811Z" fill="#D7C9B1"/>
<path d="M14.6898 8.42007C14.7283 8.42007 15.2899 8.42007 15.2899 8.42007V8.17386C15.2899 8.17386 14.7291 8.17386 14.6898 8.17386C14.6898 8.13745 14.6898 7.7242 14.6898 7.68857C14.8211 7.68541 15.4228 7.68857 15.4299 7.68857H15.4487V7.43524L14.3641 7.43445V7.45424L14.3649 9.31624H15.5258L15.5659 9.05103C15.5659 9.05103 14.7291 9.05341 14.689 9.05341C14.6898 9.01462 14.6898 8.45728 14.6898 8.42007Z" fill="#D7C9B1"/>
<path d="M5.75958 7.43604H5.53464L5.537 8.59662C5.537 8.94337 5.45677 9.12941 5.03441 9.12941H4.98408C4.70329 9.12941 4.56172 8.9497 4.56172 8.59662L4.5625 7.43604H4.23767V8.59741C4.23767 8.73833 4.24239 8.83412 4.25419 8.8927C4.27306 8.99958 4.3179 9.08983 4.38475 9.16424C4.50587 9.29804 4.68127 9.36533 4.90464 9.36533H5.11464C5.33643 9.36533 5.51261 9.29804 5.63374 9.16424C5.69981 9.08983 5.74464 8.99958 5.76351 8.8927C5.77531 8.83412 5.78003 8.73833 5.78003 8.59741V7.43604H5.75958Z" fill="#D7C9B1"/>
<path d="M8.57687 7.43604L8.57609 7.45583C8.57609 7.45583 8.57451 8.70745 8.57451 8.81829C8.50451 8.7312 7.49227 7.43604 7.49227 7.43604H7.21069V9.3202H7.4553C7.4553 9.3202 7.45609 8.02266 7.45609 7.91104C7.52451 8.00049 8.55328 9.31941 8.55328 9.31941L8.82305 9.3202V7.43604H8.80103H8.57687Z" fill="#D7C9B1"/>
<path d="M10.2026 7.43604V9.3202H10.5251L10.5259 7.43604H10.5054H10.2026Z" fill="#D7C9B1"/>
<path d="M21.9076 7.43604V7.85166V8.90695L21.91 9.3202H22.2324V8.90695V7.85166V7.45583V7.43604H22.212H21.9076Z" fill="#D7C9B1"/>
<path d="M13.0191 7.43604C13.0191 7.43604 12.5197 8.81195 12.4835 8.91329C12.4473 8.81195 11.9573 7.43604 11.9573 7.43604H11.5892L12.2877 9.32179H12.581L13.3038 7.43604H13.274H13.0191Z" fill="#D7C9B1"/>
<path d="M20.3267 8.36632C20.3259 8.36473 20.075 8.24203 20.075 8.24203L19.861 8.13515C19.703 8.05203 19.6235 7.96257 19.6235 7.86598C19.6235 7.78603 19.6605 7.72665 19.7336 7.68548C19.791 7.65223 19.8713 7.63798 19.9719 7.64036C20.1355 7.64432 20.3031 7.69419 20.3896 7.76228L20.4226 7.7884V7.45432L20.4092 7.45036C20.2779 7.40919 20.1348 7.38782 19.9869 7.38782C19.7942 7.38782 19.6298 7.42503 19.5008 7.50182C19.3459 7.59048 19.268 7.72428 19.268 7.89528C19.268 8.07023 19.3553 8.21511 19.5268 8.32673L19.6196 8.37265L19.9924 8.55711C20.1505 8.64023 20.2299 8.73682 20.2299 8.84686C20.2299 8.92919 20.1874 8.9949 20.1009 9.04715C20.0231 9.09465 19.9389 9.11682 19.8532 9.11682C19.651 9.11523 19.4623 9.06457 19.2916 8.96482L19.2546 8.94265L19.3026 9.27119L19.3152 9.27594C19.4654 9.33373 19.6377 9.36223 19.8209 9.36223C20.0498 9.36223 20.2456 9.30207 20.3856 9.18886C20.5201 9.0804 20.587 8.93632 20.587 8.76215C20.5854 8.60698 20.4981 8.47557 20.3267 8.36632Z" fill="#D7C9B1"/>
<path d="M23.4594 7.42896V7.44954L23.4586 7.67516C23.4586 7.67516 23.9423 7.67516 23.9817 7.67675C23.9817 7.71712 23.9817 9.3155 23.9817 9.3155H24.3033C24.3033 9.3155 24.3041 7.71712 24.3041 7.67675C24.3434 7.67675 24.8382 7.67675 24.8382 7.67675V7.42896H23.4594Z" fill="#D7C9B1"/>
<path d="M26.9468 7.43133C26.9468 7.43133 26.4694 8.17391 26.4364 8.22379C26.4033 8.17312 25.9346 7.42896 25.9346 7.42896H25.9236H25.5618C25.5618 7.42896 26.2279 8.48425 26.2358 8.49454C26.2358 8.5072 26.2335 9.31629 26.2335 9.31629H26.5575C26.5575 9.31629 26.5583 8.50721 26.5583 8.49533C26.5661 8.48346 27.2599 7.43133 27.2599 7.43133H26.9468Z" fill="#D7C9B1"/>
<path d="M17.9923 8.89111C17.9923 8.89111 17.6825 8.50003 17.6038 8.40266C17.6691 8.37891 17.7808 8.32824 17.8657 8.23878C17.9601 8.13982 18.0065 8.02662 18.0065 7.90549C18.0065 7.76695 17.9554 7.65374 17.8523 7.56745C17.7446 7.47878 17.5967 7.43445 17.4127 7.43445H16.811H16.7921V9.31545H17.1248V9.28616C17.1169 9.22282 17.1169 9.13178 17.1169 8.90378C17.1169 8.90378 17.1169 7.70995 17.1169 7.66878C17.4205 7.66482 17.5425 7.70361 17.5889 7.73845C17.6541 7.78357 17.6848 7.84928 17.684 7.93874C17.6832 8.14774 17.5322 8.27045 17.2223 8.31716L17.1877 8.32349L17.8421 9.16662C17.92 9.26399 18.0325 9.31466 18.1787 9.31466H18.4477L18.3911 9.27586C18.2566 9.1872 18.1119 9.04549 17.9923 8.89111Z" fill="#D7C9B1"/>
</svg>
