<svg width="138" height="38" viewBox="0 0 138 38" fill="none" xmlns="http://www.w3.org/2000/svg">
<g style="mix-blend-mode:luminosity" opacity="0.5">
<path d="M112.5 13.4362V13.4394H99.6266V15.9316C99.6266 15.9316 112.102 15.9316 112.366 15.9316C112.366 16.1881 112.366 20.5881 112.366 20.5881H115.248V13.4362H115.115H112.5Z" fill="#7C0019"/>
<path d="M104.835 12.2234C107.666 12.2234 109.969 10.0178 109.969 7.30869C109.969 6.3959 109.681 5.52744 109.158 4.77299C109.534 4.77299 110.903 4.77299 110.903 4.77299V2.3869C110.903 2.3869 106.441 2.3869 106.185 2.3869C106.185 2.15415 106.185 0.551819 106.185 0.551819H106.049H103.375C103.375 0.551819 103.375 2.15415 103.375 2.3869C103.12 2.3869 98.5577 2.3869 98.5577 2.3869V4.77378C98.5577 4.77378 100.066 4.77378 100.456 4.77378C99.9192 5.52982 99.625 6.39749 99.625 7.30949C99.625 9.97107 102.009 12.2234 104.835 12.2234ZM104.835 9.85469C103.497 9.85469 102.41 8.75428 102.41 7.4029C102.41 6.05153 103.497 4.94953 104.835 4.94953C106.173 4.94953 107.258 6.05153 107.258 7.4029C107.258 8.75428 106.173 9.85469 104.835 9.85469Z" fill="#7C0019"/>
<path d="M115.232 2.02509H115.095H112.348V12.3437H115.232C115.23 12.3437 115.232 8.83421 115.232 8.58404C115.464 8.58404 117.149 8.58404 117.149 8.58404V6.00321C117.149 6.00321 115.463 6.00321 115.232 6.00321C115.232 5.74988 115.232 2.02509 115.232 2.02509Z" fill="#7C0019"/>
<path d="M52.1713 6.8305V3.81821L52.1635 2.29742V2.16125H52.0282H37.8866V4.69063C37.8866 4.69063 49.0606 4.69063 49.3226 4.69063C49.3226 4.94634 49.3226 9.32267 49.3226 9.32267C49.3226 9.38284 49.284 15.1082 48.4542 16.5561C48.3024 16.5561 45.0541 16.5561 44.8087 16.5561C44.8087 16.2965 44.8087 10.0083 44.8087 10.0083H42.0614C42.0614 10.0083 42.0614 16.2965 42.0614 16.5561C41.805 16.5561 35.9148 16.5561 35.9148 16.5561V19.0839H53.9842V16.5561C53.9842 16.5561 51.6003 16.5561 51.2747 16.5561C51.4957 15.8452 52.1713 13.1567 52.1713 6.8305Z" fill="#7C0019"/>
<path d="M134.741 16.5561C134.953 15.907 135.654 13.277 135.654 6.7078V4.55526L135.673 2.29663V2.16125H135.54H121.368V4.69063C121.368 4.69063 132.541 4.69063 132.803 4.69063C132.803 4.94634 132.803 9.21817 132.803 9.21817C132.803 10.4848 132.649 15.3702 131.906 16.5561C131.775 16.5561 130.696 16.5561 130.48 16.5561C130.48 16.2965 130.48 10.085 130.48 10.085H127.733C127.733 10.085 127.733 16.2965 127.733 16.5561C127.509 16.5561 125.881 16.5561 125.656 16.5561C125.656 16.2965 125.656 10.085 125.656 10.085H122.911C122.911 10.085 122.911 16.2965 122.911 16.5561C122.663 16.5561 119.394 16.5561 119.394 16.5561V19.0839H137.464V16.5561C137.466 16.5561 135.118 16.5561 134.741 16.5561Z" fill="#7C0019"/>
<path d="M70.4508 1.93091C70.4508 1.93091 70.4508 4.97645 70.4508 5.22503C70.2046 5.22503 67.3912 5.22503 67.3912 5.22503V7.62458C67.3912 7.62458 70.2054 7.62458 70.4508 7.62458C70.4508 7.86049 70.4508 10.1579 70.4508 10.3954C70.2046 10.3954 67.3912 10.3954 67.3912 10.3954V12.7934C67.3912 12.7934 70.2054 12.7934 70.4508 12.7934C70.4508 13.0229 70.4508 14.5335 70.4508 14.6443C69.3914 15.7051 66.8265 15.6457 66.8014 15.6434C66.8014 15.6434 60.6531 15.6434 60.3952 15.6434C60.3952 15.394 60.3952 11.1135 60.3952 10.8625C60.6524 10.8625 66.2075 10.8625 66.2075 10.8625V2.00691H57.3207V4.44524C57.3207 4.44524 63.2046 4.44524 63.4626 4.44524C63.4626 4.69066 63.4626 8.08612 63.4626 8.33074C63.2046 8.33074 57.5126 8.33074 57.5126 8.33074C57.5126 8.33074 57.5126 8.35607 57.5126 8.37745C57.4929 8.37745 57.4654 8.37745 57.4654 8.37745V15.8991C57.5503 17.9257 59.4254 18.1458 59.4443 18.1474C59.4608 18.1474 66.4694 18.0959 66.4694 18.0959C68.8172 18.0959 70.0481 17.6589 70.4516 17.4856C70.4516 17.9819 70.4516 20.3522 70.4516 20.3522H73.3349V1.93091H73.2012H70.4508Z" fill="#7C0019"/>
<path d="M91.9125 1.96021C91.9125 1.96021 91.9125 8.28562 91.9125 8.54608C91.693 8.54608 90.3088 8.54608 90.0893 8.54608C90.0893 8.28562 90.0893 1.96021 90.0893 1.96021H87.4498C87.4498 1.96021 87.4498 14.4297 87.4498 14.5857C86.2676 15.356 84.1787 15.3053 84.1558 15.3053C84.1558 15.3053 81.0436 15.3053 80.7951 15.3053C80.7951 15.0433 80.7951 4.7817 80.7951 4.52204C81.0491 4.52204 85.1351 4.52204 85.1351 4.52204V2.09004H77.9266V15.4732C77.9518 17.575 79.8827 17.7991 79.9039 17.8007C79.933 17.8022 81.8584 17.845 83.831 17.7516C85.7603 17.6582 86.8473 17.355 87.4514 17.0842C87.4514 17.4579 87.4514 20.3292 87.4514 20.3292H90.0909C90.0909 20.3292 90.0909 11.381 90.0909 11.119C90.3103 11.119 91.6946 11.119 91.9141 11.119C91.9141 11.381 91.9141 20.3292 91.9141 20.3292H94.5536V1.96021H94.4191H91.9125Z" fill="#7C0019"/>
<path d="M44.1378 31.6113C43.8964 31.4292 43.6706 31.2566 43.1814 30.7389C43.1814 30.7389 41.1168 28.4367 40.8006 28.086C40.8809 27.9862 43.205 25.1275 43.205 25.1275L43.3411 24.9803H43.1665H42.1692L39.5579 28.2301V24.9803H39.4824H38.3766V31.8456H39.5571V28.3322L42.284 31.3849C42.5089 31.692 42.9148 31.8456 43.4842 31.8456H44.4587L44.2275 31.6786C44.2291 31.6817 44.1378 31.6113 44.1378 31.6113Z" fill="#7C0019"/>
<path d="M47.8785 24.7792C46.8387 24.7721 45.9436 25.1252 45.2201 25.8242C44.4965 26.5256 44.1292 27.3838 44.1292 28.3781C44.1292 29.4255 44.4933 30.3058 45.2106 30.9938C45.9075 31.6667 46.7726 32.0087 47.7817 32.0087C48.7908 32.0087 49.6639 31.6533 50.3804 30.9558C51.0993 30.2591 51.4626 29.3733 51.4626 28.3283C51.4626 27.3696 51.1252 26.5399 50.4606 25.8575C49.7708 25.1497 48.9017 24.7871 47.8785 24.7792ZM47.8313 31.111C47.1195 31.111 46.5186 30.8109 46.0506 30.2211C45.6117 29.6717 45.3899 29.0218 45.3899 28.2863C45.3899 27.5263 45.6141 26.8946 46.0538 26.4061C46.4926 25.9216 47.0825 25.6754 47.8108 25.6754C48.5226 25.6754 49.1141 25.9715 49.5711 26.5549C49.9887 27.0988 50.2018 27.7606 50.2018 28.5301C50.2018 29.2775 49.9871 29.8997 49.5624 30.3818C49.1212 30.8663 48.5384 31.111 47.8313 31.111Z" fill="#7C0019"/>
<path d="M60.9606 28.565C61.103 28.565 63.1535 28.5666 63.1535 28.5666V27.6656C63.1535 27.6656 61.103 27.6672 60.9606 27.6672C60.9606 27.5326 60.9606 26.019 60.9606 25.8868C61.4428 25.8757 63.6458 25.8852 63.6686 25.8852L63.7449 25.8868V24.9637L59.7722 24.9621V25.0397L59.773 31.8464H64.0249L64.1696 30.8798C64.1696 30.8798 61.1054 30.883 60.9606 30.883C60.9606 30.7436 60.9606 28.7011 60.9606 28.565Z" fill="#7C0019"/>
<path d="M104.322 28.565C104.464 28.565 106.512 28.5666 106.512 28.5666V27.6656C106.512 27.6656 104.464 27.6672 104.322 27.6672C104.322 27.5326 104.322 26.019 104.322 25.8868C104.801 25.8757 107.004 25.8852 107.028 25.8852L107.104 25.8868V24.9637L103.132 24.9621V25.0397L103.135 31.8464H107.386L107.53 30.8798C107.53 30.8798 104.467 30.883 104.322 30.883C104.322 30.7436 104.322 28.7011 104.322 28.565Z" fill="#7C0019"/>
<path d="M68.8518 24.9621H67.7593L64.9688 31.8456H66.0243C66.0243 31.8456 66.928 29.4168 66.9634 29.3218C67.0625 29.3218 69.3261 29.3218 69.4252 29.3218C69.4613 29.4152 70.3831 31.8456 70.3831 31.8456H71.6927L68.9029 24.9621H68.8518ZM69.0468 28.4106C68.862 28.4106 67.4785 28.4106 67.2913 28.4106C67.3605 28.2325 68.0613 26.4488 68.177 26.1488C68.2941 26.452 68.9792 28.2325 69.0468 28.4106Z" fill="#7C0019"/>
<path d="M82.46 24.9684H81.6397L81.646 29.2117C81.646 30.4784 81.3518 31.1624 79.8071 31.1624H79.6262C78.6022 31.1624 78.0791 30.5061 78.0791 29.2117C78.0791 29.2086 78.0854 24.9684 78.0854 24.9684H76.897L76.8915 29.2149C76.8915 29.7295 76.9127 30.0841 76.9552 30.2947C77.026 30.6842 77.1864 31.0175 77.4302 31.2851C77.8793 31.7767 78.5196 32.0277 79.3328 32.0277H80.1005C80.9137 32.0277 81.5532 31.7767 82.0015 31.2835C82.2477 31.0175 82.4081 30.6842 82.4765 30.2931C82.5198 30.0833 82.5402 29.731 82.5402 29.2149L82.5371 24.9684H82.46Z" fill="#7C0019"/>
<path d="M89.7873 24.9684L89.7818 25.0444C89.7818 25.0444 89.7739 29.6218 89.7739 30.0263C89.5222 29.7026 85.8177 24.9684 85.8177 24.9684H84.7905V31.8646H85.6801C85.6801 31.8646 85.6872 27.1138 85.6872 26.7069C85.9381 27.0338 89.6984 31.8598 89.6984 31.8598L90.6855 31.8646V24.9684H90.6037H89.7873Z" fill="#7C0019"/>
<path d="M92.9986 24.9684L92.9971 31.8646H94.1792L94.1808 24.9684H94.1037H92.9986Z" fill="#7C0019"/>
<path d="M121.401 24.9684L121.405 26.4908V30.3533L121.41 31.8646H122.591L122.592 30.3517V26.4892L122.594 25.0444V24.9684H122.517H121.401Z" fill="#7C0019"/>
<path d="M100.821 24.9684C100.821 24.9684 98.9927 30.0042 98.8613 30.3731C98.7284 30.0042 96.9359 24.9684 96.9359 24.9684H95.5886L98.1424 31.8678L99.2137 31.8662L101.861 24.9684H101.75H100.821Z" fill="#7C0019"/>
<path d="M119.101 28.3686C119.094 28.3639 118.183 27.9142 118.183 27.9142L117.397 27.5263C116.822 27.2215 116.529 26.8914 116.529 26.5407C116.529 26.2469 116.657 26.0308 116.93 25.8796C117.137 25.7593 117.433 25.7031 117.798 25.7165C118.396 25.7316 119.009 25.9113 119.33 26.1607L119.451 26.2572V25.0349L119.398 25.0175C118.918 24.8655 118.398 24.7887 117.856 24.7887C117.148 24.7887 116.547 24.9296 116.074 25.2075C115.509 25.5344 115.222 26.0182 115.222 26.6459C115.222 27.2848 115.539 27.8152 116.168 28.2245C116.174 28.2285 116.507 28.3924 116.507 28.3924L117.874 29.0684C118.449 29.3724 118.74 29.7271 118.74 30.1253C118.74 30.4269 118.586 30.6676 118.266 30.8584C117.984 31.0302 117.679 31.1149 117.357 31.1117C116.621 31.107 115.933 30.9209 115.305 30.5599L115.171 30.4792L115.347 31.6825L115.391 31.6984C115.948 31.9074 116.57 32.0119 117.241 32.0119C118.081 32.0119 118.801 31.7926 119.315 31.3793C119.801 30.9827 120.048 30.4578 120.048 29.8142C120.048 29.2561 119.729 28.77 119.101 28.3686Z" fill="#7C0019"/>
<path d="M123.846 24.9407V25.0151L123.842 25.8471C123.842 25.8471 125.614 25.8471 125.753 25.8487C125.753 25.9975 125.753 31.8448 125.753 31.8448H126.937C126.937 31.8448 126.94 25.9975 126.94 25.8487C127.078 25.8487 128.889 25.8519 128.889 25.8519V24.9415H123.846V24.9407Z" fill="#7C0019"/>
<path d="M134.621 24.9518C134.621 24.9518 132.869 27.6664 132.748 27.8532C132.631 27.6656 130.916 24.9407 130.916 24.9407H130.873H129.553C129.553 24.9407 131.992 28.804 132.017 28.8404C132.017 28.8871 132.008 31.8448 132.008 31.8448H133.198C133.198 31.8448 133.201 28.8887 133.201 28.842C133.227 28.804 135.771 24.9518 135.771 24.9518H134.621Z" fill="#7C0019"/>
<path d="M57.4134 30.2931C57.4134 30.2931 56.2801 28.865 55.993 28.5055C56.2282 28.42 56.6395 28.2324 56.9502 27.9031C57.2939 27.5445 57.4669 27.132 57.4669 26.6871C57.4669 26.1812 57.2774 25.7672 56.9038 25.4505C56.5113 25.1275 55.9702 24.9636 55.2922 24.9636H53.0962H53.02L53.0192 31.8456H54.2383V31.7411C54.2084 31.5115 54.2052 31.156 54.2052 30.3398C54.2052 30.3398 54.2052 25.969 54.2052 25.8202C55.3213 25.8099 55.7657 25.9508 55.9387 26.072C56.1731 26.2406 56.2864 26.482 56.284 26.8106C56.2801 27.5714 55.7271 28.0266 54.5914 28.1992L54.4632 28.2166L56.8582 31.3057C57.1429 31.6643 57.5582 31.8448 58.0953 31.8448H59.0738L58.8709 31.7062C58.384 31.373 57.8523 30.8576 57.4134 30.2931Z" fill="#7C0019"/>
<path d="M113.047 30.2931C113.047 30.2931 111.912 28.865 111.625 28.5055C111.862 28.42 112.271 28.2324 112.584 27.9031C112.928 27.5445 113.1 27.132 113.1 26.6871C113.1 26.1812 112.91 25.7672 112.535 25.4505C112.145 25.1275 111.602 24.9636 110.923 24.9636H108.728H108.652V31.8456H109.87V31.7411C109.84 31.5115 109.838 31.1742 109.838 30.3398C109.838 30.3398 109.838 25.969 109.838 25.8202C110.955 25.8099 111.397 25.9508 111.571 26.072C111.806 26.239 111.916 26.482 111.916 26.8106C111.91 27.5714 111.359 28.0266 110.223 28.1992L110.095 28.2166L112.492 31.3057C112.775 31.6643 113.193 31.8448 113.727 31.8448H114.706L114.504 31.7062C114.017 31.373 113.483 30.8576 113.047 30.2931Z" fill="#7C0019"/>
<path d="M27.1366 0.483704V20.2366C27.1366 20.2366 27.2899 27.3727 22.3773 31.4885C22.3773 31.4885 18.3307 34.7953 13.8334 36.8948H13.7846C9.12532 34.8761 5.31622 31.4885 5.31622 31.4885C0.40442 27.3727 0.479926 20.2366 0.479926 20.2366V0.483704H27.1366Z" fill="#D7C9B1"/>
<path d="M27.1365 0H0.00012732V20.2366C-0.00223223 20.5327 -0.0203223 27.6426 5.01103 31.859L4.99923 31.8495C5.15653 31.9912 8.91923 35.3115 13.5951 37.339L13.6863 37.3778H13.9388L14.0347 37.3326C18.5352 35.2331 22.6377 31.8963 22.6801 31.8638C27.7178 27.6434 27.625 20.5287 27.6171 20.2271V0H27.1365ZM26.656 0.966625C26.656 1.88733 26.656 20.2366 26.656 20.2366C26.656 20.2413 26.656 20.254 26.656 20.2801C26.656 20.877 26.5498 27.3632 22.0706 31.1165C22.0344 31.1442 18.1262 34.3203 13.8051 36.3739C9.35103 34.4011 5.67249 31.1584 5.63473 31.126L5.62451 31.1165C1.01316 27.2523 0.959678 20.4963 0.959678 20.2485C0.959678 20.2437 0.959678 1.88733 0.959678 0.966625C1.86968 0.966625 25.7483 0.966625 26.656 0.966625Z" fill="#7C0019"/>
<path d="M27.0312 11.1047H0.480713V0.483704H27.0312V11.1047Z" fill="#7C0019"/>
<path d="M1.0155 1.03076V1.22868H26.6654V1.03076H1.0155Z" fill="#D7C9B1"/>
<path d="M1.0155 6.55817V6.75529H26.6654V6.55817H1.0155Z" fill="#D7C9B1"/>
<path d="M0.956543 9.85785V10.0558H26.608V9.85785H0.956543Z" fill="#D7C9B1"/>
<path d="M11.6461 33.1352H11.9993C12.0488 33.1352 12.0307 33.0909 12.0307 33.0909C11.8868 32.4504 11.9615 31.9516 11.9891 31.8036C11.9891 31.8036 12.004 31.7585 11.9521 31.7585H11.6037C11.5565 31.7585 11.5738 31.7949 11.5738 31.7949C11.6918 32.2857 11.6461 32.9064 11.6155 33.0877C11.6155 33.0877 11.5942 33.1352 11.6461 33.1352Z" fill="#7C0019"/>
<path d="M12.9533 31.7197C12.3917 31.7744 12.4263 32.4378 12.4263 32.4378C12.4609 33.0379 13.0791 33.1503 13.0791 33.1503C12.9108 33.6094 12.4602 33.7472 12.4602 33.7472C12.3532 33.7892 12.4311 33.8208 12.4311 33.8208C12.5663 33.8636 12.7622 33.786 12.7622 33.786C13.5872 33.4123 13.6085 32.5431 13.6085 32.5431C13.625 31.6564 12.9533 31.7197 12.9533 31.7197ZM13.1539 32.9405C12.8857 32.9484 12.8212 32.528 12.8212 32.528C12.7512 32.0641 12.9297 32.038 12.9297 32.038C13.1185 31.9794 13.2003 32.3729 13.2003 32.3729C13.2931 32.8257 13.1539 32.9405 13.1539 32.9405Z" fill="#7C0019"/>
<path d="M15.0352 32.2573C15.0352 32.2573 14.9605 31.7063 14.4484 31.7134C14.4484 31.7134 13.9411 31.6991 13.9175 32.4061C13.9175 32.4061 13.8979 33.1526 14.5397 33.1202C14.5397 33.1202 15.1673 33.0806 15.0352 32.2573ZM14.5483 32.8851C14.3053 32.9729 14.2793 32.475 14.2793 32.475C14.2542 31.9976 14.4461 31.9517 14.4461 31.9517C14.6419 31.9034 14.6954 32.2541 14.6954 32.2541C14.7835 32.7956 14.5483 32.8851 14.5483 32.8851Z" fill="#7C0019"/>
<path d="M15.1862 33.311C15.7273 33.4202 15.8712 33.0323 15.8712 33.0323C16.0435 32.4852 15.3639 32.4575 15.3639 32.4575L15.4733 31.7522C15.4733 31.7522 16.1552 31.787 16.3384 31.6952C16.3384 31.6952 16.3809 31.6659 16.3565 31.7696C16.3565 31.7696 16.3188 32.0055 16.0962 32.0197L15.7611 32.0475L15.7289 32.2477C15.7289 32.2477 16.3086 32.2343 16.2983 32.8652C16.2983 32.8652 16.2771 33.3529 15.71 33.4725C15.71 33.4725 15.445 33.5318 15.139 33.406C15.139 33.406 15.0934 33.3846 15.1178 33.3466C15.1178 33.3466 15.139 33.3007 15.1862 33.311Z" fill="#7C0019"/>
<path d="M13.1892 20.1044C13.2316 20.0537 13.2875 20.0893 13.3339 20.1044C13.3772 20.1178 13.3787 20.2025 13.4039 20.2485C13.4173 20.2793 13.5022 20.3648 13.5101 20.3917C13.5793 20.7092 13.5101 21.1256 13.3677 21.3647C13.3284 21.4399 13.2623 21.4779 13.2167 21.4795C13.1569 21.4866 13.1381 21.3972 13.1176 21.3647C13.0264 21.238 13.0948 20.9332 13.1176 20.7907C13.1412 20.6095 12.9988 20.3142 13.0901 20.1804C13.0901 20.1804 13.1868 20.1044 13.1892 20.1044Z" fill="#7C0019"/>
<path d="M8.90347 20.44C8.97976 20.4163 9.08987 20.4559 9.13627 20.44L9.23931 20.3973C9.35807 20.3205 9.47684 20.3435 9.59717 20.3553C9.65695 20.3617 9.83706 20.4392 9.89526 20.4416C9.99043 20.4535 10.4419 20.501 10.9209 20.5707C10.9169 20.5691 11.1765 20.5366 11.1112 20.4638C11.1521 20.5105 11.1041 20.4242 11.0066 20.3902L10.9728 20.3545C10.9767 20.349 10.8902 20.2817 11.0436 20.2279C10.9854 20.2469 11.1458 20.2049 11.1765 20.1709C11.2394 20.1036 11.1482 20.0323 11.1482 20.0323C10.9209 19.954 10.6661 20.102 10.3255 20.0664C10.158 20.0521 9.91965 19.954 9.68448 19.9951C9.4265 20.0402 9.04818 20.1867 8.86807 20.3276C8.86886 20.3292 8.78234 20.4804 8.90347 20.44Z" fill="#7C0019"/>
<path d="M11.7712 18.5709C12.0032 18.5583 12.0134 18.7989 12.0181 18.7744C11.9922 18.9454 11.5714 18.9628 11.4715 19.0966C11.1766 19.4829 11.2992 19.8518 10.604 19.8906C10.604 19.8906 10.464 19.8574 10.5182 19.7988C10.5623 19.7529 10.729 19.7085 10.7919 19.6698C10.8824 19.6191 10.8745 19.4734 10.9343 19.3832C10.9461 19.3594 11.024 19.3333 11.0436 19.3127C11.2395 19.0483 11.2615 18.7791 11.6052 18.6216C11.6194 18.6129 11.7452 18.5765 11.7712 18.5709Z" fill="#7C0019"/>
<path d="M13.9962 17.5346C14.0765 17.4887 14.1543 17.5346 14.2062 17.5821C14.2377 17.6019 14.491 18.217 14.502 18.2764C14.535 18.5004 14.5594 19.0158 14.4996 19.1797C14.4147 19.4093 14.2031 19.5874 14.2495 19.9967C14.2739 20.235 14.3793 20.4226 14.4792 20.6316C14.4917 20.6656 14.5956 20.8699 14.6019 20.9126C14.6404 21.1319 14.5208 21.4161 14.5028 21.5935C14.4501 22.0352 14.6254 22.4382 14.5547 22.8609C14.5256 23.0422 14.4674 23.1349 14.3675 23.2449L14.2888 23.3138C14.2684 23.3589 14.2275 23.3724 14.1881 23.404L14.1402 23.4539C14.0655 23.4705 14.0584 23.5141 14.0269 23.5188C13.8389 23.5616 13.8004 23.4507 13.813 23.4753C13.6211 22.933 13.9412 22.302 13.7776 21.7779C13.7406 21.6592 13.599 21.5381 13.581 21.4106C13.5149 20.9396 13.9506 20.6941 13.9451 20.3783C13.9451 20.1542 13.651 19.8637 13.5849 19.642C13.5015 19.38 13.4472 18.8836 13.5597 18.5598C13.5865 18.4822 13.6879 18.35 13.7147 18.2439C13.7681 18.0421 13.8507 17.875 13.8798 17.7412C13.8901 17.7001 13.9152 17.6415 13.9372 17.6011C13.9451 17.59 13.9829 17.5417 13.9962 17.5346Z" fill="#7C0019"/>
<path d="M19.5521 16.4152C19.8667 16.3788 20.0091 16.5054 19.8612 16.7746L19.7999 16.8332C19.7739 16.8419 19.6905 16.9519 19.6732 16.9678C19.5222 17.081 19.3775 17.1499 19.2619 17.2931C19.2226 17.3414 19.1903 17.4626 19.1408 17.5053C19.0613 17.5631 18.7617 17.6953 18.6838 17.7096C18.3047 17.7721 17.7848 17.3881 17.7297 17.1673C17.6802 16.9773 17.7297 16.7936 17.8115 16.7493C17.939 16.6844 18.2795 16.7192 18.3936 16.7065C18.6877 16.6844 18.871 16.7002 19.0967 16.6226C19.2336 16.5775 19.3893 16.435 19.5521 16.4152Z" fill="#7C0019"/>
<path d="M17.9304 16.2878C17.9304 16.2878 18.1089 16.363 18.2694 16.3242C18.3818 16.2965 18.591 16.1999 18.6972 16.1801C18.7617 16.1635 18.8514 16.1983 18.9135 16.1801C19.0873 16.1263 19.4067 15.7851 19.0236 15.7486C18.8844 15.7344 18.4691 15.8927 18.3409 15.9291C18.2112 15.9616 18.1301 15.9838 18.0232 16.0408C17.9941 16.0574 17.8454 16.1801 17.8635 16.1587C17.8635 16.1587 17.7652 16.2411 17.9304 16.2878Z" fill="#7C0019"/>
<path d="M15.1917 16.9353C15.0793 16.9203 15.0793 16.7303 14.7985 16.7913C14.6018 16.8332 14.5484 17.123 14.2613 17.1166L14.1189 17.0454C13.9946 17.0153 13.9058 17.0604 13.7957 17.0066C13.2915 16.7683 14.1873 15.5531 14.476 15.5681C14.4909 15.5681 14.6396 15.6235 14.6577 15.6394C14.7473 15.7193 14.7473 16.0566 14.8323 16.1801C14.8976 16.2664 14.9982 16.2593 15.0848 16.3242C15.176 16.3923 15.3482 16.6321 15.3687 16.7572C15.3687 16.7572 15.4167 16.9654 15.1917 16.9353Z" fill="#7C0019"/>
<path d="M19.8463 26.7699C19.8523 26.7597 19.8523 26.7614 19.8463 26.7699V26.7699Z" fill="#7C0019"/>
<path d="M23.8599 16.0677C23.8599 16.0693 23.8606 16.0716 23.8606 16.074C23.8606 16.0756 23.8622 16.0764 23.8622 16.0764C23.8607 16.0716 23.8606 16.0693 23.8599 16.0677Z" fill="#7C0019"/>
<path d="M19.3445 15.7246C19.3478 15.7189 19.351 15.7107 19.3527 15.7059C19.3437 15.7254 19.3421 15.7286 19.3445 15.7246Z" fill="#7C0019"/>
<path d="M17.1696 21.8724C17.1687 21.8707 17.1636 21.8707 17.1619 21.869C17.1696 21.8741 17.1713 21.8741 17.1696 21.8724Z" fill="#7C0019"/>
<path d="M13.0224 17.0248C12.8266 17.1356 12.4019 17.305 12.313 17.4942C12.2627 17.594 12.2627 17.6803 12.2225 17.8014C12.2178 17.8148 12.1643 17.8346 12.1478 17.8711C11.9402 17.8711 11.7577 17.8592 11.5776 17.9067C11.436 17.9471 11.2339 18.0975 11.0774 18.1236C10.7588 18.1782 10.5158 18.0373 10.2185 18.088C10.0856 18.1109 10.0006 18.2503 9.89131 18.3041C9.7985 18.3508 9.76075 18.3508 9.6876 18.4173L9.62153 18.4941C9.61131 18.5226 9.57828 18.5954 9.55783 18.6295C9.49333 18.7268 9.46659 18.8266 9.45086 18.9327C9.43592 19.0356 9.37614 19.281 9.32345 19.3823C9.29828 19.4306 9.16221 19.5407 9.14333 19.5858C9.13311 19.6175 9.10322 19.6483 9.14333 19.6935C9.09771 19.6436 9.10715 19.7433 9.36434 19.7568C9.64749 19.7631 10.2649 19.5739 10.2649 19.5739L10.5622 19.4132C10.6188 19.3681 10.8493 19.1939 10.8988 19.1322C11.1151 18.863 11.6916 17.8806 12.1415 18.1394L12.2225 18.1964C12.3295 18.3777 12.195 18.8971 12.114 19.015L12.0125 19.1361C11.9323 19.1631 11.8757 19.3713 11.8639 19.4694C11.8458 19.6238 11.8898 19.7631 11.9016 19.8502C11.9245 20.0355 11.9449 20.2706 11.8301 20.501C11.8049 20.5461 11.7396 20.6261 11.7569 20.7503C11.7782 20.8928 11.9779 20.9966 12.0063 21.1121C12.0228 21.1699 12.0739 21.181 12.0063 21.2934C11.9685 21.352 11.8041 21.4565 11.7569 21.5096C11.6916 21.5745 11.7491 21.679 11.7915 21.7201C11.915 21.8326 12.0173 21.846 12.114 21.9766C12.2509 22.1532 12.243 22.3068 12.545 22.3361C12.7818 22.359 13.116 22.3709 12.9752 22.0463L12.9037 21.9252C12.8195 21.7138 12.6724 21.5254 12.652 21.2934C12.6245 20.9981 12.8604 20.8477 12.7621 20.6102C12.6819 20.4266 12.3256 20.4479 12.2957 20.2104C12.28 20.0758 12.4137 19.7964 12.4396 19.6681C12.4679 19.4956 12.4223 19.3863 12.4766 19.2367C12.5128 19.1314 12.6693 19.0111 12.6858 18.8788C12.7196 18.6429 12.5372 18.4933 12.6174 18.2328C12.6559 18.0998 12.8643 18.1133 12.9414 18.0143C13.0405 17.8798 12.9863 17.6961 13.0468 17.5085C13.0531 17.4871 13.1042 17.3755 13.1145 17.3565C13.1074 17.3478 13.1546 17.115 13.1546 17.115C13.1231 16.9709 13.0334 17.0295 13.0224 17.0248ZM10.7565 18.9256C10.5559 18.9723 10.537 18.5432 10.0565 18.7094C10.0305 18.7189 9.89524 18.8432 9.88423 18.8638C9.8276 18.9928 9.85749 19.3198 9.79457 19.3515C9.79457 19.3515 9.60738 19.3982 9.64356 19.1599C9.70097 18.7815 9.77412 18.7102 9.96367 18.5511C9.98963 18.5289 10.0604 18.4767 10.0974 18.4672C10.3239 18.4157 10.7431 18.5028 10.8194 18.62C10.8847 18.715 10.7478 18.9279 10.7565 18.9256Z" fill="#7C0019"/>
<path d="M23.8607 16.074C23.8268 15.8974 23.3526 15.9109 23.1607 15.6758C23.0891 15.5824 23.1426 15.5309 23.1607 15.4612C23.2141 15.2562 23.6491 15.3773 23.7505 15.1952C23.7914 15.1192 23.8064 14.8936 23.7796 14.8627C23.5075 14.5263 22.9333 14.6854 22.5275 14.5231C22.3324 14.4424 22.0886 14.2785 21.8833 14.2009C21.6254 14.1019 21.4264 14.0869 21.1684 13.984C21.1086 13.9594 20.9946 13.8747 20.9332 13.8494C20.6454 13.7338 20.4189 13.7101 20.1326 13.5874C20.0987 13.5731 20.0114 13.5232 19.9737 13.5098C19.8589 13.4599 19.8235 13.452 19.7016 13.4084C19.2587 13.2446 18.6956 13.1044 18.0546 13.144C17.773 13.1599 17.4505 13.1084 17.018 13.2319C16.8669 13.2683 16.6577 13.3997 16.5177 13.4441C16.4186 13.4742 16.3337 13.4908 16.244 13.5312C16.119 13.581 16.0089 13.6562 15.8382 13.6958C15.3458 13.8067 14.6907 13.6847 14.192 13.7679C13.7586 13.8375 13.5093 14.1122 13.1538 14.2357C13.0453 14.2722 13.0004 14.2611 12.8942 14.3007C12.8313 14.322 12.6842 14.3608 12.6339 14.3893C12.4853 14.4653 12.3893 14.4891 12.2218 14.5595C12.1384 14.5975 12.0393 14.6759 11.9575 14.7131C11.838 14.7725 11.8309 14.7899 11.731 14.8627L11.65 14.9221C11.65 14.9221 11.4746 15.0757 11.4534 15.1026C11.3841 15.1762 11.3173 15.2768 11.2567 15.3536C11.075 15.5673 10.8013 15.8349 10.5756 16.0004C10.4938 16.0589 10.4356 16.0479 10.3632 16.1104C10.2767 16.1761 10.2028 16.2466 10.1202 16.3083C9.93223 16.4437 9.74504 16.5347 9.53897 16.6479L9.40605 16.7366C9.23144 16.853 9.23852 16.9005 9.05762 17.0145C8.93964 17.0944 8.88773 17.2172 8.77841 17.3114C8.70683 17.3668 8.62425 17.5425 8.57627 17.6185C8.35054 17.9494 8.26717 18.4379 8.10672 18.8488C8.05874 18.9652 7.66784 19.5328 7.5711 19.5676L7.49953 19.6365C7.44447 19.684 7.44447 19.6974 7.39335 19.7481C7.27773 19.8518 7.16133 19.9112 7.07245 20.0371C6.9993 20.1344 6.95683 20.2508 6.88998 20.3593C6.78852 20.5271 6.61942 20.7139 6.53447 20.9C6.49987 20.9681 6.4747 21.0369 6.4511 21.1019C6.44166 21.1114 6.43537 21.124 6.43223 21.124C6.38897 21.1794 6.31425 21.4114 6.31425 21.4114C6.23481 21.5967 6.04526 21.7004 5.79593 22.059C5.50335 22.0804 4.49739 21.8231 3.81312 21.4969C3.96649 21.6679 4.73414 22.188 5.63312 22.2878C5.57335 22.3749 5.56863 22.4667 5.46166 22.4944C5.10065 22.5831 4.47616 22.3852 3.63537 22.0914C3.68492 22.2078 4.42425 22.644 5.51751 22.7105C5.35548 22.9037 3.85402 22.8554 2.68054 22.5332C2.63571 22.6575 4.14818 22.9955 4.97796 22.9837C4.8356 23.0573 4.46279 23.1428 4.2229 23.2299C3.84459 23.1871 3.31605 23.1214 3.21301 23.0818C3.23739 23.1594 3.61178 23.2615 3.92088 23.3344C3.62357 23.4404 3.18155 23.503 3.01088 23.5386C3.13515 23.5719 3.61335 23.4927 4.11829 23.3716C4.55953 23.4571 5.23357 23.5457 5.60481 23.5291C5.512 23.5758 5.162 23.803 4.88672 23.9645C4.182 24.0318 3.41357 24.0912 3.24919 24.111C3.342 24.126 3.96099 24.1355 4.6193 24.1197C4.21582 24.3572 3.78717 24.6026 3.58032 24.6976C3.88784 24.62 4.43211 24.4102 4.98975 24.1078C5.54425 24.088 6.06335 24.0429 6.27964 23.9645C6.20492 24.1268 5.75818 24.9042 5.34054 25.0839C5.52065 25.0547 6.09796 24.8892 6.44796 24.0097C6.57301 24.0627 6.71301 24.0959 6.87818 24.1047C6.9702 24.2456 7.18807 24.6026 7.60178 24.6232C7.68515 24.8662 8.452 26.1242 9.52796 25.6318C9.2165 25.4632 9.0293 25.285 8.87593 24.7839C9.35335 24.7538 10.6181 25.4513 10.998 26.961C10.6983 26.8581 10.3239 26.6839 10.2846 26.5335C10.2028 26.8834 10.1493 27.3331 10.9154 28.1097C10.9303 28.2767 10.928 28.4762 10.9626 28.6647C11.09 28.7961 11.2363 28.8958 11.3708 29.0122C11.381 29.2291 11.3503 29.5323 11.9221 29.6994C12.1156 29.8601 12.7401 30.0334 12.8305 30.1411C13.0169 30.2013 13.2922 30.2132 13.4936 30.2013C13.4936 30.2013 13.7649 30.1546 13.8373 30.0509C13.9726 30.0437 14.1566 30.039 14.9848 29.1515C15.1586 28.9409 14.9848 27.7914 15.0265 27.5136C15.1083 27.3117 15.1437 27.1249 15.2546 26.8755C15.2546 26.8755 15.3678 26.6277 15.5794 26.5295C15.5936 26.5208 15.6062 26.5208 15.6235 26.5161C16.1009 26.4076 16.7222 26.8573 17.0172 26.9832C17.1233 27.0291 17.18 27.0037 17.2665 27.0584C17.3082 27.0797 17.3672 27.1779 17.4104 27.2017C17.5158 27.261 17.6173 27.246 17.7345 27.3077C17.9059 27.4043 18.2536 27.911 18.5556 27.8532C18.65 27.8294 18.7239 27.6125 18.8049 27.5603C18.9457 27.4732 19.1431 27.4803 19.2698 27.3829C19.4137 27.2682 19.3547 27.1391 19.3759 26.9832C19.3759 26.9776 19.4428 26.904 19.4499 26.8747C19.5199 26.8644 19.6756 26.8731 19.7723 26.8422C19.7849 26.8367 19.8258 26.7892 19.8431 26.7702C19.9045 26.7061 19.8596 26.6356 19.8431 26.5849C19.8219 26.5279 19.6756 26.4591 19.63 26.4076C19.5222 26.2992 19.3382 26.144 19.2698 26.0118C19.2367 25.9461 19.2784 25.9342 19.2336 25.8653C19.1864 25.7901 19.0605 25.7133 19.0228 25.6167C18.8851 25.3064 18.9402 24.6184 18.8781 24.5219C18.8222 24.4284 18.7514 24.4411 18.6956 24.3548C18.5768 24.164 18.7239 23.5537 18.7341 23.3114C18.7444 23.1167 18.5556 23.2378 18.5556 23.2378C18.3991 23.6273 18.4156 23.7983 18.3778 24.3548C18.3716 24.4039 18.3055 24.6992 18.3055 24.7522C18.3039 24.9462 18.4156 25.2755 18.3401 25.5083C18.3149 25.5835 18.1592 25.7292 17.9468 25.7236C17.8666 25.7236 17.4663 25.6191 17.3758 25.5795C17.3577 25.57 17.2728 25.4727 17.2673 25.4711C17.0675 25.3119 17.0258 25.4608 17.018 25.5392C17.0109 25.6231 17.0447 25.6389 17.0612 25.6864C17.0683 25.7323 17.1485 25.9033 17.1407 25.9192C17.1383 25.9366 17.0683 26.1266 16.6963 25.9033C16.4163 25.7315 16.1394 25.2613 16.1245 25.1813C16.0859 25.0024 16.141 24.8654 16.1756 24.8029C16.3156 24.6747 16.4808 24.8528 16.6216 24.9272C16.6562 24.9462 16.7435 25.0079 16.7867 25.0151C16.8677 25.0301 16.9999 25.0016 17.018 25.0016C17.5607 24.9684 18.123 25.1655 18.219 24.7982C18.2795 24.5678 18.0546 24.4451 18.0153 24.3485C17.9641 24.2329 17.9901 24.2242 17.9602 24.0975C17.9563 24.088 17.9185 24.0041 17.9107 23.993C17.8548 23.898 17.8949 23.8133 17.8407 23.7064C17.7832 23.5901 17.6228 23.518 17.5551 23.4183C17.4631 23.2837 17.4631 23.1182 17.3389 23.0201C17.1556 22.8697 16.4226 22.6496 16.3368 22.4778C16.1976 22.2054 16.3691 21.7059 16.3022 21.3639C16.2653 21.1644 16.2008 21.0552 16.0789 20.9309C16.0317 20.8834 16.0096 20.8113 16.0269 20.7456C16.0584 20.6269 16.1221 20.6601 16.1575 20.3909C16.1803 20.2429 16.1441 20.0767 16.1575 19.9239C16.1583 19.8993 16.2283 19.6634 16.2322 19.6357C16.2653 19.2327 16.2126 18.8124 16.1245 18.5218C16.0828 18.3801 15.9522 18.2574 15.9098 18.1228C15.872 18.0104 15.9168 17.9463 15.872 17.8339C15.8358 17.7357 15.7108 17.6668 15.6612 17.5861C15.5637 17.4412 15.5928 17.1974 15.4441 17.1158C15.3348 17.0541 15.2963 17.1396 15.3033 17.1158C15.2672 17.2464 15.275 17.3763 15.338 17.5473C15.3647 17.6201 15.4992 17.7262 15.5196 17.7998C15.5472 17.932 15.4984 18.0935 15.5196 18.2329L15.5881 18.3762C15.6431 18.7372 15.4481 19.2177 15.3033 19.418C15.2011 19.5526 14.8936 19.7236 14.8747 19.9231C14.8598 20.0474 14.9093 20.0521 14.9408 20.1036C14.9872 20.1693 15.1358 20.2564 15.1571 20.3197C15.1736 20.3656 15.1917 20.3561 15.2105 20.4044L15.2294 20.5002C15.2538 20.7519 14.9274 20.8105 15.0855 21.1114C15.1311 21.1984 15.2837 21.1984 15.3694 21.2547C15.5322 21.3576 15.8413 21.6505 15.8704 21.8991C15.8846 22.0099 15.8696 22.591 15.8374 22.6575C15.7627 22.819 15.3608 22.8807 15.4072 23.199C15.4567 23.5465 16.3651 23.4484 16.62 23.6304C16.7419 23.7144 16.7663 23.902 16.8024 24.0667C16.8229 24.1553 16.734 24.187 16.6939 24.2068C16.598 24.2614 16.5295 24.2202 16.4076 24.2448C16.1119 24.3049 15.6408 24.4395 15.5173 24.6778C15.3623 24.9533 15.5448 25.3309 15.4795 25.6476C15.4142 25.9342 15.2011 26.2833 15.0462 26.5145C14.9518 26.6554 14.8314 26.7947 14.7866 26.9942C14.6812 27.417 14.7544 27.9181 14.7245 28.4184L14.7182 28.4216C14.7182 28.4216 14.7363 28.6797 14.5625 28.8697C14.3658 29.0858 13.6871 29.7279 13.2034 29.7279C13.024 29.7215 12.9501 29.6622 12.755 29.5189C12.6316 29.5086 12.3484 29.4389 12.1848 29.2679C12.1337 29.1784 11.5996 28.6314 11.9355 28.4762C12.2509 28.3306 12.7613 28.6488 12.9981 28.8024C13.094 28.8024 13.7846 28.8372 14.5176 27.8698C14.483 27.3624 14.4413 26.7148 14.3863 26.596C14.3108 26.3498 13.8931 25.9097 13.8042 25.6476C13.7492 25.4339 13.6501 25.0151 13.7138 24.7253C13.6871 24.4039 13.4833 24.3319 13.3992 24.0706C13.3756 24.0041 13.3481 23.9527 13.3339 23.9321C13.308 23.8371 13.2907 23.7532 13.2332 23.6653C13.105 23.4697 12.9816 23.4278 12.8651 23.2362C12.7432 23.0367 12.7645 22.7897 12.5781 22.6591C12.475 22.5926 12.3366 22.5823 12.221 22.5158C12.1376 22.4675 12.0322 22.3448 11.9347 22.3012C11.8222 22.2506 11.79 22.2355 11.6759 22.1849C11.6193 22.1587 11.5186 22.1128 11.4699 22.0851C11.4195 22.0574 11.3684 22.0819 11.3267 22.0471C11.1891 21.9315 11.2874 21.8231 11.2198 21.618C11.2135 21.5935 11.1592 21.5919 11.1474 21.546C11.09 21.5302 10.9901 21.4391 10.9122 21.4937C10.8045 21.5729 10.7754 21.5492 10.7093 21.7146C10.67 21.8231 10.5968 22.1421 10.5245 22.2205C10.46 22.2989 10.3782 22.4057 10.2775 22.477C10.1823 22.5269 10.0998 22.5213 10.0998 22.5213L9.83155 22.5601L9.69942 22.7675C9.69942 22.7675 9.55234 22.7477 9.47605 22.7477C9.45481 22.7984 9.27784 22.9338 9.222 22.9821C8.9947 23.1167 8.85627 23.0217 8.84054 22.9734C8.83032 22.929 8.75874 22.8396 8.91133 22.7477C9.43593 22.5989 10.0785 21.8927 10.1328 21.7407C10.0659 21.8437 8.97975 22.4477 8.77919 22.5284C8.9947 22.0131 10.3247 21.2586 10.4057 21.1692C10.0651 21.2206 8.93256 21.9109 8.73515 22.2149C8.54638 22.5221 8.32459 22.4358 8.11616 22.4271C7.91245 22.4208 7.93054 22.6417 7.92032 22.7754C7.91796 22.9061 7.81807 23.1737 7.90223 23.2219C8.04144 23.3415 8.40717 22.8522 8.52436 23.1159C8.58807 23.4088 7.83537 23.3945 7.84088 23.632C7.80548 23.7563 8.53616 23.8007 8.67065 23.9329C8.43627 24.1054 7.86054 24.1601 7.68987 24.1696C7.58369 24.1775 7.48694 24.1743 7.43189 24.1664C7.33672 24.1482 7.21245 24.0603 7.10312 23.8814C6.89391 23.5014 7.24627 23.2386 7.25099 23.1404C7.26043 23.0391 7.21245 23.0937 7.20537 22.933C7.19908 22.7747 7.37762 22.7469 7.42245 22.7145C7.47279 22.6781 7.40908 22.6322 7.42088 22.4786C7.51369 22.1287 8.08076 21.7249 7.93605 21.6117C7.80391 21.5412 7.52863 21.8468 7.42245 21.9869C7.03155 22.4936 6.57694 22.3337 6.42279 22.34C6.07829 22.3598 6.13964 21.979 6.37953 22.0067C6.65717 21.9489 6.63672 21.5634 6.83414 21.6014C6.89784 21.8832 6.58717 21.922 6.73189 21.9862C6.93009 22.0645 6.94975 21.8049 7.01189 21.6948C7.07088 21.5832 7.35009 21.3441 7.31863 21.2824C7.23762 21.2523 7.03155 21.4019 6.93953 21.4732C6.71223 20.9039 7.28324 20.4701 7.31155 20.3023C7.49874 20.003 8.5456 19.6246 8.56605 19.1718L8.59436 19.1457C8.59436 19.1457 8.61324 19.1346 8.64548 19.1876C8.64548 19.1876 8.64548 19.1876 8.64784 19.1876C8.65492 19.2137 8.66043 19.243 8.66829 19.2747C8.67065 19.3103 8.66593 19.3444 8.66593 19.3444L8.67144 19.3016C8.6793 19.3713 8.67616 19.4322 8.6793 19.4172V19.4845C8.68874 19.5272 8.74144 19.547 8.7493 19.5518C8.77211 19.547 8.83032 19.5288 8.88301 19.4679C8.89166 19.4568 8.95301 19.3998 8.95301 19.3855C9.0529 19.3111 9.07178 19.3024 9.14178 19.2011C9.32189 18.9367 8.97503 18.5503 9.07178 18.1949C9.13784 17.9589 9.3565 17.6787 9.3565 17.6787C9.41548 17.5441 9.32189 17.5465 9.32189 17.5465C9.18425 17.5219 9.08751 17.6692 9.10874 17.6486C8.93178 17.8172 8.87829 17.8972 8.7493 18.122C8.7493 18.122 8.64234 18.2218 8.61088 18.0864C8.54874 17.8632 8.79964 17.4254 8.87829 17.3684C9.02537 17.267 9.17481 17.2227 9.35886 17.1475C9.45245 17.1087 9.59009 16.9591 9.68211 16.9337C9.72694 16.9187 9.77728 16.9092 9.82447 16.9337C9.82447 16.9337 9.8929 16.9844 9.86065 17.1475C9.86065 17.1475 9.79065 17.3422 9.81503 17.4135C9.83077 17.4618 9.82447 17.5085 9.93223 17.5085C10.1902 17.5132 10.7636 17.4539 10.9319 17.3628C10.9696 17.3478 11.0074 17.2908 11.0412 17.2583C11.0947 17.2037 11.0813 17.1229 11.0412 17.115L10.9319 17.0786C11.0153 17.0652 10.4466 17.062 10.5394 17.0438C10.4395 17.062 10.6731 16.7794 10.6456 16.644C10.6338 16.5799 10.5221 16.5537 10.5025 16.5039C10.4914 16.4706 10.4309 16.4223 10.5025 16.3938L10.585 16.359C10.6126 16.3384 10.6417 16.3044 10.681 16.2869C10.8611 16.203 11.1844 16.245 11.3251 16.2869C11.3401 16.2957 11.5713 16.359 11.6484 16.5743C11.6673 16.6361 11.6846 16.7042 11.7184 16.7556C11.8277 16.9044 12.1423 16.9591 12.3264 16.7817C12.3633 16.7469 12.4082 16.663 12.4357 16.6139C12.619 16.1888 12.3468 15.9006 12.0039 15.7834C11.8655 15.7328 11.6413 15.7185 11.4683 15.6734C11.3456 15.6402 11.4187 15.5357 11.4534 15.5048L11.5053 15.4581C11.5737 15.3567 11.786 15.2665 11.8639 15.2427C12.0535 15.1707 12.2391 15.0987 12.5073 15.2087C12.5466 15.2222 12.6512 15.3053 12.6811 15.314C12.8848 15.3639 12.9619 15.3789 13.1499 15.2807C13.2254 15.2435 13.2144 15.234 13.2214 15.2103C13.2875 15.0179 13.1546 14.8897 13.1593 14.911C13.1192 14.6522 13.8554 14.9712 13.9702 14.8081C14.0787 14.6601 14.008 14.3774 14.1503 14.269C14.1668 14.2595 14.2502 14.2009 14.2581 14.1977C14.3949 14.1692 14.5153 14.2262 14.6238 14.269L14.7402 14.3252C14.9714 14.4218 15.1728 14.4732 15.2978 14.664C15.3765 14.7899 15.3623 14.972 15.4386 15.0987C15.4717 15.1517 15.548 15.1889 15.5873 15.2427C15.6203 15.2823 15.6832 15.3084 15.7265 15.333C15.7926 15.3749 15.8185 15.3916 15.9042 15.4193C15.968 15.4438 16.0576 15.5404 16.119 15.5657C16.3376 15.6544 16.5987 15.6433 16.8355 15.637C16.9755 15.6307 17.0581 15.7146 17.191 15.6726C17.2594 15.6504 17.2405 15.5277 17.1973 15.4771C17.1123 15.367 17.0471 15.3932 16.9055 15.3132C16.8496 15.2792 16.7812 15.1683 16.7254 15.1335C16.5626 15.0282 16.325 15.0124 16.2267 14.8445C16.2133 14.8192 16.1945 14.7701 16.1921 14.74L16.152 14.6632C15.9554 14.2611 15.8917 14.0204 16.082 13.9444C16.2 13.8993 16.4587 13.9246 16.5862 13.8732C16.6145 13.8565 16.6703 13.7766 16.6916 13.7639C16.9755 13.6285 17.5095 13.4694 17.8021 13.6214C17.891 13.6626 17.8021 13.8922 17.8359 13.9792C17.854 14.0188 17.9193 14.0853 17.994 14.1083C18.6083 14.2745 19.2226 14.2484 19.6724 14.4614C19.9414 14.5896 20.1467 14.7891 20.389 15.0005C20.5966 15.1865 20.3504 15.3971 20.5636 15.4597C20.4181 15.4779 20.2946 15.4953 20.2686 15.4193C20.2623 15.4011 20.2175 15.333 20.1971 15.314C20.0366 15.1604 19.8502 14.9229 19.6268 14.8453C19.5112 14.8026 19.4601 14.8406 19.3382 14.8081L19.1942 14.7582C19.0385 14.7163 19.0275 14.7297 18.8749 14.6989C18.8081 14.6846 18.6547 14.6015 18.5863 14.5944C18.2827 14.5477 18.112 14.6727 17.8351 14.5944C17.7062 14.5564 17.5418 14.3513 17.438 14.2975C17.3098 14.2231 17.191 14.1977 17.0463 14.1526C16.9881 14.136 16.9582 14.136 16.9149 14.1574C16.8355 14.2049 16.8614 14.2753 16.9023 14.3355C16.9259 14.3664 16.9464 14.4202 16.9739 14.4384C17.0754 14.512 17.2767 14.512 17.3326 14.6181C17.4907 14.9316 17.2586 15.0424 17.2248 15.1351C17.2083 15.1929 17.1642 15.238 17.2248 15.3148C17.2586 15.3544 17.3294 15.405 17.3703 15.4201C17.515 15.4826 17.6299 15.4589 17.7644 15.5293C17.8603 15.5808 17.9618 15.7565 18.086 15.7842C18.3731 15.846 18.44 15.6322 18.5855 15.6014C18.7931 15.5554 18.9213 15.6647 19.1596 15.6014C19.2383 15.58 19.2823 15.4866 19.3374 15.4597C19.4742 15.3868 19.6103 15.3757 19.6968 15.4209C19.6968 15.4209 19.7889 15.466 19.6599 15.5301C19.5851 15.5721 19.523 15.5721 19.4467 15.6117C19.3948 15.6386 19.3484 15.7122 19.3398 15.7249C19.3154 15.7747 19.2981 15.8499 19.2996 15.8547C19.3225 15.8959 19.3531 15.918 19.372 15.9291C19.6221 16.0154 19.8762 15.8531 20.0901 15.8199C20.2482 15.7953 20.691 15.8199 20.8192 15.9172C20.8192 15.9172 20.9372 15.9418 20.8609 16.1587C20.8129 16.2885 20.6092 16.3819 20.5329 16.4936C20.4873 16.5553 20.4377 16.6733 20.3913 16.7342C20.3158 16.8332 20.3025 16.8292 20.2262 16.9211L20.1742 16.9971C20.1436 17.0897 19.7794 17.4008 19.7102 17.5053C19.6693 17.5679 19.6496 17.6312 19.6072 17.6985C19.5419 17.7935 19.4939 17.8085 19.4601 17.8655C19.3555 18.0175 19.1502 18.3255 18.9803 18.4031C18.904 18.4363 18.7986 18.3999 18.6924 18.3785C18.6209 18.3603 18.543 18.2265 18.4801 18.1972C18.23 18.0824 17.9516 18.1149 17.7305 17.9811C17.6204 17.9154 17.519 17.7214 17.4395 17.6201C17.3884 17.5536 17.3412 17.4333 17.2626 17.4016C17.1336 17.3581 16.8229 17.4 16.7623 17.5101C16.6436 17.7365 16.9527 18.3184 16.9778 18.5582C16.9959 18.7617 16.9031 18.8535 16.9778 19.0229C17.0125 19.11 17.1462 19.1322 17.1902 19.2042C17.3845 19.5122 17.2146 19.9452 17.2618 20.3561C17.2791 20.4836 17.3546 20.6419 17.3326 20.8264C17.3027 21.1137 16.9346 21.3615 17.0824 21.7977C17.0887 21.8152 17.158 21.8666 17.1635 21.8729C17.2193 21.8991 17.3105 21.8888 17.3703 21.8698C17.4899 21.827 17.6055 21.5887 17.7298 21.5119C17.7423 21.4961 17.7832 21.4755 17.806 21.4755C17.8194 21.451 17.8532 21.4494 17.8721 21.4407C17.9248 21.3995 17.946 21.3979 17.9775 21.3307C18.0271 21.2143 18.0105 21.0987 18.0483 20.9324C18.0853 20.7947 18.2119 20.5509 18.2284 20.3917C18.2732 19.9508 17.9539 19.0887 18.182 18.9454C18.2693 18.8923 18.3566 18.7886 18.5068 18.7649C18.5729 18.749 18.7884 18.8163 18.882 18.8132C18.8812 18.8163 18.8804 18.8163 18.8804 18.8179C18.764 19.0918 19.1927 19.8122 19.1596 20.2112C19.0755 21.1794 18.4478 21.7146 17.9051 22.23C17.8422 22.2917 17.8965 22.3622 17.9421 22.4105C18.0491 22.5134 18.3118 22.4691 18.4463 22.4469C18.6429 22.4065 18.7302 22.3163 18.8741 22.2656C18.9268 22.2458 18.9929 22.2791 19.0519 22.2656C19.1998 22.2252 19.3264 22.0242 19.4098 21.9014C19.4098 21.9014 19.5844 21.7122 19.6221 21.964L19.626 21.9782C19.626 22.2118 19.5844 22.4691 19.626 22.6955C19.6677 22.967 20.1585 23.7793 20.4126 23.8149C21.008 23.9036 20.3984 23.1483 20.374 23.0945C20.2765 22.8657 20.1813 22.4588 20.1955 22.1587C20.1994 22.0471 20.2899 21.8247 20.3025 21.7217C20.3087 21.6711 20.282 21.5523 20.3025 21.5104C20.3496 21.4138 20.6658 21.3821 20.7335 21.2562C20.7516 21.2198 20.7248 21.1557 20.7335 21.1129C20.7484 21.0282 20.8105 20.8652 20.8782 20.7907C20.9199 20.7385 20.982 20.7076 21.0567 20.7907C21.1181 20.8612 21.1346 21.0219 21.2368 21.1375L21.3241 21.2341C21.4295 21.3029 21.601 21.2111 21.5562 21.2214C21.6671 21.1905 21.6537 21.0765 21.7009 21.0377C21.708 21.0322 21.7701 21.0053 21.7701 21.0053C22.0289 20.7377 21.4539 20.4947 21.4476 20.2477C21.4429 19.9698 21.509 19.6515 21.4138 19.3483C21.391 19.2715 21.2502 19.1647 21.2337 19.0958C21.1951 18.9216 21.2848 18.7379 21.3053 18.6295C21.3446 18.3983 21.2675 18.0452 21.3414 17.9431C21.3847 17.8885 21.4531 17.8465 21.5908 17.8703C21.682 17.8877 21.7418 18.0365 21.8055 18.0872C22.0391 18.2756 22.312 18.3817 22.7013 18.3374C22.7493 18.3358 22.7886 18.2629 22.7981 18.2424C22.8232 18.1695 22.8177 18.0777 22.7729 18.0144C22.6313 17.8236 22.0863 17.6787 22.0572 17.5853C22.0351 17.514 21.9494 17.419 22.0446 17.3715C21.9927 17.4016 22.3796 17.3604 22.5196 17.3312C22.7021 17.2908 22.7155 17.1087 22.8413 17.043C23.0199 16.9496 23.281 17.0319 23.3817 16.8641C23.4407 16.7548 23.3935 16.6004 23.4509 16.5031C23.5217 16.3748 23.734 16.3487 23.8441 16.2474C23.8835 16.2204 23.8677 16.1096 23.8607 16.074ZM9.47841 24.4949C9.40762 24.4166 9.46739 24.263 9.59638 24.1989C9.83627 24.0849 9.9338 24.2163 9.98571 24.2804C10.2177 24.643 10.519 25.1117 10.7416 25.2985C10.5355 25.3191 9.76706 25.0824 9.47841 24.4949ZM11.4463 28.1374C11.3212 28.1374 10.5253 27.4621 10.6448 27.0433C10.8816 27.2199 11.4109 27.5912 11.4785 27.584C11.5493 27.6252 11.6051 28.0891 11.4463 28.1374ZM12.3736 28.1406C12.269 28.0479 11.4974 27.2278 11.6909 26.8462C11.9025 27.0607 12.4923 27.607 12.7031 27.66C12.7621 27.816 12.7527 28.2459 12.3736 28.1406ZM12.4562 25.0048C12.5914 25.2098 12.7771 25.3278 12.7668 25.7687C12.7542 25.8748 12.7889 25.8962 12.8785 25.8867C12.9595 25.8653 12.9155 25.3587 13.1585 25.3895C13.3669 25.4212 13.2262 25.7125 13.3284 26.0379C13.3662 26.1543 13.6005 26.5715 13.5384 27.2879C13.5321 27.4708 13.1821 27.7123 12.9839 27.5706C12.8203 27.4708 12.8203 27.3497 12.7267 26.5929C12.6866 26.1464 12.1463 25.992 11.9166 25.7893C11.6869 25.6183 11.8175 25.5344 11.7758 25.2241C11.6445 24.7768 11.1246 24.5678 11.2984 24.2685C11.3519 24.1949 11.4046 24.1237 11.569 24.1878C11.5776 24.4102 12.1038 24.5828 12.4562 25.0048ZM8.76975 23.5909C8.7556 23.5972 8.75402 23.5996 8.77447 23.5893C8.7729 23.5893 8.77133 23.5909 8.76975 23.5909C8.82245 23.5679 9.05369 23.4571 9.11503 23.4357C9.35964 23.3486 9.48942 23.4792 9.71436 23.3534C9.76706 23.3217 9.82683 23.2354 9.8756 23.1942C9.91807 23.1554 9.99593 23.161 10.0455 23.1246C10.1705 23.0407 10.4026 22.7715 10.5638 22.7438C10.655 22.7264 10.6542 22.7501 10.7014 22.7549C10.7014 22.7644 10.7699 22.7406 10.7526 22.8792C10.7093 23.1452 11.3322 22.876 11.7412 22.9742C12.0189 23.0407 12.2902 23.1357 12.2186 23.3154C12.2281 23.2964 12.1368 23.3708 12.1156 23.385C11.9245 23.5259 11.775 23.3708 11.6783 23.3589C11.5108 23.3391 11.392 23.3898 11.2213 23.3684C11.2213 23.3652 11.016 23.2995 11.016 23.2995C10.8855 23.2916 10.6991 23.3605 10.5992 23.3684C10.4112 23.3827 10.3208 23.3162 10.1525 23.3344C10.0691 23.3439 9.93616 23.4523 9.87638 23.4729C9.82133 23.4927 9.75683 23.5133 9.70256 23.5307C9.66638 23.5386 9.57279 23.5909 9.53032 23.6114C9.35964 23.6946 9.25739 23.6946 9.04739 23.7508L8.9247 23.7848C8.662 23.8181 8.68717 23.6352 8.76975 23.5909ZM8.1311 24.6184C8.41346 24.5512 8.49762 24.6264 8.63133 24.9478C8.73121 25.1378 8.942 25.3927 9.02223 25.5114C8.69661 25.5494 8.18065 25.1037 8.03672 24.8599C7.94391 24.7396 8.08391 24.6446 8.1311 24.6184ZM4.54616 23.2671C4.91739 23.1626 5.24458 23.0549 5.38223 22.9757C5.43178 22.9734 5.48054 22.9734 5.53009 22.9702C5.55054 23.0692 5.58908 23.1705 5.64728 23.2687C5.66065 23.29 5.67245 23.3098 5.68503 23.3257C5.46166 23.3328 5.00863 23.3035 4.54616 23.2671ZM5.3193 23.921C5.50964 23.8054 5.69133 23.6811 5.86436 23.5537C5.94301 23.6447 6.02796 23.7326 6.12627 23.8149C6.02481 23.841 5.71099 23.8814 5.3193 23.921Z" fill="#7C0019"/>
<path d="M8.77048 23.591C8.77216 23.591 8.77551 23.5893 8.77551 23.5893C8.75374 23.6001 8.75542 23.5976 8.77048 23.591Z" fill="#D7C9B1"/>
<path d="M5.79598 5.71345C5.65912 5.60736 5.52778 5.50999 5.24778 5.21232C5.24778 5.21232 4.0625 3.89261 3.8816 3.69153C3.92721 3.63532 5.25957 1.99341 5.25957 1.99341L5.33901 1.91107H5.23834H4.66733L3.1698 3.77545V1.91107H3.12575H2.49182V5.84961H3.1698V3.83245L4.73261 5.58282C4.86238 5.75857 5.09598 5.84882 5.4216 5.84882H5.98081L5.8471 5.75224C5.84946 5.75382 5.79598 5.71345 5.79598 5.71345Z" fill="#D7C9B1"/>
<path d="M9.00342 1.79474C8.40724 1.79078 7.89364 1.99186 7.47915 2.39482C7.06387 2.7954 6.85229 3.28861 6.85229 3.85861C6.85229 4.45869 7.06151 4.96457 7.47286 5.35882C7.87241 5.74594 8.36791 5.94148 8.94679 5.94148C9.52567 5.94148 10.0282 5.73723 10.4388 5.33744C10.8494 4.93844 11.0594 4.43019 11.0594 3.82932C11.0594 3.2799 10.8659 2.80332 10.4852 2.41382C10.0896 2.00611 9.58937 1.7979 9.00342 1.79474ZM8.97432 5.4269C8.56769 5.4269 8.22162 5.2559 7.95499 4.91549C7.70331 4.60119 7.57589 4.22832 7.57589 3.80636C7.57589 3.37015 7.70331 3.00678 7.95578 2.72732C8.20746 2.45024 8.54567 2.30853 8.96331 2.30853C9.37229 2.30853 9.71207 2.47794 9.97319 2.81282C10.2139 3.12315 10.335 3.50474 10.335 3.94649C10.335 4.37478 10.2123 4.73182 9.96769 5.00653C9.71679 5.28361 9.38095 5.4269 8.97432 5.4269Z" fill="#D7C9B1"/>
<path d="M18.466 3.96548C18.547 3.96548 19.7244 3.96706 19.7244 3.96706V3.45011C19.7244 3.45011 18.547 3.45169 18.466 3.45169C18.466 3.3749 18.466 2.50723 18.466 2.43044C18.7421 2.42411 20.0052 2.43044 20.0194 2.43044H20.0626V1.90081L17.7833 1.89923V1.94436L17.7849 5.84965H20.2223L20.3049 5.29469C20.3049 5.29469 18.5478 5.29548 18.4652 5.29548C18.466 5.21711 18.466 4.04465 18.466 3.96548Z" fill="#D7C9B1"/>
<path d="M23.9362 1.89923H23.3093L21.7087 5.84886H22.3144C22.3144 5.84886 22.8335 4.45473 22.8531 4.39931C22.9098 4.39931 24.2099 4.39931 24.2657 4.39931C24.2854 4.45394 24.8147 5.84886 24.8147 5.84886H25.5666L23.9653 1.89923H23.9362ZM24.0463 3.87681C23.9409 3.87681 23.1481 3.87681 23.0419 3.87681C23.0804 3.77548 23.4823 2.75186 23.55 2.58006C23.6153 2.75344 24.0093 3.77627 24.0463 3.87681Z" fill="#D7C9B1"/>
<path d="M15.4245 4.95744C15.4245 4.95744 14.774 4.13807 14.6096 3.93144C14.7449 3.88315 14.9793 3.77628 15.1594 3.58628C15.356 3.38044 15.4544 3.14453 15.4544 2.88803C15.4544 2.59907 15.3458 2.35998 15.1303 2.18186C14.9062 1.99423 14.5955 1.90082 14.2062 1.90082H12.9477H12.9037V5.84965H13.6029V5.7879C13.5848 5.65569 13.5832 5.45223 13.5832 4.98357C13.5832 4.98357 13.5832 2.47715 13.5832 2.39165C14.2235 2.38532 14.4775 2.46686 14.5774 2.53811C14.7111 2.63469 14.7764 2.77244 14.7756 2.96165C14.774 3.39786 14.4555 3.65911 13.805 3.75728L13.7319 3.76757L15.1067 5.53853C15.2703 5.74594 15.5086 5.84886 15.8162 5.84886H16.3762L16.2605 5.7689C15.9813 5.57653 15.6754 5.28044 15.4245 4.95744Z" fill="#D7C9B1"/>
<path d="M12.9588 8.4194C12.9973 8.4194 13.5589 8.4194 13.5589 8.4194V8.17319C13.5589 8.17319 12.9981 8.17319 12.9588 8.17319C12.9588 8.13678 12.9588 7.72353 12.9588 7.6879C13.0901 7.68474 13.6918 7.6879 13.6989 7.6879H13.7178V7.43457L12.6332 7.43378V7.45357L12.634 9.31557H13.7949L13.835 9.05036C13.835 9.05036 12.9981 9.05274 12.958 9.05274C12.9588 9.01394 12.9588 8.45661 12.9588 8.4194Z" fill="#D7C9B1"/>
<path d="M4.02862 7.4353H3.80368L3.80604 8.59589C3.80604 8.94264 3.72581 9.12868 3.30346 9.12868H3.25312C2.97233 9.12868 2.83076 8.94897 2.83076 8.59589L2.83155 7.4353H2.50671V8.59668C2.50671 8.73759 2.51143 8.83339 2.52323 8.89197C2.54211 8.99884 2.58694 9.08909 2.65379 9.16351C2.77492 9.2973 2.95031 9.36459 3.17368 9.36459H3.38368C3.60548 9.36459 3.78166 9.2973 3.90278 9.16351C3.96885 9.08909 4.01368 8.99884 4.03256 8.89197C4.04435 8.83339 4.04907 8.73759 4.04907 8.59668V7.4353H4.02862Z" fill="#D7C9B1"/>
<path d="M6.84592 7.4353L6.84513 7.45509C6.84513 7.45509 6.84356 8.70672 6.84356 8.81755C6.77356 8.73047 5.76131 7.4353 5.76131 7.4353H5.47974V9.31947H5.72434C5.72434 9.31947 5.72513 8.02193 5.72513 7.9103C5.79356 7.99976 6.82232 9.31868 6.82232 9.31868L7.0921 9.31947V7.4353H7.07007H6.84592Z" fill="#D7C9B1"/>
<path d="M8.47168 7.4353V9.31947H8.79415L8.79494 7.4353H8.77449H8.47168Z" fill="#D7C9B1"/>
<path d="M20.1766 7.4353V7.85093V8.90622L20.179 9.31947H20.5015V8.90622V7.85093V7.45509V7.4353H20.481H20.1766Z" fill="#D7C9B1"/>
<path d="M11.2882 7.4353C11.2882 7.4353 10.7887 8.81122 10.7525 8.91255C10.7164 8.81122 10.2264 7.4353 10.2264 7.4353H9.85828L10.5567 9.32105H10.8501L11.5729 7.4353H11.543H11.2882Z" fill="#D7C9B1"/>
<path d="M18.5957 8.36552C18.5949 8.36394 18.344 8.24123 18.344 8.24123L18.1301 8.13436C17.972 8.05123 17.8926 7.96177 17.8926 7.86519C17.8926 7.78523 17.9295 7.72586 18.0027 7.68469C18.0601 7.65144 18.1403 7.63719 18.241 7.63957C18.4046 7.64352 18.5721 7.6934 18.6586 7.76148L18.6917 7.78761V7.45352L18.6783 7.44957C18.5469 7.4084 18.4038 7.38702 18.2559 7.38702C18.0632 7.38702 17.8988 7.42423 17.7699 7.50102C17.6149 7.58969 17.5371 7.72348 17.5371 7.89448C17.5371 8.06944 17.6244 8.21432 17.7958 8.32594L17.8886 8.37186L18.2614 8.55632C18.4195 8.63944 18.499 8.73602 18.499 8.84607C18.499 8.9284 18.4565 8.99411 18.37 9.04636C18.2921 9.09386 18.208 9.11602 18.1222 9.11602C17.9201 9.11444 17.7313 9.06377 17.5606 8.96402L17.5237 8.94186L17.5717 9.2704L17.5842 9.27515C17.7345 9.33294 17.9067 9.36144 18.09 9.36144C18.3188 9.36144 18.5147 9.30127 18.6547 9.18807C18.7892 9.07961 18.856 8.93552 18.856 8.76136C18.8545 8.60619 18.7672 8.47477 18.5957 8.36552Z" fill="#D7C9B1"/>
<path d="M21.7284 7.42822V7.44881L21.7277 7.67443C21.7277 7.67443 22.2114 7.67443 22.2507 7.67601C22.2507 7.71639 22.2507 9.31476 22.2507 9.31476H22.5724C22.5724 9.31476 22.5732 7.71639 22.5732 7.67601C22.6125 7.67601 23.1072 7.67601 23.1072 7.67601V7.42822H21.7284Z" fill="#D7C9B1"/>
<path d="M25.2159 7.4306C25.2159 7.4306 24.7385 8.17318 24.7054 8.22306C24.6724 8.17239 24.2036 7.42822 24.2036 7.42822H24.1926H23.8308C23.8308 7.42822 24.497 8.48351 24.5049 8.49381C24.5049 8.50647 24.5025 9.31556 24.5025 9.31556H24.8265C24.8265 9.31556 24.8273 8.50647 24.8273 8.4946C24.8352 8.48272 25.5289 7.4306 25.5289 7.4306H25.2159Z" fill="#D7C9B1"/>
<path d="M16.2614 8.89044C16.2614 8.89044 15.9515 8.49936 15.8728 8.40199C15.9381 8.37824 16.0498 8.32757 16.1348 8.23811C16.2291 8.13915 16.2755 8.02594 16.2755 7.90482C16.2755 7.76628 16.2244 7.65307 16.1214 7.56678C16.0136 7.47811 15.8658 7.43378 15.6817 7.43378H15.08H15.0612V9.31478H15.3939V9.28548C15.386 9.22215 15.386 9.13111 15.386 8.90311C15.386 8.90311 15.386 7.70928 15.386 7.66811C15.6896 7.66415 15.8115 7.70294 15.8579 7.73778C15.9232 7.7829 15.9539 7.84861 15.9531 7.93807C15.9523 8.14707 15.8013 8.26978 15.4914 8.31648L15.4568 8.32282L16.1112 9.16594C16.189 9.26332 16.3015 9.31399 16.4478 9.31399H16.7168L16.6601 9.27519C16.5257 9.18653 16.3809 9.04482 16.2614 8.89044Z" fill="#D7C9B1"/>
</g>
</svg>
