<svg width="29" height="38" viewBox="0 0 29 38" fill="none" xmlns="http://www.w3.org/2000/svg">
<path d="M27.8675 0.484497V20.2374C27.8675 20.2374 28.0209 27.3735 23.1083 31.4893C23.1083 31.4893 19.0617 34.7961 14.5644 36.8956H14.5156C9.85627 34.8769 6.04717 31.4893 6.04717 31.4893C1.13538 27.3735 1.21088 20.2374 1.21088 20.2374V0.484497H27.8675Z" fill="#D7C9B1"/>
<path d="M27.8675 0.000793457H0.731115V20.2374C0.728755 20.5335 0.710665 27.6434 5.74201 31.8598L5.73022 31.8503C5.88752 31.992 9.65022 35.3123 14.3261 37.3398L14.4173 37.3785H14.6698L14.7657 37.3334C19.2662 35.2339 23.3686 31.897 23.4111 31.8646C28.4488 27.6442 28.3559 20.5295 28.3481 20.2279V0.000793457H27.8675ZM27.387 0.967418C27.387 1.88813 27.387 20.2374 27.387 20.2374C27.387 20.2421 27.387 20.2548 27.387 20.2809C27.387 20.8778 27.2808 27.364 22.8016 31.1173C22.7654 31.145 18.8572 34.3211 14.5361 36.3747C10.082 34.4019 6.40347 31.1592 6.36572 31.1268L6.3555 31.1173C1.74415 27.2531 1.69067 20.497 1.69067 20.2493C1.69067 20.2445 1.69067 1.88813 1.69067 0.967418C2.60067 0.967418 26.4793 0.967418 27.387 0.967418Z" fill="#7C0019"/>
<path d="M27.7621 11.1055H1.21167V0.484497H27.7621V11.1055Z" fill="#7C0019"/>
<path d="M1.74652 1.03156V1.22947H27.3964V1.03156H1.74652Z" fill="#D7C9B1"/>
<path d="M1.74652 6.55896V6.75609H27.3964V6.55896H1.74652Z" fill="#D7C9B1"/>
<path d="M1.68753 9.85861V10.0565H27.339V9.85861H1.68753Z" fill="#D7C9B1"/>
<path d="M12.3771 33.136H12.7302C12.7798 33.136 12.7617 33.0917 12.7617 33.0917C12.6177 32.4512 12.6925 31.9525 12.72 31.8044C12.72 31.8044 12.7349 31.7593 12.683 31.7593H12.3346C12.2874 31.7593 12.3047 31.7957 12.3047 31.7957C12.4227 32.2866 12.3771 32.9072 12.3464 33.0885C12.3464 33.0885 12.3252 33.136 12.3771 33.136Z" fill="#7C0019"/>
<path d="M13.6843 31.7205C13.1227 31.7751 13.1573 32.4385 13.1573 32.4385C13.1919 33.0386 13.8101 33.151 13.8101 33.151C13.6418 33.6102 13.1911 33.748 13.1911 33.748C13.0841 33.7899 13.162 33.8216 13.162 33.8216C13.2973 33.8643 13.4931 33.7868 13.4931 33.7868C14.3182 33.4131 14.3394 32.5438 14.3394 32.5438C14.3559 31.6572 13.6843 31.7205 13.6843 31.7205ZM13.8848 32.9413C13.6166 32.9492 13.5521 32.5288 13.5521 32.5288C13.4821 32.0649 13.6607 32.0388 13.6607 32.0388C13.8494 31.9802 13.9312 32.3736 13.9312 32.3736C14.024 32.8265 13.8848 32.9413 13.8848 32.9413Z" fill="#7C0019"/>
<path d="M15.7662 32.2581C15.7662 32.2581 15.6915 31.7071 15.1794 31.7142C15.1794 31.7142 14.6721 31.6999 14.6485 32.4069C14.6485 32.4069 14.6289 33.1534 15.2707 33.121C15.2707 33.121 15.8983 33.0814 15.7662 32.2581ZM15.2793 32.8858C15.0363 32.9737 15.0103 32.4758 15.0103 32.4758C14.9852 31.9984 15.1771 31.9525 15.1771 31.9525C15.3729 31.9042 15.4264 32.2549 15.4264 32.2549C15.5145 32.7964 15.2793 32.8858 15.2793 32.8858Z" fill="#7C0019"/>
<path d="M15.9172 33.3117C16.4583 33.421 16.6022 33.0331 16.6022 33.0331C16.7745 32.486 16.0949 32.4583 16.0949 32.4583L16.2043 31.753C16.2043 31.753 16.8862 31.7878 17.0694 31.696C17.0694 31.696 17.1119 31.6667 17.0875 31.7704C17.0875 31.7704 17.0498 32.0063 16.8272 32.0205L16.4921 32.0482L16.4599 32.2485C16.4599 32.2485 17.0395 32.2351 17.0293 32.866C17.0293 32.866 17.0081 33.3537 16.441 33.4732C16.441 33.4732 16.1759 33.5326 15.87 33.4067C15.87 33.4067 15.8244 33.3854 15.8488 33.3474C15.8488 33.3474 15.87 33.3015 15.9172 33.3117Z" fill="#7C0019"/>
<path d="M13.9202 20.1052C13.9627 20.0545 14.0185 20.0901 14.0649 20.1052C14.1082 20.1186 14.1098 20.2033 14.1349 20.2492C14.1483 20.2801 14.2333 20.3656 14.2411 20.3925C14.3103 20.71 14.2411 21.1264 14.0988 21.3655C14.0594 21.4407 13.9934 21.4787 13.9478 21.4803C13.888 21.4874 13.8691 21.398 13.8487 21.3655C13.7574 21.2388 13.8258 20.934 13.8487 20.7915C13.8722 20.6102 13.7299 20.315 13.8211 20.1812C13.8211 20.1812 13.9179 20.1052 13.9202 20.1052Z" fill="#7C0019"/>
<path d="M9.63448 20.4408C9.71078 20.4171 9.82089 20.4567 9.86729 20.4408L9.97033 20.3981C10.0891 20.3213 10.2079 20.3442 10.3282 20.3561C10.388 20.3625 10.5681 20.44 10.6263 20.4424C10.7214 20.4543 11.1729 20.5018 11.6519 20.5715C11.648 20.5699 11.9075 20.5374 11.8422 20.4646C11.8831 20.5113 11.8352 20.425 11.7376 20.391L11.7038 20.3553C11.7077 20.3498 11.6212 20.2825 11.7746 20.2287C11.7164 20.2477 11.8768 20.2057 11.9075 20.1717C11.9704 20.1044 11.8792 20.0331 11.8792 20.0331C11.6519 19.9547 11.3971 20.1028 11.0565 20.0672C10.889 20.0529 10.6507 19.9547 10.4155 19.9959C10.1575 20.041 9.7792 20.1875 9.59909 20.3284C9.59988 20.33 9.51336 20.4812 9.63448 20.4408Z" fill="#7C0019"/>
<path d="M12.5021 18.5717C12.7341 18.559 12.7444 18.7997 12.7491 18.7752C12.7231 18.9462 12.3023 18.9636 12.2025 19.0974C11.9075 19.4837 12.0302 19.8526 11.3349 19.8914C11.3349 19.8914 11.1949 19.8582 11.2492 19.7996C11.2932 19.7537 11.46 19.7093 11.5229 19.6705C11.6134 19.6199 11.6055 19.4742 11.6653 19.384C11.6771 19.3602 11.7549 19.3341 11.7746 19.3135C11.9704 19.0491 11.9925 18.7799 12.3362 18.6224C12.3503 18.6137 12.4762 18.5773 12.5021 18.5717Z" fill="#7C0019"/>
<path d="M14.7272 17.5354C14.8074 17.4895 14.8853 17.5354 14.9372 17.5829C14.9687 17.6027 15.2219 18.2178 15.2329 18.2772C15.266 18.5013 15.2903 19.0166 15.2306 19.1805C15.1456 19.4101 14.934 19.5882 14.9805 19.9975C15.0048 20.2358 15.1102 20.4234 15.2101 20.6324C15.2227 20.6665 15.3265 20.8707 15.3328 20.9135C15.3714 21.1328 15.2518 21.417 15.2337 21.5943C15.181 22.0361 15.3564 22.439 15.2856 22.8618C15.2565 23.0431 15.1983 23.1357 15.0984 23.2457L15.0198 23.3146C14.9993 23.3597 14.9584 23.3732 14.9191 23.4048L14.8711 23.4547C14.7964 23.4713 14.7893 23.5149 14.7579 23.5196C14.5699 23.5624 14.5314 23.4516 14.5439 23.4761C14.352 22.9338 14.6721 22.3028 14.5085 21.7788C14.4716 21.66 14.33 21.5389 14.3119 21.4114C14.2458 20.9404 14.6816 20.695 14.6761 20.3791C14.6761 20.1551 14.3819 19.8645 14.3158 19.6428C14.2325 19.3808 14.1782 18.8844 14.2907 18.5606C14.3174 18.4831 14.4189 18.3508 14.4456 18.2448C14.4991 18.0429 14.5817 17.8758 14.6108 17.7421C14.621 17.7009 14.6462 17.6423 14.6682 17.6019C14.6761 17.5908 14.7138 17.5426 14.7272 17.5354Z" fill="#7C0019"/>
<path d="M20.2831 16.416C20.5977 16.3796 20.7401 16.5063 20.5922 16.7754L20.5309 16.834C20.5049 16.8427 20.4216 16.9528 20.4042 16.9686C20.2532 17.0818 20.1085 17.1507 19.9929 17.294C19.9536 17.3423 19.9213 17.4634 19.8718 17.5061C19.7923 17.5639 19.4927 17.6961 19.4148 17.7104C19.0357 17.7729 18.5158 17.389 18.4608 17.1681C18.4112 16.9781 18.4608 16.7944 18.5426 16.7501C18.67 16.6852 19.0105 16.72 19.1246 16.7073C19.4187 16.6852 19.602 16.701 19.8277 16.6234C19.9646 16.5783 20.1203 16.4358 20.2831 16.416Z" fill="#7C0019"/>
<path d="M18.6613 16.2885C18.6613 16.2885 18.8399 16.3637 19.0003 16.325C19.1128 16.2972 19.322 16.2007 19.4282 16.1809C19.4927 16.1642 19.5823 16.1991 19.6445 16.1809C19.8183 16.127 20.1376 15.7858 19.7546 15.7494C19.6154 15.7352 19.2001 15.8935 19.0719 15.9299C18.9421 15.9624 18.8611 15.9845 18.7541 16.0415C18.725 16.0582 18.5764 16.1809 18.5945 16.1595C18.5945 16.1595 18.4962 16.2418 18.6613 16.2885Z" fill="#7C0019"/>
<path d="M15.9227 16.9361C15.8102 16.9211 15.8102 16.7311 15.5294 16.7921C15.3328 16.834 15.2793 17.1238 14.9922 17.1174L14.8499 17.0462C14.7256 17.0161 14.6367 17.0612 14.5266 17.0074C14.0225 16.7691 14.9183 15.5539 15.207 15.5689C15.2219 15.5689 15.3705 15.6243 15.3886 15.6402C15.4783 15.7201 15.4783 16.0574 15.5632 16.1809C15.6285 16.2672 15.7292 16.26 15.8157 16.325C15.907 16.3931 16.0792 16.6329 16.0996 16.758C16.0996 16.758 16.1476 16.9662 15.9227 16.9361Z" fill="#7C0019"/>
<path d="M20.5773 26.7707C20.5833 26.7605 20.5833 26.7622 20.5773 26.7707V26.7707Z" fill="#7C0019"/>
<path d="M24.5909 16.0685C24.5909 16.07 24.5917 16.0724 24.5917 16.0748C24.5917 16.0764 24.5932 16.0772 24.5932 16.0772C24.5917 16.0724 24.5917 16.07 24.5909 16.0685Z" fill="#7C0019"/>
<path d="M20.0755 15.7254C20.0788 15.7197 20.0821 15.7115 20.0837 15.7067C20.0747 15.7262 20.0731 15.7294 20.0755 15.7254Z" fill="#7C0019"/>
<path d="M17.9006 21.8732C17.8997 21.8715 17.8946 21.8715 17.8929 21.8698C17.9006 21.8749 17.9023 21.8749 17.9006 21.8732Z" fill="#7C0019"/>
<path d="M13.7535 17.0256C13.5576 17.1364 13.1329 17.3058 13.044 17.495C12.9937 17.5948 12.9937 17.6811 12.9536 17.8022C12.9489 17.8157 12.8954 17.8355 12.8789 17.8719C12.6712 17.8719 12.4888 17.86 12.3087 17.9075C12.1671 17.9479 11.9649 18.0983 11.8084 18.1244C11.4899 18.179 11.2469 18.0381 10.9495 18.0888C10.8166 18.1118 10.7317 18.2511 10.6224 18.3049C10.5296 18.3516 10.4918 18.3516 10.4187 18.4181L10.3526 18.4949C10.3424 18.5234 10.3093 18.5963 10.2889 18.6303C10.2244 18.7277 10.1976 18.8274 10.1819 18.9335C10.167 19.0364 10.1072 19.2818 10.0545 19.3832C10.0293 19.4315 9.89326 19.5415 9.87438 19.5866C9.86416 19.6183 9.83427 19.6492 9.87438 19.6943C9.82876 19.6444 9.8382 19.7442 10.0954 19.7576C10.3785 19.764 10.996 19.5748 10.996 19.5748L11.2933 19.414C11.3499 19.3689 11.5803 19.1948 11.6299 19.133C11.8462 18.8638 12.4227 17.8814 12.8726 18.1403L12.9536 18.1973C13.0606 18.3785 12.9261 18.8979 12.8451 19.0158L12.7436 19.137C12.6634 19.1639 12.6067 19.3721 12.5949 19.4703C12.5769 19.6246 12.6209 19.764 12.6327 19.851C12.6555 20.0363 12.676 20.2714 12.5611 20.5018C12.536 20.5469 12.4707 20.6269 12.488 20.7512C12.5092 20.8937 12.709 20.9974 12.7373 21.113C12.7538 21.1708 12.8049 21.1818 12.7373 21.2943C12.6995 21.3528 12.5352 21.4573 12.488 21.5104C12.4227 21.5753 12.4801 21.6798 12.5226 21.721C12.6461 21.8334 12.7483 21.8468 12.8451 21.9775C12.9819 22.154 12.974 22.3076 13.2761 22.3369C13.5128 22.3598 13.8471 22.3717 13.7063 22.0471L13.6347 21.926C13.5506 21.7146 13.4035 21.5262 13.383 21.2943C13.3555 20.999 13.5915 20.8485 13.4931 20.611C13.4129 20.4274 13.0566 20.4488 13.0267 20.2113C13.011 20.0767 13.1447 19.7972 13.1707 19.669C13.199 19.4964 13.1534 19.3871 13.2076 19.2375C13.2438 19.1322 13.4003 19.0119 13.4169 18.8797C13.4507 18.6438 13.2682 18.4941 13.3484 18.2337C13.387 18.1007 13.5954 18.1141 13.6725 18.0152C13.7716 17.8806 13.7173 17.6969 13.7779 17.5093C13.7842 17.4879 13.8353 17.3763 13.8455 17.3573C13.8384 17.3486 13.8856 17.1158 13.8856 17.1158C13.8542 16.9718 13.7645 17.0303 13.7535 17.0256ZM11.4875 18.9264C11.287 18.9731 11.2681 18.544 10.7875 18.7103C10.7616 18.7198 10.6263 18.844 10.6153 18.8646C10.5587 18.9937 10.5885 19.3206 10.5256 19.3523C10.5256 19.3523 10.3384 19.399 10.3746 19.1607C10.432 18.7823 10.5052 18.711 10.6947 18.5519C10.7207 18.5298 10.7915 18.4775 10.8284 18.468C11.0549 18.4165 11.4742 18.5036 11.5504 18.6208C11.6157 18.7158 11.4789 18.9288 11.4875 18.9264Z" fill="#7C0019"/>
<path d="M24.5917 16.0748C24.5578 15.8982 24.0836 15.9117 23.8917 15.6766C23.8201 15.5832 23.8736 15.5317 23.8917 15.462C23.9452 15.257 24.3801 15.3781 24.4816 15.196C24.5225 15.12 24.5374 14.8944 24.5107 14.8635C24.2385 14.5271 23.6644 14.6862 23.2585 14.5239C23.0635 14.4432 22.8196 14.2793 22.6144 14.2017C22.3564 14.1027 22.1574 14.0877 21.8994 13.9848C21.8396 13.9602 21.7256 13.8755 21.6643 13.8502C21.3764 13.7346 21.1499 13.7109 20.8636 13.5882C20.8298 13.5739 20.7425 13.524 20.7047 13.5106C20.5899 13.4607 20.5545 13.4528 20.4326 13.4092C19.9898 13.2454 19.4266 13.1052 18.7856 13.1448C18.504 13.1607 18.1816 13.1092 17.749 13.2327C17.598 13.2691 17.3887 13.4005 17.2487 13.4449C17.1496 13.475 17.0647 13.4916 16.975 13.532C16.85 13.5818 16.7399 13.657 16.5692 13.6966C16.0768 13.8075 15.4217 13.6855 14.923 13.7687C14.4896 13.8383 14.2403 14.113 13.8848 14.2365C13.7763 14.273 13.7314 14.2619 13.6253 14.3015C13.5623 14.3228 13.4153 14.3616 13.3649 14.3901C13.2163 14.4661 13.1203 14.4899 12.9528 14.5603C12.8694 14.5983 12.7703 14.6767 12.6885 14.7139C12.569 14.7733 12.5619 14.7907 12.462 14.8635L12.381 14.9229C12.381 14.9229 12.2056 15.0765 12.1844 15.1034C12.1152 15.177 12.0483 15.2776 11.9877 15.3544C11.8061 15.5681 11.5323 15.8357 11.3066 16.0012C11.2248 16.0597 11.1666 16.0487 11.0943 16.1112C11.0077 16.1769 10.9338 16.2474 10.8512 16.3091C10.6632 16.4445 10.4761 16.5355 10.27 16.6487L10.1371 16.7374C9.96246 16.8538 9.96954 16.9013 9.78864 17.0153C9.67066 17.0952 9.61875 17.218 9.50942 17.3122C9.43785 17.3676 9.35527 17.5433 9.30729 17.6193C9.08156 17.9502 8.99819 18.4387 8.83774 18.8496C8.78976 18.9659 8.39886 19.5336 8.30212 19.5684L8.23055 19.6373C8.17549 19.6848 8.17549 19.6982 8.12437 19.7489C8.00875 19.8526 7.89234 19.912 7.80347 20.0379C7.73032 20.1352 7.68785 20.2516 7.621 20.3601C7.51954 20.5279 7.35043 20.7147 7.26549 20.9008C7.23088 20.9689 7.20572 21.0377 7.18212 21.1027C7.17268 21.1122 7.16639 21.1248 7.16324 21.1248C7.11998 21.1802 7.04527 21.4122 7.04527 21.4122C6.96583 21.5975 6.77628 21.7012 6.52695 22.0598C6.23437 22.0812 5.22841 21.8239 4.54414 21.4977C4.69751 21.6687 5.46515 22.1888 6.36414 22.2886C6.30437 22.3757 6.29965 22.4675 6.19268 22.4952C5.83167 22.5839 5.20718 22.386 4.36639 22.0922C4.41594 22.2086 5.15527 22.6448 6.24852 22.7113C6.0865 22.9045 4.58504 22.8562 3.41156 22.534C3.36673 22.6583 4.8792 22.9963 5.70897 22.9845C5.56661 23.0581 5.19381 23.1436 4.95392 23.2307C4.5756 23.1879 4.04706 23.1222 3.94403 23.0826C3.96841 23.1602 4.34279 23.2623 4.6519 23.3352C4.35459 23.4412 3.91257 23.5038 3.74189 23.5394C3.86616 23.5727 4.34437 23.4935 4.84931 23.3724C5.29055 23.4579 5.96459 23.5465 6.33583 23.5299C6.24302 23.5766 5.89302 23.8038 5.61774 23.9653C4.91302 24.0326 4.14459 24.092 3.98021 24.1118C4.07302 24.1268 4.69201 24.1363 5.35032 24.1205C4.94684 24.358 4.51819 24.6034 4.31133 24.6984C4.61886 24.6208 5.16313 24.411 5.72077 24.1086C6.27527 24.0888 6.79437 24.0437 7.01066 23.9653C6.93594 24.1276 6.4892 24.905 6.07156 25.0847C6.25167 25.0555 6.82897 24.89 7.17897 24.0105C7.30403 24.0635 7.44403 24.0967 7.6092 24.1054C7.70122 24.2464 7.91909 24.6034 8.33279 24.624C8.41616 24.867 9.18302 26.125 10.259 25.6326C9.94751 25.4639 9.76032 25.2858 9.60695 24.7847C10.0844 24.7546 11.3491 25.4521 11.729 26.9618C11.4293 26.8589 11.0549 26.6847 11.0156 26.5343C10.9338 26.8842 10.8803 27.3339 11.6464 28.1105C11.6613 28.2775 11.659 28.477 11.6936 28.6655C11.821 28.7969 11.9673 28.8966 12.1018 29.013C12.112 29.2299 12.0813 29.5331 12.6531 29.7002C12.8466 29.8609 13.4711 30.0342 13.5616 30.1419C13.748 30.2021 14.0232 30.214 14.2246 30.2021C14.2246 30.2021 14.4959 30.1554 14.5683 30.0517C14.7036 30.0445 14.8876 30.0398 15.7158 29.1523C15.8896 28.9417 15.7158 27.7922 15.7575 27.5144C15.8393 27.3125 15.8747 27.1257 15.9856 26.8763C15.9856 26.8763 16.0989 26.6285 16.3104 26.5303C16.3246 26.5216 16.3372 26.5216 16.3545 26.5169C16.8319 26.4084 17.4532 26.8581 17.7482 26.9839C17.8544 27.0299 17.911 27.0045 17.9975 27.0592C18.0392 27.0805 18.0982 27.1787 18.1414 27.2025C18.2468 27.2618 18.3483 27.2468 18.4655 27.3085C18.637 27.4051 18.9846 27.9118 19.2866 27.854C19.381 27.8302 19.4549 27.6133 19.5359 27.5611C19.6767 27.474 19.8741 27.4811 20.0008 27.3837C20.1447 27.269 20.0857 27.1399 20.107 26.9839C20.107 26.9784 20.1738 26.9048 20.1809 26.8755C20.2509 26.8652 20.4066 26.8739 20.5034 26.843C20.5159 26.8375 20.5568 26.79 20.5741 26.771C20.6355 26.7069 20.5907 26.6364 20.5741 26.5857C20.5529 26.5287 20.4066 26.4599 20.361 26.4084C20.2532 26.3 20.0692 26.1448 20.0008 26.0126C19.9677 25.9469 20.0094 25.935 19.9646 25.8661C19.9174 25.7909 19.7916 25.7141 19.7538 25.6175C19.6162 25.3072 19.6712 24.6192 19.6091 24.5227C19.5532 24.4292 19.4825 24.4419 19.4266 24.3556C19.3078 24.1648 19.4549 23.5545 19.4652 23.3122C19.4754 23.1175 19.2866 23.2386 19.2866 23.2386C19.1301 23.6281 19.1466 23.7991 19.1089 24.3556C19.1026 24.4047 19.0365 24.7 19.0365 24.753C19.0349 24.947 19.1466 25.2763 19.0711 25.5091C19.0459 25.5843 18.8902 25.7299 18.6778 25.7244C18.5976 25.7244 18.1973 25.6199 18.1068 25.5803C18.0887 25.5708 18.0038 25.4734 17.9983 25.4719C17.7985 25.3127 17.7568 25.4616 17.749 25.54C17.7419 25.6239 17.7757 25.6397 17.7922 25.6872C17.7993 25.7331 17.8795 25.9041 17.8717 25.92C17.8693 25.9374 17.7993 26.1274 17.4273 25.9041C17.1473 25.7323 16.8704 25.2621 16.8555 25.1821C16.817 25.0032 16.872 24.8662 16.9066 24.8037C17.0466 24.6754 17.2118 24.8536 17.3526 24.928C17.3872 24.947 17.4745 25.0087 17.5177 25.0159C17.5987 25.0309 17.7309 25.0024 17.749 25.0024C18.2917 24.9692 18.854 25.1663 18.95 24.799C19.0105 24.5686 18.7856 24.4459 18.7463 24.3493C18.6952 24.2337 18.7211 24.225 18.6912 24.0983C18.6873 24.0888 18.6495 24.0049 18.6417 23.9938C18.5858 23.8988 18.6259 23.8141 18.5717 23.7072C18.5143 23.5909 18.3538 23.5188 18.2862 23.4191C18.1941 23.2845 18.1941 23.119 18.0699 23.0209C17.8866 22.8705 17.1536 22.6504 17.0679 22.4786C16.9286 22.2062 17.1001 21.7067 17.0332 21.3647C16.9963 21.1652 16.9318 21.056 16.8099 20.9317C16.7627 20.8842 16.7407 20.8121 16.758 20.7464C16.7894 20.6277 16.8531 20.6609 16.8885 20.3917C16.9113 20.2437 16.8752 20.0774 16.8885 19.9247C16.8893 19.9001 16.9593 19.6642 16.9632 19.6365C16.9963 19.2335 16.9436 18.8132 16.8555 18.5226C16.8138 18.3809 16.6832 18.2582 16.6408 18.1236C16.603 18.0112 16.6479 17.9471 16.603 17.8347C16.5668 17.7365 16.4418 17.6676 16.3922 17.5869C16.2947 17.442 16.3238 17.1982 16.1752 17.1166C16.0658 17.0549 16.0273 17.1404 16.0344 17.1166C15.9982 17.2472 16.0061 17.3771 16.069 17.5481C16.0957 17.6209 16.2302 17.727 16.2507 17.8006C16.2782 17.9328 16.2294 18.0943 16.2507 18.2337L16.3191 18.3769C16.3741 18.7379 16.1791 19.2185 16.0344 19.4188C15.9321 19.5534 15.6246 19.7244 15.6057 19.9239C15.5908 20.0482 15.6403 20.0529 15.6718 20.1044C15.7182 20.1701 15.8668 20.2572 15.8881 20.3205C15.9046 20.3664 15.9227 20.3569 15.9416 20.4052L15.9604 20.501C15.9848 20.7527 15.6584 20.8113 15.8165 21.1122C15.8621 21.1992 16.0147 21.1992 16.1004 21.2555C16.2632 21.3584 16.5723 21.6513 16.6014 21.8999C16.6156 22.0107 16.6007 22.5918 16.5684 22.6583C16.4937 22.8198 16.0918 22.8815 16.1382 23.1998C16.1877 23.5473 17.0962 23.4492 17.351 23.6312C17.4729 23.7152 17.4973 23.9028 17.5335 24.0674C17.5539 24.1561 17.465 24.1878 17.4249 24.2076C17.329 24.2622 17.2605 24.221 17.1386 24.2456C16.8429 24.3057 16.3718 24.4403 16.2483 24.6786C16.0934 24.9541 16.2758 25.3317 16.2105 25.6484C16.1453 25.935 15.9321 26.2841 15.7772 26.5153C15.6828 26.6562 15.5625 26.7955 15.5176 26.995C15.4122 27.4178 15.4854 27.9189 15.4555 28.4192L15.4492 28.4224C15.4492 28.4224 15.4673 28.6805 15.2935 28.8705C15.0968 29.0866 14.4181 29.7287 13.9344 29.7287C13.755 29.7223 13.6811 29.6629 13.4861 29.5197C13.3626 29.5094 13.0794 29.4397 12.9158 29.2687C12.8647 29.1792 12.3307 28.6322 12.6665 28.477C12.9819 28.3314 13.4923 28.6496 13.7291 28.8032C13.825 28.8032 14.5156 28.838 15.2486 27.8706C15.214 27.3632 15.1723 26.7156 15.1173 26.5968C15.0418 26.3506 14.6241 25.9104 14.5353 25.6484C14.4802 25.4347 14.3811 25.0159 14.4448 24.7261C14.4181 24.4047 14.2144 24.3327 14.1302 24.0714C14.1066 24.0049 14.0791 23.9535 14.0649 23.9329C14.039 23.8379 14.0217 23.7539 13.9643 23.6661C13.8361 23.4705 13.7126 23.4286 13.5962 23.237C13.4743 23.0375 13.4955 22.7905 13.3091 22.6599C13.2061 22.5934 13.0676 22.5831 12.952 22.5166C12.8686 22.4683 12.7632 22.3456 12.6657 22.302C12.5532 22.2514 12.521 22.2363 12.407 22.1857C12.3503 22.1595 12.2496 22.1136 12.2009 22.0859C12.1505 22.0582 12.0994 22.0827 12.0577 22.0479C11.9201 21.9323 12.0184 21.8239 11.9508 21.6188C11.9445 21.5943 11.8902 21.5927 11.8784 21.5468C11.821 21.5309 11.7211 21.4399 11.6432 21.4945C11.5355 21.5737 11.5064 21.55 11.4403 21.7154C11.401 21.8239 11.3279 22.1429 11.2555 22.2213C11.191 22.2997 11.1092 22.4065 11.0085 22.4778C10.9134 22.5277 10.8308 22.5221 10.8308 22.5221L10.5626 22.5609L10.4304 22.7683C10.4304 22.7683 10.2834 22.7485 10.2071 22.7485C10.1858 22.7992 10.0089 22.9346 9.95302 22.9829C9.72572 23.1174 9.58729 23.0225 9.57156 22.9742C9.56133 22.9298 9.48976 22.8404 9.64234 22.7485C10.167 22.5997 10.8095 21.8935 10.8638 21.7415C10.797 21.8444 9.71077 22.4485 9.51021 22.5292C9.72572 22.0139 11.0557 21.2594 11.1367 21.1699C10.7962 21.2214 9.66358 21.9117 9.46617 22.2157C9.2774 22.5229 9.0556 22.4366 8.84718 22.4279C8.64347 22.4216 8.66156 22.6425 8.65133 22.7762C8.64897 22.9069 8.54909 23.1744 8.63324 23.2227C8.77246 23.3423 9.13819 22.853 9.25538 23.1167C9.31909 23.4096 8.56639 23.3953 8.5719 23.6328C8.5365 23.7571 9.26718 23.8014 9.40167 23.9337C9.16729 24.1062 8.59156 24.1609 8.42088 24.1704C8.3147 24.1783 8.21796 24.1751 8.16291 24.1672C8.06774 24.149 7.94347 24.0611 7.83414 23.8822C7.62493 23.5022 7.97729 23.2394 7.98201 23.1412C7.99145 23.0399 7.94347 23.0945 7.93639 22.9338C7.9301 22.7754 8.10864 22.7477 8.15347 22.7153C8.2038 22.6789 8.1401 22.633 8.1519 22.4794C8.2447 22.1295 8.81178 21.7257 8.66706 21.6125C8.53493 21.542 8.25965 21.8476 8.15347 21.9877C7.76257 22.4944 7.30796 22.3345 7.15381 22.3408C6.80931 22.3606 6.87066 21.9798 7.11055 22.0075C7.38819 21.9497 7.36774 21.5642 7.56515 21.6022C7.62886 21.884 7.31819 21.9228 7.46291 21.987C7.66111 22.0653 7.68077 21.8057 7.74291 21.6956C7.8019 21.584 8.08111 21.3449 8.04965 21.2832C7.96864 21.2531 7.76257 21.4027 7.67055 21.474C7.44324 20.9047 8.01425 20.4709 8.04257 20.3031C8.22976 20.0038 9.27661 19.6254 9.29706 19.1726L9.32538 19.1464C9.32538 19.1464 9.34425 19.1354 9.3765 19.1884C9.3765 19.1884 9.3765 19.1884 9.37886 19.1884C9.38594 19.2145 9.39145 19.2438 9.39931 19.2755C9.40167 19.3111 9.39695 19.3452 9.39695 19.3452L9.40246 19.3024C9.41032 19.3721 9.40718 19.433 9.41032 19.418V19.4853C9.41976 19.528 9.47246 19.5478 9.48032 19.5526C9.50313 19.5478 9.56133 19.5296 9.61403 19.4687C9.62268 19.4576 9.68403 19.4006 9.68403 19.3863C9.78392 19.3119 9.80279 19.3032 9.87279 19.2019C10.0529 18.9374 9.70605 18.5511 9.80279 18.1957C9.86886 17.9597 10.0875 17.6795 10.0875 17.6795C10.1465 17.5449 10.0529 17.5473 10.0529 17.5473C9.91527 17.5227 9.81852 17.67 9.83976 17.6494C9.66279 17.818 9.60931 17.898 9.48032 18.1228C9.48032 18.1228 9.37336 18.2226 9.3419 18.0872C9.27976 17.864 9.53066 17.4262 9.60931 17.3692C9.75639 17.2678 9.90583 17.2235 10.0899 17.1483C10.1835 17.1095 10.3211 16.9599 10.4131 16.9345C10.458 16.9195 10.5083 16.91 10.5555 16.9345C10.5555 16.9345 10.6239 16.9852 10.5917 17.1483C10.5917 17.1483 10.5217 17.343 10.5461 17.4143C10.5618 17.4626 10.5555 17.5093 10.6632 17.5093C10.9212 17.514 11.4946 17.4547 11.6629 17.3636C11.7007 17.3486 11.7384 17.2916 11.7722 17.2591C11.8257 17.2045 11.8123 17.1237 11.7722 17.1158L11.6629 17.0794C11.7463 17.0659 11.1776 17.0628 11.2704 17.0446C11.1705 17.0628 11.4041 16.7802 11.3766 16.6448C11.3648 16.5807 11.2531 16.5545 11.2335 16.5047C11.2225 16.4714 11.1619 16.4231 11.2335 16.3946L11.3161 16.3598C11.3436 16.3392 11.3727 16.3052 11.412 16.2877C11.5921 16.2038 11.9154 16.2458 12.0562 16.2877C12.0711 16.2964 12.3023 16.3598 12.3794 16.5751C12.3983 16.6369 12.4156 16.705 12.4494 16.7564C12.5587 16.9052 12.8734 16.9599 13.0574 16.7825C13.0944 16.7477 13.1392 16.6638 13.1667 16.6147C13.35 16.1896 13.0779 15.9014 12.7349 15.7842C12.5965 15.7336 12.3723 15.7193 12.1993 15.6742C12.0766 15.641 12.1498 15.5365 12.1844 15.5056L12.2363 15.4589C12.3047 15.3575 12.5171 15.2673 12.5949 15.2435C12.7845 15.1715 12.9701 15.0995 13.2383 15.2095C13.2776 15.223 13.3822 15.3061 13.4121 15.3148C13.6158 15.3647 13.6929 15.3797 13.8809 15.2815C13.9564 15.2443 13.9454 15.2348 13.9525 15.2111C14.0185 15.0187 13.8856 14.8905 13.8903 14.9118C13.8502 14.653 14.5864 14.972 14.7012 14.8089C14.8098 14.6609 14.739 14.3782 14.8813 14.2698C14.8979 14.2603 14.9812 14.2017 14.9891 14.1985C15.1259 14.17 15.2463 14.227 15.3548 14.2698L15.4712 14.326C15.7025 14.4226 15.9038 14.474 16.0289 14.6648C16.1075 14.7907 16.0934 14.9728 16.1696 15.0995C16.2027 15.1525 16.279 15.1897 16.3183 15.2435C16.3513 15.2831 16.4143 15.3092 16.4575 15.3338C16.5236 15.3757 16.5495 15.3924 16.6353 15.4201C16.699 15.4446 16.7886 15.5412 16.85 15.5665C17.0686 15.6552 17.3298 15.6441 17.5665 15.6378C17.7065 15.6315 17.7891 15.7154 17.922 15.6734C17.9904 15.6512 17.9716 15.5285 17.9283 15.4779C17.8434 15.3678 17.7781 15.394 17.6365 15.314C17.5807 15.28 17.5122 15.1691 17.4564 15.1343C17.2936 15.029 17.0561 15.0132 16.9577 14.8453C16.9444 14.82 16.9255 14.7709 16.9231 14.7408L16.883 14.664C16.6864 14.2619 16.6227 14.0212 16.813 13.9452C16.931 13.9001 17.1898 13.9254 17.3172 13.874C17.3455 13.8573 17.4013 13.7774 17.4226 13.7647C17.7065 13.6293 18.2405 13.4702 18.5331 13.6222C18.622 13.6634 18.5331 13.893 18.567 13.98C18.585 14.0196 18.6503 14.0861 18.725 14.1091C19.3393 14.2753 19.9536 14.2492 20.4035 14.4622C20.6725 14.5904 20.8777 14.7899 21.12 15.0013C21.3276 15.1873 21.0814 15.3979 21.2946 15.4604C21.1491 15.4787 21.0256 15.4961 20.9996 15.4201C20.9934 15.4019 20.9485 15.3338 20.9281 15.3148C20.7676 15.1612 20.5812 14.9237 20.3579 14.8461C20.2422 14.8034 20.1911 14.8414 20.0692 14.8089L19.9253 14.759C19.7695 14.7171 19.7585 14.7305 19.6059 14.6997C19.5391 14.6854 19.3857 14.6023 19.3173 14.5952C19.0137 14.5485 18.843 14.6735 18.5662 14.5952C18.4372 14.5572 18.2728 14.3521 18.169 14.2983C18.0408 14.2239 17.922 14.1985 17.7773 14.1534C17.7191 14.1368 17.6892 14.1368 17.6459 14.1582C17.5665 14.2057 17.5925 14.2761 17.6334 14.3363C17.657 14.3672 17.6774 14.421 17.7049 14.4392C17.8064 14.5128 18.0077 14.5128 18.0636 14.6189C18.2217 14.9324 17.9896 15.0432 17.9558 15.1359C17.9393 15.1937 17.8953 15.2388 17.9558 15.3156C17.9896 15.3552 18.0604 15.4058 18.1013 15.4209C18.2461 15.4834 18.3609 15.4597 18.4954 15.5301C18.5913 15.5816 18.6928 15.7573 18.8171 15.785C19.1041 15.8468 19.171 15.633 19.3165 15.6022C19.5241 15.5562 19.6523 15.6655 19.8907 15.6022C19.9693 15.5808 20.0134 15.4874 20.0684 15.4604C20.2053 15.3876 20.3413 15.3765 20.4278 15.4217C20.4278 15.4217 20.5199 15.4668 20.3909 15.5309C20.3162 15.5729 20.254 15.5729 20.1777 15.6125C20.1258 15.6394 20.0794 15.713 20.0708 15.7257C20.0464 15.7755 20.0291 15.8507 20.0307 15.8555C20.0535 15.8967 20.0841 15.9188 20.103 15.9299C20.3531 16.0162 20.6072 15.8539 20.8211 15.8207C20.9792 15.7961 21.422 15.8207 21.5502 15.918C21.5502 15.918 21.6682 15.9426 21.5919 16.1595C21.5439 16.2893 21.3402 16.3827 21.2639 16.4944C21.2183 16.5561 21.1687 16.6741 21.1223 16.735C21.0468 16.834 21.0335 16.83 20.9572 16.9219L20.9053 16.9979C20.8746 17.0905 20.5104 17.4016 20.4412 17.5061C20.4003 17.5687 20.3807 17.632 20.3382 17.6993C20.2729 17.7943 20.2249 17.8093 20.1911 17.8663C20.0865 18.0183 19.8812 18.3263 19.7113 18.4039C19.635 18.4371 19.5296 18.4007 19.4235 18.3793C19.3519 18.3611 19.274 18.2273 19.2111 18.198C18.961 18.0832 18.6826 18.1157 18.4616 17.9819C18.3514 17.9162 18.25 17.7222 18.1705 17.6209C18.1194 17.5544 18.0722 17.4341 17.9936 17.4024C17.8646 17.3589 17.5539 17.4008 17.4934 17.5109C17.3746 17.7373 17.6837 18.3192 17.7089 18.559C17.727 18.7625 17.6341 18.8543 17.7089 19.0237C17.7435 19.1108 17.8772 19.133 17.9212 19.205C18.1155 19.513 17.9456 19.946 17.9928 20.3569C18.0101 20.4844 18.0856 20.6427 18.0636 20.8272C18.0337 21.1145 17.6656 21.3623 17.8135 21.7985C17.8198 21.8159 17.889 21.8674 17.8945 21.8737C17.9503 21.8999 18.0416 21.8896 18.1013 21.8706C18.2209 21.8278 18.3365 21.5895 18.4608 21.5127C18.4734 21.4969 18.5143 21.4763 18.5371 21.4763C18.5504 21.4518 18.5843 21.4502 18.6031 21.4415C18.6558 21.4003 18.6771 21.3987 18.7085 21.3314C18.7581 21.2151 18.7416 21.0995 18.7793 20.9332C18.8163 20.7955 18.9429 20.5517 18.9594 20.3925C19.0043 19.9516 18.6849 19.0894 18.913 18.9462C19.0003 18.8931 19.0876 18.7894 19.2379 18.7657C19.3039 18.7498 19.5194 18.8171 19.613 18.8139C19.6122 18.8171 19.6114 18.8171 19.6114 18.8187C19.495 19.0926 19.9237 19.813 19.8907 20.212C19.8065 21.1802 19.1789 21.7154 18.6362 22.2308C18.5732 22.2925 18.6275 22.363 18.6731 22.4113C18.7801 22.5142 19.0428 22.4699 19.1773 22.4477C19.3739 22.4073 19.4612 22.3171 19.6052 22.2664C19.6579 22.2466 19.7239 22.2799 19.7829 22.2664C19.9308 22.226 20.0574 22.025 20.1408 21.9022C20.1408 21.9022 20.3154 21.713 20.3531 21.9648L20.3571 21.979C20.3571 22.2126 20.3154 22.4699 20.3571 22.6963C20.3987 22.9678 20.8895 23.7801 21.1436 23.8157C21.739 23.9044 21.1294 23.1491 21.105 23.0953C21.0075 22.8665 20.9123 22.4596 20.9265 22.1595C20.9304 22.0479 21.0209 21.8254 21.0335 21.7225C21.0398 21.6719 21.013 21.5531 21.0335 21.5112C21.0807 21.4146 21.3968 21.3829 21.4645 21.257C21.4826 21.2206 21.4558 21.1565 21.4645 21.1137C21.4794 21.029 21.5416 20.866 21.6092 20.7915C21.6509 20.7393 21.713 20.7084 21.7877 20.7915C21.8491 20.862 21.8656 21.0227 21.9678 21.1383L22.0552 21.2349C22.1605 21.3037 22.332 21.2119 22.2872 21.2222C22.3981 21.1913 22.3847 21.0773 22.4319 21.0385C22.439 21.033 22.5011 21.0061 22.5011 21.0061C22.7599 20.7385 22.1849 20.4955 22.1786 20.2484C22.1739 19.9706 22.24 19.6523 22.1448 19.3491C22.122 19.2723 21.9812 19.1655 21.9647 19.0966C21.9262 18.9224 22.0158 18.7387 22.0363 18.6303C22.0756 18.3991 21.9985 18.046 22.0725 17.9439C22.1157 17.8893 22.1841 17.8473 22.3218 17.8711C22.413 17.8885 22.4728 18.0373 22.5365 18.088C22.7701 18.2764 23.043 18.3825 23.4323 18.3382C23.4803 18.3366 23.5196 18.2637 23.5291 18.2432C23.5543 18.1703 23.5487 18.0785 23.5039 18.0152C23.3623 17.8244 22.8173 17.6795 22.7882 17.5861C22.7662 17.5148 22.6804 17.4198 22.7756 17.3723C22.7237 17.4024 23.1107 17.3612 23.2507 17.3319C23.4331 17.2916 23.4465 17.1095 23.5723 17.0438C23.7509 16.9504 24.012 17.0327 24.1127 16.8649C24.1717 16.7556 24.1245 16.6012 24.1819 16.5039C24.2527 16.3756 24.465 16.3495 24.5752 16.2482C24.6145 16.2212 24.5987 16.1104 24.5917 16.0748ZM10.2094 24.4957C10.1386 24.4174 10.1984 24.2638 10.3274 24.1997C10.5673 24.0857 10.6648 24.2171 10.7167 24.2812C10.9487 24.6438 11.25 25.1125 11.4726 25.2993C11.2665 25.3199 10.4981 25.0832 10.2094 24.4957ZM12.1773 28.1382C12.0522 28.1382 11.2563 27.4629 11.3758 27.0441C11.6126 27.2207 12.1419 27.592 12.2095 27.5848C12.2803 27.626 12.3362 28.0899 12.1773 28.1382ZM13.1046 28.1414C13 28.0487 12.2284 27.2286 12.4219 26.847C12.6335 27.0615 13.2234 27.6078 13.4341 27.6608C13.4931 27.8168 13.4837 28.2467 13.1046 28.1414ZM13.1872 25.0056C13.3225 25.2106 13.5081 25.3286 13.4979 25.7695C13.4853 25.8756 13.5199 25.897 13.6095 25.8875C13.6905 25.8661 13.6465 25.3594 13.8895 25.3903C14.098 25.422 13.9572 25.7133 14.0594 26.0387C14.0972 26.1551 14.3316 26.5723 14.2694 27.2887C14.2631 27.4716 13.9131 27.7131 13.7149 27.5714C13.5513 27.4716 13.5513 27.3505 13.4577 26.5937C13.4176 26.1472 12.8773 25.9928 12.6476 25.7901C12.418 25.6191 12.5485 25.5352 12.5068 25.2249C12.3755 24.7776 11.8556 24.5686 12.0294 24.2693C12.0829 24.1957 12.1356 24.1245 12.3 24.1886C12.3086 24.411 12.8348 24.5836 13.1872 25.0056ZM9.50077 23.5917C9.48661 23.598 9.48504 23.6004 9.50549 23.5901C9.50392 23.5901 9.50234 23.5917 9.50077 23.5917C9.55347 23.5687 9.7847 23.4579 9.84605 23.4365C10.0907 23.3494 10.2204 23.48 10.4454 23.3542C10.4981 23.3225 10.5579 23.2362 10.6066 23.195C10.6491 23.1562 10.727 23.1618 10.7765 23.1254C10.9016 23.0415 11.1336 22.7723 11.2948 22.7446C11.3861 22.7272 11.3853 22.7509 11.4325 22.7557C11.4325 22.7652 11.5009 22.7414 11.4836 22.8799C11.4403 23.1459 12.0632 22.8768 12.4722 22.9749C12.7499 23.0414 13.0212 23.1364 12.9496 23.3162C12.9591 23.2972 12.8679 23.3716 12.8466 23.3858C12.6555 23.5267 12.5061 23.3716 12.4093 23.3597C12.2418 23.3399 12.123 23.3906 11.9523 23.3692C11.9523 23.366 11.7471 23.3003 11.7471 23.3003C11.6165 23.2924 11.4301 23.3613 11.3302 23.3692C11.1422 23.3834 11.0518 23.3169 10.8835 23.3352C10.8001 23.3447 10.6672 23.4531 10.6074 23.4737C10.5523 23.4935 10.4879 23.5141 10.4336 23.5315C10.3974 23.5394 10.3038 23.5917 10.2613 23.6122C10.0907 23.6954 9.98841 23.6954 9.77841 23.7516L9.65572 23.7856C9.39302 23.8189 9.41819 23.636 9.50077 23.5917ZM8.86212 24.6192C9.14448 24.5519 9.22864 24.6272 9.36234 24.9486C9.46223 25.1386 9.67302 25.3935 9.75324 25.5122C9.42763 25.5502 8.91167 25.1045 8.76774 24.8607C8.67493 24.7404 8.81493 24.6454 8.86212 24.6192ZM5.27718 23.2679C5.64841 23.1634 5.9756 23.0557 6.11324 22.9765C6.16279 22.9742 6.21156 22.9742 6.26111 22.971C6.28156 23.07 6.3201 23.1713 6.3783 23.2694C6.39167 23.2908 6.40347 23.3106 6.41605 23.3265C6.19268 23.3336 5.73965 23.3043 5.27718 23.2679ZM6.05032 23.9218C6.24066 23.8062 6.42234 23.6819 6.59538 23.5545C6.67403 23.6455 6.75897 23.7334 6.85729 23.8157C6.75583 23.8418 6.44201 23.8822 6.05032 23.9218Z" fill="#7C0019"/>
<path d="M9.50147 23.5918C9.50315 23.5918 9.50649 23.5901 9.50649 23.5901C9.48473 23.6009 9.4864 23.5984 9.50147 23.5918Z" fill="#D7C9B1"/>
<path d="M6.52697 5.71424C6.39011 5.60816 6.25876 5.51078 5.97876 5.21312C5.97876 5.21312 4.79348 3.89341 4.61258 3.69232C4.6582 3.63612 5.99056 1.9942 5.99056 1.9942L6.07 1.91187H5.96933H5.39831L3.90079 3.77624V1.91187H3.85674H3.22281V5.85041H3.90079V3.83324L5.4636 5.58362C5.59337 5.75937 5.82697 5.84962 6.15258 5.84962H6.7118L6.57809 5.75303C6.58045 5.75462 6.52697 5.71424 6.52697 5.71424Z" fill="#D7C9B1"/>
<path d="M9.73438 1.7955C9.1382 1.79154 8.6246 1.99262 8.21011 2.39558C7.79482 2.79616 7.58325 3.28937 7.58325 3.85937C7.58325 4.45946 7.79247 4.96533 8.20381 5.35958C8.60336 5.74671 9.09887 5.94225 9.67775 5.94225C10.2566 5.94225 10.7592 5.738 11.1698 5.33821C11.5803 4.93921 11.7903 4.43096 11.7903 3.83008C11.7903 3.28066 11.5968 2.80408 11.2162 2.41458C10.8206 2.00687 10.3203 1.79866 9.73438 1.7955ZM9.70527 5.42766C9.29865 5.42766 8.95258 5.25666 8.68595 4.91625C8.43426 4.60196 8.30685 4.22908 8.30685 3.80712C8.30685 3.37091 8.43426 3.00754 8.68674 2.72808C8.93842 2.451 9.27662 2.30929 9.69426 2.30929C10.1033 2.30929 10.443 2.47871 10.7042 2.81358C10.9448 3.12391 11.0659 3.5055 11.0659 3.94725C11.0659 4.37554 10.9433 4.73258 10.6986 5.00729C10.4477 5.28437 10.1119 5.42766 9.70527 5.42766Z" fill="#D7C9B1"/>
<path d="M19.1969 3.96624C19.278 3.96624 20.4554 3.96783 20.4554 3.96783V3.45087C20.4554 3.45087 19.278 3.45245 19.1969 3.45245C19.1969 3.37566 19.1969 2.50799 19.1969 2.4312C19.473 2.42487 20.7362 2.4312 20.7503 2.4312H20.7936V1.90158L18.5143 1.89999V1.94512L18.5158 5.85041H20.9532L21.0358 5.29545C21.0358 5.29545 19.2787 5.29624 19.1962 5.29624C19.1969 5.21787 19.1969 4.04541 19.1969 3.96624Z" fill="#D7C9B1"/>
<path d="M24.6672 1.89999H24.0403L22.4398 5.84962H23.0454C23.0454 5.84962 23.5645 4.45549 23.5841 4.40008C23.6408 4.40008 24.9409 4.40008 24.9967 4.40008C25.0164 4.4547 25.5457 5.84962 25.5457 5.84962H26.2976L24.6963 1.89999H24.6672ZM24.7773 3.87758C24.6719 3.87758 23.8791 3.87758 23.7729 3.87758C23.8114 3.77624 24.2134 2.75262 24.281 2.58083C24.3463 2.7542 24.7403 3.77704 24.7773 3.87758Z" fill="#D7C9B1"/>
<path d="M16.1555 4.95821C16.1555 4.95821 15.505 4.13883 15.3407 3.93221C15.4759 3.88391 15.7103 3.77704 15.8904 3.58704C16.0871 3.38121 16.1854 3.14529 16.1854 2.88879C16.1854 2.59983 16.0768 2.36075 15.8613 2.18262C15.6372 1.995 15.3265 1.90158 14.9372 1.90158H13.6787H13.6347V5.85041H14.3339V5.78866C14.3158 5.65646 14.3143 5.453 14.3143 4.98433C14.3143 4.98433 14.3143 2.47791 14.3143 2.39241C14.9545 2.38608 15.2085 2.46762 15.3084 2.53887C15.4421 2.63546 15.5074 2.77321 15.5066 2.96241C15.505 3.39862 15.1865 3.65987 14.5361 3.75804L14.4629 3.76833L15.8377 5.53929C16.0013 5.74671 16.2396 5.84962 16.5472 5.84962H17.1072L16.9916 5.76966C16.7123 5.57729 16.4064 5.28121 16.1555 4.95821Z" fill="#D7C9B1"/>
<path d="M13.6898 8.42016C13.7283 8.42016 14.2899 8.42016 14.2899 8.42016V8.17396C14.2899 8.17396 13.7291 8.17396 13.6898 8.17396C13.6898 8.13754 13.6898 7.72429 13.6898 7.68866C13.8211 7.6855 14.4228 7.68866 14.4299 7.68866H14.4487V7.43533L13.3641 7.43454V7.45433L13.3649 9.31633H14.5258L14.5659 9.05112C14.5659 9.05112 13.7291 9.0535 13.689 9.0535C13.6898 9.01471 13.6898 8.45737 13.6898 8.42016Z" fill="#D7C9B1"/>
<path d="M4.75964 7.43613H4.5347L4.53706 8.59671C4.53706 8.94346 4.45683 9.1295 4.03447 9.1295H3.98414C3.70335 9.1295 3.56178 8.94979 3.56178 8.59671L3.56256 7.43613H3.23773V8.5975C3.23773 8.73842 3.24245 8.83421 3.25425 8.89279C3.27313 8.99967 3.31796 9.08992 3.38481 9.16434C3.50593 9.29813 3.68133 9.36542 3.9047 9.36542H4.1147C4.3365 9.36542 4.51268 9.29813 4.6338 9.16434C4.69987 9.08992 4.7447 8.99967 4.76357 8.89279C4.77537 8.83421 4.78009 8.73842 4.78009 8.5975V7.43613H4.75964Z" fill="#D7C9B1"/>
<path d="M7.57696 7.43613L7.57618 7.45592C7.57618 7.45592 7.57461 8.70754 7.57461 8.81838C7.50461 8.73129 6.49236 7.43613 6.49236 7.43613H6.21078V9.32029H6.45539C6.45539 9.32029 6.45618 8.02275 6.45618 7.91113C6.5246 8.00059 7.55337 9.3195 7.55337 9.3195L7.82314 9.32029V7.43613H7.80112H7.57696Z" fill="#D7C9B1"/>
<path d="M9.2027 7.43613V9.32029H9.52517L9.52596 7.43613H9.50551H9.2027Z" fill="#D7C9B1"/>
<path d="M20.9076 7.43613V7.85175V8.90704L20.91 9.32029H21.2325V8.90704V7.85175V7.45592V7.43613H21.212H20.9076Z" fill="#D7C9B1"/>
<path d="M12.0192 7.43613C12.0192 7.43613 11.5198 8.81204 11.4836 8.91338C11.4474 8.81204 10.9574 7.43613 10.9574 7.43613H10.5893L11.2878 9.32188H11.5811L12.3039 7.43613H12.274H12.0192Z" fill="#D7C9B1"/>
<path d="M19.3267 8.36635C19.3259 8.36476 19.075 8.24206 19.075 8.24206L18.8611 8.13518C18.703 8.05206 18.6236 7.9626 18.6236 7.86601C18.6236 7.78606 18.6605 7.72668 18.7337 7.68551C18.7911 7.65226 18.8713 7.63801 18.972 7.64039C19.1356 7.64435 19.3031 7.69422 19.3896 7.76231L19.4227 7.78843V7.45435L19.4093 7.45039C19.278 7.40922 19.1348 7.38785 18.9869 7.38785C18.7943 7.38785 18.6299 7.42506 18.5009 7.50185C18.3459 7.59051 18.2681 7.72431 18.2681 7.89531C18.2681 8.07026 18.3554 8.21514 18.5268 8.32676L18.6196 8.37268L18.9925 8.55714C19.1505 8.64026 19.23 8.73685 19.23 8.84689C19.23 8.92922 19.1875 8.99493 19.101 9.04718C19.0231 9.09468 18.939 9.11685 18.8532 9.11685C18.6511 9.11526 18.4623 9.0646 18.2917 8.96485L18.2547 8.94268L18.3027 9.27122L18.3153 9.27597C18.4655 9.33376 18.6377 9.36226 18.821 9.36226C19.0499 9.36226 19.2457 9.3021 19.3857 9.18889C19.5202 9.08043 19.5871 8.93635 19.5871 8.76218C19.5855 8.60701 19.4982 8.4756 19.3267 8.36635Z" fill="#D7C9B1"/>
<path d="M22.4594 7.42902V7.4496L22.4586 7.67522C22.4586 7.67522 22.9424 7.67522 22.9817 7.67681C22.9817 7.71718 22.9817 9.31556 22.9817 9.31556H23.3034C23.3034 9.31556 23.3042 7.71718 23.3042 7.67681C23.3435 7.67681 23.8382 7.67681 23.8382 7.67681V7.42902H22.4594Z" fill="#D7C9B1"/>
<path d="M25.9469 7.43139C25.9469 7.43139 25.4694 8.17397 25.4364 8.22385C25.4034 8.17318 24.9346 7.42902 24.9346 7.42902H24.9236H24.5618C24.5618 7.42902 25.228 8.48431 25.2358 8.4946C25.2358 8.50727 25.2335 9.31635 25.2335 9.31635H25.5575C25.5575 9.31635 25.5583 8.50727 25.5583 8.49539C25.5662 8.48352 26.2599 7.43139 26.2599 7.43139H25.9469Z" fill="#D7C9B1"/>
<path d="M16.9923 8.89121C16.9923 8.89121 16.6825 8.50012 16.6038 8.40275C16.6691 8.379 16.7808 8.32833 16.8657 8.23887C16.9601 8.13991 17.0065 8.02671 17.0065 7.90558C17.0065 7.76704 16.9554 7.65383 16.8523 7.56754C16.7446 7.47887 16.5967 7.43454 16.4127 7.43454H15.811H15.7921V9.31554H16.1248V9.28625C16.1169 9.22291 16.1169 9.13187 16.1169 8.90387C16.1169 8.90387 16.1169 7.71004 16.1169 7.66887C16.4205 7.66492 16.5425 7.70371 16.5889 7.73854C16.6541 7.78366 16.6848 7.84937 16.684 7.93883C16.6832 8.14783 16.5322 8.27054 16.2223 8.31725L16.1877 8.32358L16.8421 9.16671C16.92 9.26408 17.0325 9.31475 17.1787 9.31475H17.4477L17.3911 9.27596C17.2566 9.18729 17.1119 9.04558 16.9923 8.89121Z" fill="#D7C9B1"/>
</svg>
